<svg width="1144" height="541" xmlns="http://www.w3.org/2000/svg" xmlns:xlink="http://www.w3.org/1999/xlink" overflow="hidden"><defs><clipPath id="clip0"><path d="M72 40 1216 40 1216 581 72 581Z" fill-rule="evenodd" clip-rule="evenodd"/></clipPath></defs><g clip-path="url(#clip0)" transform="translate(-72 -40)"><rect x="73" y="41" width="288" height="144" fill="#0078D4"/><text fill="#FFFFFF" font-family="Segoe UI,Segoe UI_MSFontService,sans-serif" font-weight="400" font-size="24" transform="translate(132.409 108)">.NET Framework<tspan x="50.4867" y="28">&lt;=</tspan><tspan x="89.32" y="28">3.</tspan><tspan x="107.153" y="28">x</tspan></text><rect x="449" y="161" width="288" height="144" fill="#0078D4"/><text fill="#FFFFFF" font-family="Segoe UI,Segoe UI_MSFontService,sans-serif" font-weight="400" font-size="24" transform="translate(508.409 228)">.NET Framework<tspan x="69.9067" y="28">4.</tspan><tspan x="87.74" y="28">x</tspan></text><path d="M129 460C129 446.745 139.745 436 153 436L297 436C310.255 436 321 446.745 321 460L321 556C321 569.255 310.255 580 297 580L153 580C139.745 580 129 569.255 129 556Z" fill="#D73B01" fill-rule="evenodd"/><text fill="#FFFFFF" font-family="Segoe UI,Segoe UI_MSFontService,sans-serif" font-weight="400" font-size="24" transform="translate(173.615 503)">.NET Core <tspan x="17.28" y="28">&lt;= 1.x</tspan></text><path d="M461 433C461 419.745 471.745 409 485 409L629 409C642.255 409 653 419.745 653 433L653 529C653 542.255 642.255 553 629 553L485 553C471.745 553 461 542.255 461 529Z" fill="#D73B01" fill-rule="evenodd"/><text fill="#FFFFFF" font-family="Segoe UI,Segoe UI_MSFontService,sans-serif" font-weight="400" font-size="24" transform="translate(506.136 476)">.NET Core<tspan x="36.7" y="28">2.x</tspan></text><path d="M730 378C730 364.745 740.745 354 754 354L898 354C911.255 354 922 364.745 922 378L922 474C922 487.255 911.255 498 898 498L754 498C740.745 498 730 487.255 730 474Z" fill="#D73B01" fill-rule="evenodd"/><text fill="#FFFFFF" font-family="Segoe UI,Segoe UI_MSFontService,sans-serif" font-weight="400" font-size="24" transform="translate(775.332 420)">.NET Core<tspan x="36.7" y="28">3.x</tspan></text><path d="M1063 421.431 1063 260.569 1126.57 197 1207 197 1207 197 1207 485 1207 485 1126.57 485Z" fill="#107C10" fill-rule="evenodd"/><text fill="#FFFFFF" font-family="Segoe UI,Segoe UI_MSFontService,sans-serif" font-weight="400" font-size="32" transform="translate(1105.3 353)">.NET 5</text></g></svg>