<svg width="762" height="508" xmlns="http://www.w3.org/2000/svg" xmlns:xlink="http://www.w3.org/1999/xlink" overflow="hidden"><defs><clipPath id="clip0"><path d="M259 150 1021 150 1021 658 259 658Z" fill-rule="evenodd" clip-rule="evenodd"/></clipPath></defs><g clip-path="url(#clip0)" transform="translate(-259 -150)"><path d="M649 184C766.637 184 862 279.14 862 396.5 862 433.875 852.119 470.589 833.355 502.938L649 396.5Z" fill="#D73B01" fill-rule="evenodd"/><text fill="#FFFFFF" font-family="Segoe UI,Segoe UI_MSFontService,sans-serif" font-weight="400" font-size="43" transform="translate(666.095 352)">Restore</text><path d="M824.464 518.5C765.645 620.376 635.376 655.282 533.5 596.463 501.12 577.769 474.231 550.88 455.537 518.5L640 412Z" fill="#D73B01" fill-rule="evenodd"/><text fill="#FFFFFF" font-family="Segoe UI,Segoe UI_MSFontService,sans-serif" font-weight="400" font-size="43" transform="translate(595.335 545)">Build</text><path d="M446.645 502.937C387.723 401.36 422.496 271.361 524.312 212.578 556.737 193.857 593.537 184 631 184L631 396.5Z" fill="#D73B01" fill-rule="evenodd"/><text fill="#FFFFFF" font-family="Segoe UI,Segoe UI_MSFontService,sans-serif" font-weight="400" font-size="43" transform="translate(506.765 352)">Run</text><path d="M648.963 173.202C772.011 173.181 871.778 273.139 871.798 396.463 871.804 428.807 864.798 460.767 851.266 490.13L865.25 498.204 831.532 501.885 816.138 469.849 830.117 477.92C874.97 377.64 830.243 259.894 730.215 214.927 704.662 203.44 676.973 197.504 648.967 197.508Z" fill="#FFFFFF" fill-rule="evenodd"/><path d="M833.041 522.99C771.605 629.842 635.373 666.548 528.76 604.974 500.641 588.734 476.401 566.533 457.736 539.924L443.75 548.002 457.484 516.911 492.858 519.64 478.876 527.715C542.899 616.925 666.937 637.214 755.923 573.03 778.806 556.524 797.92 535.322 811.992 510.833Z" fill="#FFFFFF" fill-rule="evenodd"/><path d="M437.943 507.961C376.522 401.1 413.165 264.568 519.788 203.01 547.731 186.877 578.834 177.016 610.951 174.108L610.953 157.959 631.035 185.355 610.944 214.669 610.947 198.526C501.884 209.629 422.449 307.266 433.524 416.604 436.351 444.51 445.03 471.502 458.993 495.808Z" fill="#FFFFFF" fill-rule="evenodd"/></g></svg>