<svg width="1224" height="524" xmlns="http://www.w3.org/2000/svg" xmlns:xlink="http://www.w3.org/1999/xlink" overflow="hidden"><defs><clipPath id="clip0"><path d="M20 168 1244 168 1244 692 20 692Z" fill-rule="evenodd" clip-rule="evenodd"/></clipPath><linearGradient x1="91.1839" y1="194.984" x2="91.1839" y2="220.584" gradientUnits="userSpaceOnUse" spreadMethod="reflect" id="fill1"><stop offset="0" stop-color="#FFFFFF"/><stop offset="1" stop-color="#FFFFFF"/></linearGradient><linearGradient x1="91.1872" y1="246.184" x2="91.1872" y2="263.784" gradientUnits="userSpaceOnUse" spreadMethod="reflect" id="fill2"><stop offset="0" stop-color="#FFFFFF"/><stop offset="1" stop-color="#FFFFFF"/></linearGradient><linearGradient x1="91.1839" y1="263.784" x2="91.1839" y2="281.384" gradientUnits="userSpaceOnUse" spreadMethod="reflect" id="fill3"><stop offset="0" stop-color="#FFFFFF"/><stop offset="1" stop-color="#FFFFFF"/></linearGradient><linearGradient x1="91.1839" y1="263.784" x2="91.1839" y2="281.384" gradientUnits="userSpaceOnUse" spreadMethod="reflect" id="fill4"><stop offset="0" stop-color="#FFFFFF"/><stop offset="1" stop-color="#FFFFFF"/></linearGradient><linearGradient x1="91.1839" y1="281.384" x2="91.1839" y2="298.984" gradientUnits="userSpaceOnUse" spreadMethod="reflect" id="fill5"><stop offset="0" stop-color="#FFFFFF"/><stop offset="1" stop-color="#FFFFFF"/></linearGradient><linearGradient x1="91.1839" y1="281.384" x2="91.1839" y2="298.984" gradientUnits="userSpaceOnUse" spreadMethod="reflect" id="fill6"><stop offset="0" stop-color="#FFFFFF"/><stop offset="1" stop-color="#FFFFFF"/></linearGradient><linearGradient x1="228.755" y1="194.984" x2="228.755" y2="220.584" gradientUnits="userSpaceOnUse" spreadMethod="reflect" id="fill7"><stop offset="0" stop-color="#FFFFFF"/><stop offset="1" stop-color="#FFFFFF"/></linearGradient><linearGradient x1="228.751" y1="246.184" x2="228.751" y2="263.784" gradientUnits="userSpaceOnUse" spreadMethod="reflect" id="fill8"><stop offset="0" stop-color="#FFFFFF"/><stop offset="1" stop-color="#FFFFFF"/></linearGradient><linearGradient x1="366.319" y1="194.984" x2="366.319" y2="220.584" gradientUnits="userSpaceOnUse" spreadMethod="reflect" id="fill9"><stop offset="0" stop-color="#FFFFFF"/><stop offset="1" stop-color="#FFFFFF"/></linearGradient><linearGradient x1="366.322" y1="246.184" x2="366.322" y2="263.784" gradientUnits="userSpaceOnUse" spreadMethod="reflect" id="fill10"><stop offset="0" stop-color="#FFFFFF"/><stop offset="1" stop-color="#FFFFFF"/></linearGradient><linearGradient x1="503.886" y1="194.984" x2="503.886" y2="220.584" gradientUnits="userSpaceOnUse" spreadMethod="reflect" id="fill11"><stop offset="0" stop-color="#FFFFFF"/><stop offset="1" stop-color="#FFFFFF"/></linearGradient><linearGradient x1="503.886" y1="246.184" x2="503.886" y2="263.784" gradientUnits="userSpaceOnUse" spreadMethod="reflect" id="fill12"><stop offset="0" stop-color="#FFFFFF"/><stop offset="1" stop-color="#FFFFFF"/></linearGradient><linearGradient x1="641.454" y1="194.984" x2="641.454" y2="220.584" gradientUnits="userSpaceOnUse" spreadMethod="reflect" id="fill13"><stop offset="0" stop-color="#FFFFFF"/><stop offset="1" stop-color="#FFFFFF"/></linearGradient><linearGradient x1="641.454" y1="246.184" x2="641.454" y2="263.784" gradientUnits="userSpaceOnUse" spreadMethod="reflect" id="fill14"><stop offset="0" stop-color="#FFFFFF"/><stop offset="1" stop-color="#FFFFFF"/></linearGradient><linearGradient x1="779.025" y1="194.984" x2="779.025" y2="220.584" gradientUnits="userSpaceOnUse" spreadMethod="reflect" id="fill15"><stop offset="0" stop-color="#FFFFFF"/><stop offset="1" stop-color="#FFFFFF"/></linearGradient><linearGradient x1="779.021" y1="246.184" x2="779.021" y2="263.784" gradientUnits="userSpaceOnUse" spreadMethod="reflect" id="fill16"><stop offset="0" stop-color="#FFFFFF"/><stop offset="1" stop-color="#FFFFFF"/></linearGradient><linearGradient x1="779.021" y1="263.784" x2="779.021" y2="281.384" gradientUnits="userSpaceOnUse" spreadMethod="reflect" id="fill17"><stop offset="0" stop-color="#FFFFFF"/><stop offset="1" stop-color="#FFFFFF"/></linearGradient><linearGradient x1="779.021" y1="263.784" x2="779.021" y2="281.384" gradientUnits="userSpaceOnUse" spreadMethod="reflect" id="fill18"><stop offset="0" stop-color="#FFFFFF"/><stop offset="1" stop-color="#FFFFFF"/></linearGradient><linearGradient x1="916.586" y1="194.984" x2="916.586" y2="220.584" gradientUnits="userSpaceOnUse" spreadMethod="reflect" id="fill19"><stop offset="0" stop-color="#FFFFFF"/><stop offset="1" stop-color="#FFFFFF"/></linearGradient><linearGradient x1="916.589" y1="246.184" x2="916.589" y2="263.784" gradientUnits="userSpaceOnUse" spreadMethod="reflect" id="fill20"><stop offset="0" stop-color="#FFFFFF"/><stop offset="1" stop-color="#FFFFFF"/></linearGradient><linearGradient x1="916.589" y1="263.784" x2="916.589" y2="281.384" gradientUnits="userSpaceOnUse" spreadMethod="reflect" id="fill21"><stop offset="0" stop-color="#FFFFFF"/><stop offset="1" stop-color="#FFFFFF"/></linearGradient><linearGradient x1="916.589" y1="263.784" x2="916.589" y2="281.384" gradientUnits="userSpaceOnUse" spreadMethod="reflect" id="fill22"><stop offset="0" stop-color="#FFFFFF"/><stop offset="1" stop-color="#FFFFFF"/></linearGradient><linearGradient x1="916.589" y1="263.784" x2="916.589" y2="281.384" gradientUnits="userSpaceOnUse" spreadMethod="reflect" id="fill23"><stop offset="0" stop-color="#FFFFFF"/><stop offset="1" stop-color="#FFFFFF"/></linearGradient><linearGradient x1="503.886" y1="451.762" x2="503.886" y2="496.562" gradientUnits="userSpaceOnUse" spreadMethod="reflect" id="fill24"><stop offset="0" stop-color="#FFFFFF"/><stop offset="1" stop-color="#FFFFFF"/></linearGradient><linearGradient x1="503.886" y1="508.411" x2="503.886" y2="585.211" gradientUnits="userSpaceOnUse" spreadMethod="reflect" id="fill25"><stop offset="0" stop-color="#FFFFFF"/><stop offset="1" stop-color="#FFFFFF"/></linearGradient><linearGradient x1="503.886" y1="605.06" x2="503.886" y2="637.06" gradientUnits="userSpaceOnUse" spreadMethod="reflect" id="fill26"><stop offset="0" stop-color="#FFFFFF"/><stop offset="1" stop-color="#FFFFFF"/></linearGradient></defs><g clip-path="url(#clip0)" transform="translate(-20 -168)"><rect x="21" y="171" width="966" height="520" fill="#0C5D0C"/><rect x="24" y="176" width="134" height="269" fill="#0078D4"/><path d="M126.898 202.838 126.898 208.868 128.702 208.868C129.892 208.868 130.799 208.596 131.425 208.052 132.05 207.509 132.363 206.742 132.363 205.75 132.363 203.809 131.215 202.838 128.918 202.838ZM50.8976 202.838 50.8976 214.425 53.092 214.425C55.0197 214.425 56.5202 213.909 57.5934 212.877 58.6667 211.845 59.2033 210.382 59.2033 208.488 59.2033 204.722 57.2004 202.838 53.1945 202.838ZM115.225 202.592C113.68 202.592 112.425 203.149 111.462 204.264 110.498 205.378 110.016 206.841 110.016 208.652 110.016 210.464 110.486 211.922 111.426 213.026 112.366 214.13 113.591 214.682 115.102 214.682 116.715 214.682 117.986 214.155 118.916 213.102 119.846 212.05 120.311 210.577 120.311 208.683 120.311 206.742 119.86 205.241 118.957 204.182 118.055 203.122 116.811 202.592 115.225 202.592ZM125.175 201.28 129.215 201.28C130.787 201.28 132.006 201.663 132.871 202.428 133.735 203.194 134.168 204.274 134.168 205.668 134.168 207.063 133.687 208.205 132.727 209.093 131.767 209.982 130.469 210.426 128.836 210.426L126.898 210.426 126.898 215.984 125.175 215.984ZM97.6676 201.28 107.87 201.28 107.87 202.838 103.625 202.838 103.625 215.984 101.903 215.984 101.903 202.838 97.6676 202.838ZM86.175 201.28 87.8976 201.28 87.8976 208.191 87.9386 208.191C88.0343 208.04 88.1642 207.873 88.3283 207.688L93.8244 201.28 95.9675 201.28 89.6613 208.334 96.4084 215.984 94.009 215.984 88.3283 209.257C88.1164 209.004 87.9865 208.833 87.9386 208.745L87.8976 208.745 87.8976 215.984 86.175 215.984ZM64.175 201.28 71.6398 201.28 71.6398 202.838 65.8976 202.838 65.8976 207.729 71.2092 207.729 71.2092 209.278 65.8976 209.278 65.8976 214.425 71.9679 214.425 71.9679 215.984 64.175 215.984ZM49.175 201.28 53.2355 201.28C58.4172 201.28 61.008 203.669 61.008 208.447 61.008 210.717 60.2885 212.54 58.8495 213.918 57.4106 215.295 55.4846 215.984 53.0715 215.984L49.175 215.984ZM115.348 201.034C117.378 201.034 119.014 201.717 120.254 203.084 121.495 204.452 122.115 206.239 122.115 208.447 122.115 210.847 121.48 212.744 120.208 214.138 118.937 215.533 117.235 216.23 115.102 216.23 113.017 216.23 111.347 215.543 110.093 214.169 108.838 212.795 108.211 211.007 108.211 208.806 108.211 206.441 108.85 204.554 110.129 203.146 111.407 201.738 113.147 201.034 115.348 201.034ZM79.6149 201.034C81.0641 201.034 82.1203 201.208 82.7834 201.557L82.7834 203.495C81.9152 202.893 80.801 202.592 79.4406 202.592 79.0646 202.592 78.6886 202.632 78.3127 202.71 77.9367 202.789 77.6017 202.917 77.3078 203.095 77.0138 203.272 76.7746 203.501 76.59 203.782 76.4054 204.062 76.3132 204.404 76.3132 204.807 76.3132 205.183 76.3832 205.508 76.5234 205.781 76.6635 206.055 76.8703 206.304 77.1437 206.53 77.4172 206.755 77.7504 206.974 78.1435 207.186 78.5365 207.398 78.9894 207.63 79.5021 207.883 80.0285 208.143 80.5275 208.416 80.9992 208.704 81.4709 208.991 81.8844 209.309 82.2399 209.657 82.5954 210.006 82.8774 210.392 83.0859 210.816 83.2944 211.24 83.3986 211.725 83.3986 212.272 83.3986 212.997 83.2568 213.61 82.9731 214.112 82.6894 214.615 82.3066 215.023 81.8246 215.338 81.3427 215.652 80.7873 215.88 80.1584 216.02 79.5295 216.16 78.8664 216.23 78.1691 216.23 77.9367 216.23 77.6496 216.211 77.3078 216.174 76.966 216.136 76.6174 216.081 76.2619 216.009 75.9064 215.938 75.5698 215.849 75.2519 215.743 74.934 215.637 74.6794 215.519 74.488 215.389L74.488 213.359C74.7204 213.564 74.999 213.748 75.3237 213.913 75.6484 214.077 75.9902 214.215 76.349 214.328 76.7079 214.441 77.0685 214.528 77.4308 214.589 77.7931 214.651 78.1281 214.682 78.4357 214.682 79.4953 214.682 80.2865 214.485 80.8095 214.092 81.3324 213.699 81.5939 213.133 81.5939 212.395 81.5939 211.998 81.5068 211.653 81.3324 211.359 81.1581 211.065 80.9172 210.797 80.6095 210.554 80.3019 210.312 79.9379 210.079 79.5175 209.857 79.0971 209.635 78.6442 209.401 78.1589 209.155 77.6462 208.895 77.1677 208.632 76.7233 208.365 76.279 208.099 75.8928 207.805 75.5646 207.483 75.2365 207.162 74.9784 206.798 74.7905 206.391 74.6025 205.985 74.5085 205.508 74.5085 204.961 74.5085 204.291 74.6554 203.708 74.9494 203.213 75.2433 202.717 75.6296 202.309 76.1081 201.987 76.5866 201.666 77.1318 201.427 77.7436 201.269 78.3554 201.112 78.9792 201.034 79.6149 201.034Z" fill="url(#fill1)" fill-rule="evenodd"/><text fill="#000000" fill-opacity="0" font-family="Arial,Arial_MSFontService,sans-serif" font-size="15.1963" x="49.175" y="214.33">DESKTOP</text><path d="M93.2947 250.594 93.2947 254.901 94.5837 254.901C95.4333 254.901 96.0815 254.707 96.5283 254.319 96.9751 253.93 97.1985 253.382 97.1985 252.674 97.1985 251.288 96.3782 250.594 94.7375 250.594ZM100.064 249.481 105.396 249.481 105.396 250.594 101.295 250.594 101.295 254.227 105.089 254.227 105.089 255.333 101.295 255.333 101.295 259.984 100.064 259.984ZM92.0642 249.481 94.9499 249.481C96.073 249.481 96.9433 249.754 97.561 250.301 98.1787 250.848 98.4875 251.62 98.4875 252.616 98.4875 253.612 98.1445 254.427 97.4585 255.062 96.7724 255.697 95.8459 256.014 94.6789 256.014L93.2947 256.014 93.2947 259.984 92.0642 259.984ZM76.8777 249.481 78.2327 249.481 80.4665 257.538C80.5593 257.874 80.6179 258.226 80.6423 258.592L80.6789 258.592C80.7034 258.333 80.779 257.982 80.906 257.538L83.2278 249.481 84.407 249.481 86.6335 257.596C86.7117 257.874 86.7702 258.202 86.8093 258.578L86.8386 258.578C86.8581 258.324 86.9241 257.987 87.0364 257.567L89.1824 249.481 90.5154 249.481 87.5491 259.984 86.1062 259.984 83.9455 252.308C83.8528 251.981 83.7966 251.624 83.7771 251.239L83.7478 251.239C83.7185 251.6 83.655 251.952 83.5574 252.293L81.3821 259.984 79.9538 259.984Z" fill="url(#fill2)" fill-rule="evenodd"/><text fill="#000000" fill-opacity="0" font-family="Arial,Arial_MSFontService,sans-serif" font-size="10.5029" x="76.8777" y="258.671">WPF</text><path d="M77.8724 271.319C77.1009 271.319 76.4905 271.581 76.0413 272.106 75.5921 272.631 75.3675 273.355 75.3675 274.278 75.3675 275.166 75.5946 275.867 76.0487 276.38 76.5028 276.893 77.1107 277.149 77.8724 277.149 78.6488 277.149 79.2457 276.897 79.6632 276.394 80.0806 275.892 80.2894 275.176 80.2894 274.248 80.2894 273.311 80.0806 272.588 79.6632 272.081 79.2457 271.573 78.6488 271.319 77.8724 271.319ZM69.7259 271.319C68.9935 271.319 68.4173 271.587 67.9974 272.124 67.5775 272.662 67.3675 273.404 67.3675 274.351 67.3675 275.215 67.5689 275.898 67.9717 276.398 68.3746 276.899 68.9154 277.149 69.5941 277.149 70.263 277.149 70.8062 276.907 71.2237 276.424 71.6412 275.94 71.8499 275.33 71.8499 274.593L71.8499 273.487C71.8499 272.881 71.6497 272.369 71.2493 271.949 70.849 271.529 70.3411 271.319 69.7259 271.319ZM82.6097 270.484 83.8695 270.484 85.4222 276.123C85.471 276.294 85.5052 276.519 85.5247 276.797L85.5833 276.797C85.598 276.582 85.6419 276.353 85.7152 276.109L87.4437 270.484 88.5423 270.484 90.095 276.138C90.1439 276.319 90.1805 276.543 90.2049 276.812L90.2635 276.812C90.2733 276.622 90.3148 276.397 90.388 276.138L91.9115 270.484 93.098 270.484 90.8494 277.984 89.6043 277.984 88.0589 272.615C88.0003 272.41 87.9613 272.178 87.9417 271.919L87.9124 271.919C87.8978 272.095 87.8465 272.322 87.7586 272.601L86.0814 277.984 84.8802 277.984ZM54.6497 270.484 55.8509 270.484 55.8509 277.984 54.6497 277.984ZM97.0814 270.308C97.7308 270.308 98.3118 270.42 98.8245 270.645L98.8245 271.861C98.2728 271.499 97.638 271.319 96.9202 271.319 96.6956 271.319 96.493 271.344 96.3123 271.396 96.1317 271.447 95.9766 271.519 95.8472 271.612 95.7178 271.705 95.6178 271.816 95.547 271.945 95.4762 272.074 95.4408 272.217 95.4408 272.373 95.4408 272.569 95.4762 272.732 95.547 272.864 95.6178 272.996 95.7215 273.113 95.8582 273.216 95.9949 273.318 96.161 273.411 96.3563 273.494 96.5516 273.577 96.7737 273.667 97.0228 273.765 97.3548 273.892 97.6527 274.023 97.9163 274.157 98.18 274.291 98.4046 274.443 98.5902 274.611 98.7757 274.779 98.9185 274.974 99.0186 275.193 99.1187 275.413 99.1688 275.674 99.1688 275.977 99.1688 276.348 99.087 276.67 98.9234 276.944 98.7598 277.217 98.5413 277.444 98.2679 277.625 97.9944 277.806 97.6795 277.94 97.3231 278.028 96.9666 278.116 96.5931 278.16 96.2025 278.16 95.431 278.16 94.762 278.011 94.1956 277.713L94.1956 276.424C94.8499 276.907 95.5701 277.149 96.3563 277.149 97.411 277.149 97.9383 276.797 97.9383 276.094 97.9383 275.894 97.8931 275.724 97.8028 275.585 97.7125 275.446 97.5904 275.323 97.4366 275.215 97.2828 275.108 97.1021 275.011 96.8946 274.926 96.6871 274.841 96.4637 274.751 96.2244 274.659 95.8924 274.527 95.6006 274.394 95.3492 274.259 95.0977 274.125 94.8878 273.974 94.7193 273.805 94.5509 273.637 94.4239 273.445 94.3385 273.23 94.253 273.016 94.2103 272.764 94.2103 272.476 94.2103 272.124 94.2908 271.813 94.452 271.542 94.6131 271.271 94.828 271.044 95.0965 270.861 95.3651 270.678 95.6714 270.54 96.0157 270.447 96.3599 270.354 96.7152 270.308 97.0814 270.308ZM77.9603 270.308C79.0784 270.308 79.9512 270.652 80.5787 271.341 81.2061 272.029 81.5199 272.984 81.5199 274.205 81.5199 275.401 81.1817 276.359 80.5054 277.079 79.8292 277.799 78.9222 278.16 77.7845 278.16 76.6761 278.16 75.7911 277.809 75.1295 277.109 74.4678 276.408 74.137 275.479 74.137 274.322 74.137 273.062 74.4813 272.078 75.1698 271.37 75.8582 270.662 76.7884 270.308 77.9603 270.308ZM61.3411 270.308C62.1615 270.308 62.7889 270.573 63.2235 271.103 63.658 271.633 63.8753 272.398 63.8753 273.399L63.8753 277.984 62.6741 277.984 62.6741 273.706C62.6741 272.115 62.0931 271.319 60.931 271.319 60.3304 271.319 59.8336 271.545 59.4405 271.996 59.0474 272.448 58.8509 273.018 58.8509 273.706L58.8509 277.984 57.6497 277.984 57.6497 270.484 58.8509 270.484 58.8509 271.729 58.8802 271.729C59.4466 270.782 60.2669 270.308 61.3411 270.308ZM39.6243 267.481 40.9793 267.481 43.2132 275.538C43.306 275.874 43.3646 276.226 43.389 276.592L43.4256 276.592C43.45 276.333 43.5257 275.982 43.6527 275.538L45.9744 267.481 47.1536 267.481 49.3802 275.596C49.4583 275.874 49.5169 276.202 49.556 276.578L49.5853 276.578C49.6048 276.324 49.6707 275.987 49.783 275.567L51.929 267.481 53.262 267.481 50.2957 277.984 48.8529 277.984 46.6922 270.308C46.5994 269.981 46.5433 269.624 46.5238 269.239L46.4945 269.239C46.4652 269.6 46.4017 269.952 46.304 270.293L44.1287 277.984 42.7005 277.984ZM55.265 267.019C55.4847 267.019 55.6715 267.094 55.8253 267.243 55.9791 267.392 56.056 267.579 56.056 267.803 56.056 268.018 55.9791 268.201 55.8253 268.352 55.6715 268.504 55.4847 268.58 55.265 268.58 55.0501 268.58 54.867 268.506 54.7156 268.36 54.5643 268.213 54.4886 268.028 54.4886 267.803 54.4886 267.579 54.5643 267.392 54.7156 267.243 54.867 267.094 55.0501 267.019 55.265 267.019ZM71.8499 266.88 73.0511 266.88 73.0511 277.984 71.8499 277.984 71.8499 276.709 71.8206 276.709C71.264 277.676 70.4046 278.16 69.2425 278.16 68.3001 278.16 67.547 277.824 66.983 277.153 66.419 276.481 66.137 275.567 66.137 274.41 66.137 273.169 66.4495 272.176 67.0745 271.429 67.6995 270.682 68.5321 270.308 69.5721 270.308 70.6024 270.308 71.3519 270.713 71.8206 271.524L71.8499 271.524Z" fill="url(#fill3)" fill-rule="evenodd"/><text fill="#000000" fill-opacity="0" font-family="Arial,Arial_MSFontService,sans-serif" font-size="11.2793" x="39.6243" y="276.75">Windows</text><path d="M114.539 271.319C113.768 271.319 113.157 271.581 112.708 272.106 112.259 272.631 112.034 273.355 112.034 274.278 112.034 275.166 112.261 275.867 112.715 276.38 113.169 276.893 113.777 277.149 114.539 277.149 115.315 277.149 115.912 276.897 116.33 276.394 116.747 275.892 116.956 275.176 116.956 274.248 116.956 273.311 116.747 272.588 116.33 272.081 115.912 271.573 115.315 271.319 114.539 271.319ZM123.51 270.352C123.822 270.352 124.062 270.386 124.228 270.455L124.228 271.7C124.018 271.539 123.715 271.458 123.319 271.458 122.807 271.458 122.378 271.7 122.034 272.183 121.69 272.666 121.518 273.326 121.518 274.161L121.518 277.984 120.316 277.984 120.316 270.484 121.518 270.484 121.518 272.029 121.547 272.029C121.718 271.502 121.979 271.091 122.331 270.795 122.682 270.5 123.075 270.352 123.51 270.352ZM140.748 270.308C141.397 270.308 141.979 270.42 142.491 270.645L142.491 271.861C141.939 271.499 141.305 271.319 140.587 271.319 140.362 271.319 140.16 271.344 139.979 271.396 139.798 271.447 139.643 271.519 139.514 271.612 139.385 271.705 139.284 271.816 139.214 271.945 139.143 272.074 139.107 272.217 139.107 272.373 139.107 272.569 139.143 272.732 139.214 272.864 139.284 272.996 139.388 273.113 139.525 273.216 139.662 273.318 139.828 273.411 140.023 273.494 140.218 273.577 140.44 273.667 140.689 273.765 141.021 273.892 141.319 274.023 141.583 274.157 141.847 274.291 142.071 274.443 142.257 274.611 142.442 274.779 142.585 274.974 142.685 275.193 142.785 275.413 142.835 275.674 142.835 275.977 142.835 276.348 142.754 276.67 142.59 276.944 142.426 277.217 142.208 277.444 141.935 277.625 141.661 277.806 141.346 277.94 140.99 278.028 140.633 278.116 140.26 278.16 139.869 278.16 139.098 278.16 138.429 278.011 137.862 277.713L137.862 276.424C138.517 276.907 139.237 277.149 140.023 277.149 141.078 277.149 141.605 276.797 141.605 276.094 141.605 275.894 141.56 275.724 141.469 275.585 141.379 275.446 141.257 275.323 141.103 275.215 140.949 275.108 140.769 275.011 140.561 274.926 140.354 274.841 140.13 274.751 139.891 274.659 139.559 274.527 139.267 274.394 139.016 274.259 138.764 274.125 138.554 273.974 138.386 273.805 138.218 273.637 138.091 273.445 138.005 273.23 137.92 273.016 137.877 272.764 137.877 272.476 137.877 272.124 137.958 271.813 138.119 271.542 138.28 271.271 138.495 271.044 138.763 270.861 139.032 270.678 139.338 270.54 139.682 270.447 140.027 270.354 140.382 270.308 140.748 270.308ZM128.876 270.308C129.389 270.308 129.835 270.451 130.216 270.737 130.597 271.022 130.858 271.397 131 271.861 131.557 270.826 132.387 270.308 133.49 270.308 135.141 270.308 135.966 271.326 135.966 273.362L135.966 277.984 134.765 277.984 134.765 273.677C134.765 272.847 134.636 272.247 134.38 271.875 134.124 271.504 133.693 271.319 133.087 271.319 132.575 271.319 132.139 271.553 131.78 272.022 131.421 272.491 131.242 273.052 131.242 273.706L131.242 277.984 130.041 277.984 130.041 273.531C130.041 272.056 129.472 271.319 128.334 271.319 127.807 271.319 127.372 271.54 127.03 271.982 126.688 272.424 126.518 272.998 126.518 273.706L126.518 277.984 125.316 277.984 125.316 270.484 126.518 270.484 126.518 271.67 126.547 271.67C127.079 270.762 127.855 270.308 128.876 270.308ZM114.627 270.308C115.745 270.308 116.618 270.652 117.245 271.341 117.873 272.029 118.187 272.984 118.187 274.205 118.187 275.401 117.848 276.359 117.172 277.079 116.496 277.799 115.589 278.16 114.451 278.16 113.343 278.16 112.458 277.809 111.796 277.109 111.135 276.408 110.804 275.479 110.804 274.322 110.804 273.062 111.148 272.078 111.836 271.37 112.525 270.662 113.455 270.308 114.627 270.308ZM104.478 267.481 109.81 267.481 109.81 268.594 105.708 268.594 105.708 272.227 109.502 272.227 109.502 273.333 105.708 273.333 105.708 277.984 104.478 277.984Z" fill="url(#fill4)" fill-rule="evenodd"/><text fill="#000000" fill-opacity="0" font-family="Arial,Arial_MSFontService,sans-serif" font-size="10.6787" x="104.478" y="276.825">Forms</text><path d="M85.4577 285.481 86.8127 285.481 89.0465 293.538C89.1393 293.874 89.1979 294.226 89.2223 294.592L89.2589 294.592C89.2834 294.333 89.359 293.982 89.486 293.538L91.8078 285.481 92.987 285.481 95.2135 293.596C95.2917 293.874 95.3503 294.202 95.3893 294.578L95.4186 294.578C95.4381 294.324 95.5041 293.987 95.6164 293.567L97.7624 285.481 99.0954 285.481 96.1291 295.984 94.6862 295.984 92.5255 288.308C92.4328 287.981 92.3766 287.624 92.3571 287.239L92.3278 287.239C92.2985 287.6 92.235 287.952 92.1374 288.293L89.9621 295.984 88.5338 295.984ZM76.5124 285.481 77.7428 285.481 77.7428 291.824C77.7428 293.977 78.651 295.054 80.4674 295.054 82.2204 295.054 83.0968 294.014 83.0968 291.934L83.0968 285.481 84.3273 285.481 84.3273 291.736C84.3273 294.685 82.9967 296.16 80.3356 296.16 77.7868 296.16 76.5124 294.741 76.5124 291.904Z" fill="url(#fill5)" fill-rule="evenodd"/><text fill="#000000" fill-opacity="0" font-family="Arial,Arial_MSFontService,sans-serif" font-size="10.6787" x="76.5124" y="294.825">UW</text><path d="M101.541 286.594 101.541 290.901 102.83 290.901C103.68 290.901 104.328 290.707 104.775 290.319 105.222 289.93 105.445 289.382 105.445 288.674 105.445 287.288 104.625 286.594 102.984 286.594ZM100.311 285.481 103.197 285.481C104.32 285.481 105.19 285.754 105.808 286.301 106.425 286.848 106.734 287.62 106.734 288.616 106.734 289.612 106.391 290.427 105.705 291.062 105.019 291.697 104.093 292.014 102.926 292.014L101.541 292.014 101.541 295.984 100.311 295.984Z" fill="url(#fill6)" fill-rule="evenodd"/><text fill="#000000" fill-opacity="0" font-family="Arial,Arial_MSFontService,sans-serif" font-size="10.5029" x="100.311" y="294.671">P</text><rect x="162" y="176" width="134" height="269" fill="#0078D4"/><path d="M241.905 209.134 241.905 214.425 244.243 214.425C245.255 214.425 246.039 214.186 246.596 213.707 247.153 213.229 247.432 212.573 247.432 211.739 247.432 210.002 246.249 209.134 243.884 209.134ZM241.905 202.838 241.905 207.586 243.669 207.586C244.612 207.586 245.354 207.359 245.894 206.904 246.434 206.449 246.704 205.809 246.704 204.981 246.704 203.553 245.764 202.838 243.884 202.838ZM240.182 201.28 244.366 201.28C245.638 201.28 246.646 201.591 247.391 202.213 248.136 202.835 248.509 203.645 248.509 204.643 248.509 205.477 248.283 206.202 247.832 206.817 247.381 207.432 246.759 207.87 245.966 208.129L245.966 208.17C246.957 208.287 247.75 208.661 248.345 209.293 248.939 209.925 249.237 210.747 249.237 211.759 249.237 213.017 248.785 214.036 247.883 214.815 246.981 215.594 245.843 215.984 244.469 215.984L240.182 215.984ZM229.182 201.28 236.647 201.28 236.647 202.838 230.905 202.838 230.905 207.729 236.217 207.729 236.217 209.278 230.905 209.278 230.905 214.425 236.975 214.425 236.975 215.984 229.182 215.984ZM207.521 201.28 209.418 201.28 212.546 212.559C212.676 213.031 212.758 213.523 212.792 214.036L212.843 214.036C212.877 213.673 212.983 213.181 213.161 212.559L216.411 201.28 218.062 201.28 221.18 212.641C221.289 213.031 221.371 213.489 221.426 214.015L221.467 214.015C221.494 213.66 221.586 213.188 221.743 212.6L224.748 201.28 226.614 201.28 222.461 215.984 220.441 215.984 217.416 205.238C217.286 204.78 217.208 204.281 217.18 203.741L217.139 203.741C217.098 204.247 217.01 204.739 216.873 205.217L213.827 215.984 211.828 215.984Z" fill="url(#fill7)" fill-rule="evenodd"/><text fill="#000000" fill-opacity="0" font-family="Arial,Arial_MSFontService,sans-serif" font-size="14.7041" x="207.521" y="214.146">WEB</text><path d="M228.968 258.497C229.197 258.497 229.393 258.579 229.554 258.742 229.715 258.906 229.796 259.1 229.796 259.325 229.796 259.549 229.715 259.742 229.554 259.903 229.393 260.064 229.197 260.145 228.968 260.145 228.743 260.145 228.552 260.064 228.393 259.903 228.234 259.742 228.155 259.549 228.155 259.325 228.155 259.1 228.234 258.906 228.393 258.742 228.552 258.579 228.743 258.497 228.968 258.497ZM206.125 250.755C206.076 251.053 206.02 251.288 205.956 251.458L204.323 255.934 207.963 255.934 206.315 251.458C206.261 251.312 206.208 251.078 206.154 250.755ZM220.942 250.594 220.942 254.901 222.231 254.901C223.081 254.901 223.729 254.707 224.176 254.319 224.623 253.93 224.846 253.382 224.846 252.674 224.846 251.288 224.026 250.594 222.385 250.594ZM248.635 249.481 255.923 249.481 255.923 250.594 252.89 250.594 252.89 259.984 251.66 259.984 251.66 250.594 248.635 250.594ZM242.712 249.481 248.044 249.481 248.044 250.594 243.942 250.594 243.942 254.088 247.736 254.088 247.736 255.194 243.942 255.194 243.942 258.871 248.278 258.871 248.278 259.984 242.712 259.984ZM231.712 249.481 233.308 249.481 238.567 257.721C238.787 258.062 238.928 258.297 238.992 258.424L239.021 258.424C238.972 258.121 238.948 257.606 238.948 256.878L238.948 249.481 240.178 249.481 240.178 259.984 238.67 259.984 233.264 251.612C233.128 251.402 233.015 251.183 232.927 250.953L232.884 250.953C232.923 251.178 232.942 251.659 232.942 252.396L232.942 259.984 231.712 259.984ZM219.712 249.481 222.597 249.481C223.72 249.481 224.591 249.754 225.208 250.301 225.826 250.848 226.135 251.62 226.135 252.616 226.135 253.612 225.792 254.427 225.106 255.062 224.42 255.697 223.493 256.014 222.326 256.014L220.942 256.014 220.942 259.984 219.712 259.984ZM205.524 249.481 206.799 249.481 210.842 259.984 209.479 259.984 208.366 257.039 203.913 257.039 202.865 259.984 201.496 259.984ZM215.883 249.305C216.918 249.305 217.673 249.43 218.146 249.679L218.146 251.063C217.526 250.633 216.73 250.418 215.759 250.418 215.49 250.418 215.221 250.446 214.953 250.503 214.684 250.559 214.445 250.65 214.235 250.777 214.025 250.904 213.854 251.068 213.722 251.268 213.591 251.468 213.525 251.712 213.525 252 213.525 252.269 213.575 252.501 213.675 252.696 213.775 252.892 213.923 253.07 214.118 253.231 214.313 253.392 214.551 253.548 214.832 253.7 215.113 253.851 215.436 254.017 215.802 254.198 216.178 254.383 216.535 254.579 216.872 254.784 217.209 254.989 217.504 255.216 217.758 255.465 218.012 255.714 218.213 255.99 218.362 256.292 218.511 256.595 218.586 256.942 218.586 257.332 218.586 257.85 218.484 258.288 218.282 258.647 218.079 259.006 217.806 259.298 217.461 259.522 217.117 259.747 216.72 259.909 216.271 260.009 215.822 260.11 215.348 260.16 214.85 260.16 214.684 260.16 214.479 260.146 214.235 260.119 213.991 260.092 213.742 260.053 213.488 260.002 213.234 259.951 212.994 259.887 212.767 259.812 212.54 259.736 212.358 259.652 212.221 259.559L212.221 258.109C212.387 258.255 212.586 258.387 212.818 258.504 213.05 258.622 213.294 258.72 213.55 258.801 213.807 258.882 214.064 258.944 214.323 258.988 214.582 259.032 214.821 259.054 215.041 259.054 215.798 259.054 216.363 258.913 216.736 258.633 217.11 258.352 217.297 257.948 217.297 257.42 217.297 257.137 217.234 256.891 217.11 256.681 216.985 256.471 216.813 256.279 216.593 256.106 216.374 255.932 216.114 255.766 215.813 255.608 215.513 255.449 215.19 255.282 214.843 255.106 214.477 254.92 214.135 254.732 213.818 254.542 213.5 254.352 213.224 254.142 212.99 253.912 212.756 253.683 212.571 253.423 212.437 253.132 212.303 252.841 212.236 252.501 212.236 252.11 212.236 251.632 212.341 251.216 212.551 250.862 212.76 250.508 213.036 250.216 213.378 249.986 213.72 249.757 214.109 249.586 214.546 249.474 214.983 249.361 215.429 249.305 215.883 249.305Z" fill="url(#fill8)" fill-rule="evenodd"/><text fill="#000000" fill-opacity="0" font-family="Arial,Arial_MSFontService,sans-serif" font-size="10.8545" x="201.496" y="258.803">ASP.NET</text><rect x="299" y="176" width="135" height="269" fill="#0078D4"/><path d="M388.833 202.838 388.833 214.425 391.027 214.425C392.955 214.425 394.455 213.909 395.528 212.877 396.602 211.845 397.138 210.382 397.138 208.488 397.138 204.722 395.135 202.838 391.129 202.838ZM362.16 202.592C360.615 202.592 359.36 203.149 358.396 204.264 357.433 205.378 356.951 206.841 356.951 208.652 356.951 210.464 357.421 211.922 358.361 213.026 359.301 214.13 360.526 214.682 362.037 214.682 363.65 214.682 364.921 214.155 365.851 213.102 366.781 212.05 367.246 210.577 367.246 208.683 367.246 206.742 366.794 205.241 365.892 204.182 364.99 203.122 363.746 202.592 362.16 202.592ZM387.11 201.28 391.17 201.28C396.352 201.28 398.943 203.669 398.943 208.447 398.943 210.717 398.223 212.54 396.784 213.918 395.345 215.295 393.419 215.984 391.006 215.984L387.11 215.984ZM372.925 201.28 374.648 201.28 374.648 210.16C374.648 213.174 375.919 214.682 378.462 214.682 380.917 214.682 382.144 213.226 382.144 210.313L382.144 201.28 383.866 201.28 383.866 210.037C383.866 214.165 382.003 216.23 378.278 216.23 374.709 216.23 372.925 214.244 372.925 210.272ZM347.11 201.28 348.833 201.28 348.833 214.425 354.739 214.425 354.739 215.984 347.11 215.984ZM362.283 201.034C364.313 201.034 365.948 201.717 367.189 203.084 368.43 204.452 369.05 206.239 369.05 208.447 369.05 210.847 368.415 212.744 367.143 214.138 365.872 215.533 364.169 216.23 362.037 216.23 359.952 216.23 358.282 215.543 357.028 214.169 355.773 212.795 355.146 211.007 355.146 208.806 355.146 206.441 355.785 204.554 357.063 203.146 358.342 201.738 360.082 201.034 362.283 201.034ZM340.652 201.034C342.046 201.034 343.202 201.235 344.118 201.639L344.118 203.474C343.065 202.886 341.903 202.592 340.631 202.592 338.943 202.592 337.574 203.156 336.525 204.284 335.475 205.412 334.951 206.919 334.951 208.806 334.951 210.597 335.441 212.024 336.422 213.087 337.403 214.15 338.69 214.682 340.283 214.682 341.759 214.682 343.038 214.353 344.118 213.697L344.118 215.369C343.031 215.943 341.677 216.23 340.057 216.23 337.965 216.23 336.291 215.557 335.033 214.21 333.775 212.863 333.146 211.096 333.146 208.909 333.146 206.557 333.854 204.657 335.269 203.207 336.684 201.758 338.478 201.034 340.652 201.034Z" fill="url(#fill9)" fill-rule="evenodd"/><text fill="#000000" fill-opacity="0" font-family="Arial,Arial_MSFontService,sans-serif" font-size="15.1963" x="333.146" y="214.33">CLOUD</text><path d="M381.794 253.319C381.227 253.319 380.746 253.521 380.351 253.927 379.955 254.332 379.711 254.862 379.618 255.516L383.669 255.516C383.664 254.823 383.497 254.283 383.167 253.897 382.837 253.512 382.38 253.319 381.794 253.319ZM364.71 252.484 365.904 252.484 365.904 256.776C365.904 258.358 366.509 259.149 367.72 259.149 368.306 259.149 368.789 258.933 369.167 258.501 369.545 258.069 369.735 257.503 369.735 256.805L369.735 252.484 370.936 252.484 370.936 259.984 369.735 259.984 369.735 258.797 369.705 258.797C369.207 259.706 368.436 260.16 367.391 260.16 365.604 260.16 364.71 259.095 364.71 256.966ZM358.315 252.484 364.101 252.484 364.101 252.828 359.662 258.958 364.057 258.958 364.057 259.984 357.897 259.984 357.897 259.61 362.336 253.509 358.315 253.509ZM377.065 252.352C377.377 252.352 377.616 252.386 377.782 252.455L377.782 253.7C377.572 253.539 377.27 253.458 376.874 253.458 376.362 253.458 375.933 253.7 375.589 254.183 375.245 254.666 375.072 255.326 375.072 256.161L375.072 259.984 373.871 259.984 373.871 252.484 375.072 252.484 375.072 254.029 375.102 254.029C375.273 253.502 375.534 253.091 375.885 252.795 376.237 252.5 376.63 252.352 377.065 252.352ZM381.816 252.308C382.797 252.308 383.556 252.625 384.093 253.26 384.631 253.895 384.899 254.776 384.899 255.904L384.899 256.534 379.604 256.534C379.623 257.369 379.848 258.014 380.278 258.468 380.707 258.922 381.298 259.149 382.05 259.149 382.895 259.149 383.671 258.871 384.379 258.314L384.379 259.442C383.72 259.92 382.848 260.16 381.764 260.16 380.705 260.16 379.872 259.819 379.267 259.138 378.661 258.457 378.359 257.498 378.359 256.263 378.359 255.096 378.689 254.145 379.351 253.41 380.013 252.675 380.834 252.308 381.816 252.308ZM352.446 250.755C352.397 251.053 352.341 251.288 352.277 251.458L350.644 255.934 354.284 255.934 352.636 251.458C352.582 251.312 352.529 251.078 352.475 250.755ZM351.845 249.481 353.119 249.481 357.162 259.984 355.8 259.984 354.687 257.039 350.234 257.039 349.186 259.984 347.817 259.984Z" fill="url(#fill10)" fill-rule="evenodd"/><text fill="#000000" fill-opacity="0" font-family="Arial,Arial_MSFontService,sans-serif" font-size="10.6787" x="347.817" y="258.825">Azure</text><rect x="437" y="176" width="134" height="269" fill="#0078D4"/><path d="M505.537 209.134 505.537 214.425 507.875 214.425C508.886 214.425 509.671 214.186 510.228 213.707 510.785 213.229 511.064 212.573 511.064 211.739 511.064 210.002 509.881 209.134 507.516 209.134ZM505.537 202.838 505.537 207.586 507.3 207.586C508.244 207.586 508.985 207.359 509.525 206.904 510.065 206.449 510.335 205.809 510.335 204.981 510.335 203.553 509.396 202.838 507.516 202.838ZM493.864 202.592C492.319 202.592 491.064 203.149 490.101 204.264 489.137 205.378 488.655 206.841 488.655 208.652 488.655 210.464 489.125 211.922 490.065 213.026 491.005 214.13 492.23 214.682 493.741 214.682 495.354 214.682 496.626 214.155 497.555 213.102 498.485 212.05 498.95 210.577 498.95 208.683 498.95 206.742 498.499 205.241 497.596 204.182 496.694 203.122 495.45 202.592 493.864 202.592ZM531.814 201.28 539.279 201.28 539.279 202.838 533.537 202.838 533.537 207.729 538.848 207.729 538.848 209.278 533.537 209.278 533.537 214.425 539.607 214.425 539.607 215.984 531.814 215.984ZM521.814 201.28 523.537 201.28 523.537 214.425 529.443 214.425 529.443 215.984 521.814 215.984ZM516.814 201.28 518.537 201.28 518.537 215.984 516.814 215.984ZM503.814 201.28 507.998 201.28C509.269 201.28 510.277 201.591 511.022 202.213 511.768 202.835 512.14 203.645 512.14 204.643 512.14 205.477 511.915 206.202 511.463 206.817 511.012 207.432 510.39 207.87 509.597 208.129L509.597 208.17C510.588 208.287 511.381 208.661 511.976 209.293 512.571 209.925 512.868 210.747 512.868 211.759 512.868 213.017 512.417 214.036 511.515 214.815 510.612 215.594 509.474 215.984 508.1 215.984L503.814 215.984ZM468.814 201.28 471.09 201.28 475.602 211.534C475.951 212.32 476.176 212.908 476.279 213.297L476.34 213.297C476.634 212.491 476.87 211.889 477.048 211.493L481.652 201.28 483.805 201.28 483.805 215.984 482.093 215.984 482.093 206.12C482.093 205.34 482.141 204.387 482.236 203.259L482.195 203.259C482.031 203.922 481.884 204.397 481.754 204.684L476.73 215.984 475.889 215.984 470.875 204.766C470.731 204.438 470.585 203.935 470.434 203.259L470.393 203.259C470.448 203.847 470.475 204.807 470.475 206.14L470.475 215.984 468.814 215.984ZM493.987 201.034C496.017 201.034 497.653 201.717 498.893 203.084 500.134 204.452 500.754 206.239 500.754 208.447 500.754 210.847 500.119 212.744 498.847 214.138 497.576 215.533 495.874 216.23 493.741 216.23 491.656 216.23 489.986 215.543 488.732 214.169 487.477 212.795 486.85 211.007 486.85 208.806 486.85 206.441 487.489 204.554 488.768 203.146 490.046 201.738 491.786 201.034 493.987 201.034Z" fill="url(#fill11)" fill-rule="evenodd"/><text fill="#000000" fill-opacity="0" font-family="Arial,Arial_MSFontService,sans-serif" font-size="15.1963" x="468.814" y="214.33">MOBILE</text><path d="M511.603 256.19 509.794 256.439C509.237 256.517 508.817 256.655 508.534 256.853 508.251 257.05 508.109 257.401 508.109 257.904 508.109 258.27 508.24 258.569 508.501 258.801 508.762 259.033 509.11 259.149 509.545 259.149 510.141 259.149 510.632 258.94 511.021 258.523 511.409 258.105 511.603 257.577 511.603 256.937ZM491.603 256.19 489.794 256.439C489.237 256.517 488.817 256.655 488.534 256.853 488.251 257.05 488.109 257.401 488.109 257.904 488.109 258.27 488.24 258.569 488.501 258.801 488.762 259.033 489.11 259.149 489.545 259.149 490.141 259.149 490.632 258.94 491.021 258.523 491.409 258.105 491.603 257.577 491.603 256.937ZM520.435 252.484 521.637 252.484 521.637 259.984 520.435 259.984ZM517.629 252.352C517.941 252.352 518.181 252.386 518.347 252.455L518.347 253.7C518.137 253.539 517.834 253.458 517.438 253.458 516.926 253.458 516.497 253.7 516.153 254.183 515.809 254.666 515.637 255.326 515.637 256.161L515.637 259.984 514.435 259.984 514.435 252.484 515.637 252.484 515.637 254.029 515.666 254.029C515.837 253.502 516.098 253.091 516.45 252.795 516.801 252.5 517.194 252.352 517.629 252.352ZM527.127 252.308C527.947 252.308 528.575 252.573 529.009 253.103 529.444 253.633 529.661 254.398 529.661 255.399L529.661 259.984 528.46 259.984 528.46 255.706C528.46 254.115 527.879 253.319 526.717 253.319 526.116 253.319 525.619 253.545 525.226 253.996 524.833 254.448 524.637 255.018 524.637 255.706L524.637 259.984 523.435 259.984 523.435 252.484 524.637 252.484 524.637 253.729 524.666 253.729C525.232 252.782 526.053 252.308 527.127 252.308ZM510.16 252.308C511.923 252.308 512.804 253.241 512.804 255.106L512.804 259.984 511.603 259.984 511.603 258.812 511.574 258.812C511.051 259.71 510.282 260.16 509.266 260.16 508.519 260.16 507.935 259.962 507.512 259.566 507.09 259.171 506.879 258.646 506.879 257.992 506.879 256.59 507.704 255.775 509.354 255.545L511.603 255.23C511.603 253.956 511.088 253.319 510.057 253.319 509.154 253.319 508.339 253.626 507.611 254.242L507.611 253.011C508.349 252.542 509.198 252.308 510.16 252.308ZM497.995 252.308C498.508 252.308 498.954 252.451 499.335 252.737 499.716 253.022 499.977 253.397 500.119 253.861 500.676 252.826 501.506 252.308 502.609 252.308 504.26 252.308 505.085 253.326 505.085 255.362L505.085 259.984 503.884 259.984 503.884 255.677C503.884 254.847 503.755 254.247 503.499 253.875 503.243 253.504 502.812 253.319 502.206 253.319 501.694 253.319 501.258 253.553 500.899 254.022 500.54 254.491 500.361 255.052 500.361 255.706L500.361 259.984 499.16 259.984 499.16 255.531C499.16 254.056 498.591 253.319 497.453 253.319 496.926 253.319 496.491 253.54 496.149 253.982 495.807 254.424 495.637 254.998 495.637 255.706L495.637 259.984 494.435 259.984 494.435 252.484 495.637 252.484 495.637 253.67 495.666 253.67C496.198 252.762 496.974 252.308 497.995 252.308ZM490.16 252.308C491.923 252.308 492.804 253.241 492.804 255.106L492.804 259.984 491.603 259.984 491.603 258.812 491.574 258.812C491.051 259.71 490.282 260.16 489.266 260.16 488.519 260.16 487.935 259.962 487.512 259.566 487.09 259.171 486.879 258.646 486.879 257.992 486.879 256.59 487.704 255.775 489.354 255.545L491.603 255.23C491.603 253.956 491.088 253.319 490.057 253.319 489.154 253.319 488.339 253.626 487.611 254.242L487.611 253.011C488.349 252.542 489.198 252.308 490.16 252.308ZM477.688 249.481 479.197 249.481 481.343 253.172C481.485 253.416 481.609 253.661 481.717 253.905L481.746 253.905C481.902 253.582 482.039 253.329 482.156 253.143L484.39 249.481 485.804 249.481 482.5 254.688 485.848 259.984 484.346 259.984 481.929 255.963C481.856 255.841 481.775 255.667 481.687 255.443L481.658 255.443C481.609 255.555 481.526 255.728 481.409 255.963L478.919 259.984 477.41 259.984 480.926 254.703ZM521.051 249.019C521.27 249.019 521.457 249.094 521.611 249.243 521.765 249.392 521.842 249.579 521.842 249.803 521.842 250.018 521.765 250.201 521.611 250.352 521.457 250.504 521.27 250.58 521.051 250.58 520.836 250.58 520.653 250.506 520.501 250.36 520.35 250.213 520.274 250.028 520.274 249.803 520.274 249.579 520.35 249.392 520.501 249.243 520.653 249.094 520.836 249.019 521.051 249.019Z" fill="url(#fill12)" fill-rule="evenodd"/><text fill="#000000" fill-opacity="0" font-family="Arial,Arial_MSFontService,sans-serif" font-size="11.1401" x="477.41" y="258.767">Xamarin</text><rect x="574" y="176" width="135" height="269" fill="#0078D4"/><path d="M621.16 203.064C621.091 203.481 621.013 203.809 620.924 204.048L618.637 210.313 623.733 210.313 621.426 204.048C621.351 203.843 621.276 203.515 621.201 203.064ZM654.381 201.28 656.617 201.28 663.979 212.815C664.287 213.294 664.485 213.622 664.574 213.8L664.615 213.8C664.546 213.376 664.512 212.655 664.512 211.636L664.512 201.28 666.235 201.28 666.235 215.984 664.123 215.984 656.555 204.264C656.364 203.97 656.207 203.662 656.084 203.341L656.022 203.341C656.077 203.655 656.104 204.329 656.104 205.361L656.104 215.984 654.381 215.984ZM649.381 201.28 651.104 201.28 651.104 215.984 649.381 215.984ZM630.381 201.28 632.658 201.28 637.169 211.534C637.518 212.32 637.744 212.908 637.846 213.297L637.908 213.297C638.202 212.491 638.438 211.889 638.615 211.493L643.219 201.28 645.373 201.28 645.373 215.984 643.66 215.984 643.66 206.12C643.66 205.34 643.708 204.387 643.804 203.259L643.763 203.259C643.599 203.922 643.452 204.397 643.322 204.684L638.297 215.984 637.457 215.984 632.442 204.766C632.299 204.438 632.152 203.935 632.002 203.259L631.961 203.259C632.015 203.847 632.043 204.807 632.043 206.14L632.043 215.984 630.381 215.984ZM620.319 201.28 622.103 201.28 627.763 215.984 625.856 215.984 624.297 211.862 618.063 211.862 616.597 215.984 614.679 215.984ZM677.046 201.034C678.646 201.034 679.989 201.293 681.076 201.813L681.076 203.72C679.887 202.968 678.479 202.592 676.852 202.592 675.204 202.592 673.854 203.16 672.801 204.294 671.749 205.429 671.222 206.899 671.222 208.704 671.222 210.563 671.711 212.024 672.689 213.087 673.666 214.15 674.992 214.682 676.667 214.682 677.815 214.682 678.81 214.453 679.651 213.995L679.651 209.872 676.431 209.872 676.431 208.314 681.374 208.314 681.374 214.979C679.897 215.813 678.256 216.23 676.452 216.23 674.353 216.23 672.656 215.553 671.361 214.2 670.065 212.846 669.418 211.055 669.418 208.827 669.418 206.55 670.137 204.682 671.576 203.223 673.015 201.763 674.838 201.034 677.046 201.034ZM608.046 201.034C609.646 201.034 610.989 201.293 612.076 201.813L612.076 203.72C610.887 202.968 609.479 202.592 607.852 202.592 606.204 202.592 604.854 203.16 603.801 204.294 602.749 205.429 602.222 206.899 602.222 208.704 602.222 210.563 602.711 212.024 603.689 213.087 604.666 214.15 605.992 214.682 607.667 214.682 608.815 214.682 609.81 214.453 610.651 213.995L610.651 209.872 607.431 209.872 607.431 208.314 612.374 208.314 612.374 214.979C610.897 215.813 609.256 216.23 607.452 216.23 605.353 216.23 603.656 215.553 602.361 214.2 601.065 212.846 600.418 211.055 600.418 208.827 600.418 206.55 601.137 204.682 602.576 203.223 604.015 201.763 605.838 201.034 608.046 201.034Z" fill="url(#fill13)" fill-rule="evenodd"/><text fill="#000000" fill-opacity="0" font-family="Arial,Arial_MSFontService,sans-serif" font-size="15.1963" x="600.418" y="214.33">GAMING</text><path d="M651.556 252.484 652.889 252.484 654.918 258.255C654.942 258.329 654.994 258.519 655.072 258.827L655.116 258.827C655.14 258.709 655.189 258.524 655.262 258.27L657.394 252.484 658.639 252.484 655.189 261.185C654.574 262.738 653.71 263.514 652.596 263.514 652.284 263.514 652.023 263.482 651.813 263.419L651.813 262.342C652.071 262.43 652.308 262.474 652.523 262.474 653.128 262.474 653.583 262.113 653.885 261.39L654.486 259.969ZM643.669 252.484 644.871 252.484 644.871 259.984 643.669 259.984ZM639.361 252.308C640.181 252.308 640.809 252.573 641.243 253.103 641.678 253.633 641.895 254.398 641.895 255.399L641.895 259.984 640.694 259.984 640.694 255.706C640.694 254.115 640.113 253.319 638.951 253.319 638.35 253.319 637.853 253.545 637.46 253.996 637.067 254.448 636.871 255.018 636.871 255.706L636.871 259.984 635.669 259.984 635.669 252.484 636.871 252.484 636.871 253.729 636.9 253.729C637.466 252.782 638.287 252.308 639.361 252.308ZM649.259 250.265 649.259 252.484 651.148 252.484 651.148 253.509 649.259 253.509 649.259 257.735C649.259 258.238 649.344 258.597 649.515 258.812 649.686 259.027 649.969 259.134 650.365 259.134 650.668 259.134 650.929 259.051 651.148 258.885L651.148 259.911C650.865 260.067 650.492 260.145 650.028 260.145 648.714 260.145 648.058 259.413 648.058 257.948L648.058 253.509 646.769 253.509 646.769 252.484 648.058 252.484 648.058 250.653ZM625.699 249.481 626.929 249.481 626.929 255.824C626.929 257.977 627.837 259.054 629.654 259.054 631.407 259.054 632.283 258.014 632.283 255.934L632.283 249.481 633.514 249.481 633.514 255.736C633.514 258.685 632.183 260.16 629.522 260.16 626.973 260.16 625.699 258.741 625.699 255.904ZM644.285 249.019C644.504 249.019 644.691 249.094 644.845 249.243 644.999 249.392 645.076 249.579 645.076 249.803 645.076 250.018 644.999 250.201 644.845 250.352 644.691 250.504 644.504 250.58 644.285 250.58 644.07 250.58 643.887 250.506 643.735 250.36 643.584 250.213 643.508 250.028 643.508 249.803 643.508 249.579 643.584 249.392 643.735 249.243 643.887 249.094 644.07 249.019 644.285 249.019Z" fill="url(#fill14)" fill-rule="evenodd"/><text fill="#000000" fill-opacity="0" font-family="Arial,Arial_MSFontService,sans-serif" font-size="14.4946" x="625.699" y="261.702">Unity</text><rect x="712" y="176" width="134" height="269" fill="#0078D4"/><path d="M776.982 202.592C775.437 202.592 774.183 203.149 773.219 204.264 772.255 205.378 771.773 206.841 771.773 208.652 771.773 210.464 772.243 211.922 773.183 213.026 774.123 214.13 775.348 214.682 776.859 214.682 778.472 214.682 779.744 214.155 780.673 213.102 781.603 212.05 782.068 210.577 782.068 208.683 782.068 206.742 781.617 205.241 780.714 204.182 779.812 203.122 778.568 202.592 776.982 202.592ZM784.425 201.28 794.628 201.28 794.628 202.838 790.382 202.838 790.382 215.984 788.66 215.984 788.66 202.838 784.425 202.838ZM764.932 201.28 766.655 201.28 766.655 215.984 764.932 215.984ZM777.105 201.034C779.135 201.034 780.771 201.717 782.012 203.084 783.252 204.452 783.873 206.239 783.873 208.447 783.873 210.847 783.237 212.744 781.965 214.138 780.694 215.533 778.992 216.23 776.859 216.23 774.774 216.23 773.104 215.543 771.85 214.169 770.596 212.795 769.968 211.007 769.968 208.806 769.968 206.441 770.608 204.554 771.886 203.146 773.164 201.738 774.904 201.034 777.105 201.034Z" fill="url(#fill15)" fill-rule="evenodd"/><text fill="#000000" fill-opacity="0" font-family="Arial,Arial_MSFontService,sans-serif" font-size="15.1963" x="764.932" y="214.33">IOT</text><path d="M760.228 250.755C760.179 251.053 760.123 251.288 760.059 251.458L758.426 255.934 762.066 255.934 760.418 251.458C760.365 251.312 760.311 251.078 760.257 250.755ZM768.045 250.594 768.045 254.403 769.715 254.403C770.023 254.403 770.307 254.356 770.568 254.264 770.83 254.171 771.056 254.038 771.246 253.864 771.436 253.691 771.585 253.479 771.693 253.227 771.8 252.976 771.854 252.694 771.854 252.381 771.854 251.82 771.672 251.382 771.308 251.067 770.944 250.752 770.418 250.594 769.73 250.594ZM774.815 249.481 776.441 249.481 779.663 256.805C779.912 257.367 780.074 257.787 780.147 258.065L780.191 258.065C780.401 257.489 780.569 257.059 780.696 256.776L783.985 249.481 785.523 249.481 785.523 259.984 784.3 259.984 784.3 252.938C784.3 252.381 784.334 251.7 784.402 250.894L784.373 250.894C784.256 251.368 784.151 251.707 784.058 251.913L780.469 259.984 779.869 259.984 776.287 251.971C776.184 251.737 776.079 251.378 775.972 250.894L775.943 250.894C775.982 251.314 776.001 252 776.001 252.953L776.001 259.984 774.815 259.984ZM766.815 249.481 769.95 249.481C770.409 249.481 770.832 249.538 771.22 249.653 771.609 249.768 771.945 249.942 772.231 250.177 772.517 250.411 772.74 250.703 772.901 251.052 773.062 251.401 773.143 251.81 773.143 252.279 773.143 252.645 773.088 252.981 772.978 253.286 772.868 253.591 772.712 253.863 772.509 254.102 772.307 254.342 772.063 254.546 771.777 254.714 771.491 254.883 771.17 255.013 770.814 255.106L770.814 255.135C770.99 255.213 771.142 255.302 771.272 255.403 771.401 255.503 771.524 255.621 771.641 255.758 771.759 255.894 771.875 256.049 771.989 256.223 772.104 256.396 772.232 256.598 772.374 256.827L774.344 259.984 772.879 259.984 771.121 257.039C770.96 256.766 770.804 256.533 770.653 256.34 770.501 256.147 770.346 255.99 770.188 255.868 770.029 255.746 769.858 255.656 769.675 255.6 769.492 255.544 769.286 255.516 769.056 255.516L768.045 255.516 768.045 259.984 766.815 259.984ZM759.627 249.481 760.902 249.481 764.945 259.984 763.582 259.984 762.469 257.039 758.016 257.039 756.969 259.984 755.599 259.984ZM798.305 249.305C798.735 249.305 799.133 249.367 799.499 249.492 799.865 249.616 800.182 249.798 800.451 250.038 800.72 250.277 800.931 250.572 801.085 250.924 801.238 251.275 801.315 251.678 801.315 252.132 801.315 252.547 801.268 252.923 801.172 253.26 801.077 253.597 800.933 253.914 800.74 254.212 800.547 254.51 800.305 254.796 800.012 255.069 799.719 255.343 799.374 255.621 798.979 255.904 798.486 256.256 798.079 256.556 797.759 256.805 797.44 257.054 797.186 257.287 796.998 257.505 796.81 257.722 796.678 257.939 796.602 258.156 796.526 258.374 796.489 258.624 796.489 258.907L801.718 258.907 801.718 259.984 795.236 259.984 795.236 259.464C795.236 259.015 795.285 258.619 795.383 258.277 795.48 257.935 795.641 257.611 795.866 257.303 796.091 256.996 796.385 256.688 796.749 256.38 797.112 256.073 797.558 255.726 798.085 255.34 798.466 255.067 798.785 254.806 799.041 254.557 799.297 254.308 799.504 254.059 799.66 253.81 799.816 253.56 799.927 253.308 799.993 253.051 800.059 252.795 800.092 252.523 800.092 252.235 800.092 251.913 800.042 251.632 799.942 251.393 799.842 251.153 799.705 250.954 799.532 250.796 799.359 250.637 799.155 250.518 798.92 250.44 798.686 250.362 798.432 250.323 798.159 250.323 797.924 250.323 797.695 250.355 797.47 250.418 797.245 250.482 797.027 250.57 796.815 250.682 796.602 250.794 796.397 250.929 796.199 251.085 796.002 251.241 795.817 251.414 795.646 251.605L795.646 250.316C795.983 249.989 796.36 249.738 796.778 249.565 797.195 249.392 797.704 249.305 798.305 249.305ZM791.129 249.305C791.569 249.305 791.967 249.366 792.323 249.488 792.68 249.61 792.985 249.781 793.239 250.001 793.493 250.221 793.689 250.484 793.828 250.792 793.967 251.1 794.037 251.439 794.037 251.81 794.037 253.192 793.339 254.081 791.942 254.476L791.942 254.505C792.299 254.544 792.628 254.631 792.931 254.765 793.234 254.9 793.495 255.074 793.715 255.289 793.934 255.504 794.107 255.757 794.231 256.047 794.356 256.338 794.418 256.659 794.418 257.01 794.418 257.484 794.329 257.915 794.151 258.303 793.972 258.691 793.721 259.023 793.396 259.299 793.071 259.575 792.682 259.789 792.228 259.94 791.774 260.091 791.273 260.167 790.726 260.167 789.725 260.167 788.93 259.977 788.339 259.596L788.339 258.307C789.047 258.863 789.857 259.142 790.77 259.142 791.137 259.142 791.467 259.095 791.763 259.002 792.058 258.91 792.312 258.775 792.525 258.6 792.737 258.424 792.901 258.211 793.015 257.962 793.13 257.713 793.187 257.433 793.187 257.12 793.187 255.748 792.211 255.062 790.258 255.062L789.386 255.062 789.386 254.044 790.214 254.044C791.942 254.044 792.807 253.399 792.807 252.11 792.807 250.919 792.147 250.323 790.829 250.323 790.087 250.323 789.391 250.572 788.742 251.07L788.742 249.906C789.411 249.505 790.206 249.305 791.129 249.305Z" fill="url(#fill16)" fill-rule="evenodd"/><text fill="#000000" fill-opacity="0" font-family="Arial,Arial_MSFontService,sans-serif" font-size="10.8618" x="755.599" y="258.809">ARM32</text><path d="M791.649 272.432C791.351 272.432 791.076 272.488 790.822 272.601 790.568 272.713 790.348 272.865 790.162 273.058 789.977 273.251 789.832 273.476 789.727 273.732 789.622 273.988 789.569 274.261 789.569 274.549 789.569 274.91 789.62 275.248 789.723 275.563 789.826 275.878 789.97 276.153 790.155 276.387 790.341 276.622 790.562 276.806 790.818 276.94 791.074 277.074 791.359 277.142 791.671 277.142 791.974 277.142 792.25 277.084 792.499 276.969 792.748 276.855 792.96 276.695 793.136 276.49 793.312 276.285 793.449 276.039 793.546 275.754 793.644 275.468 793.693 275.152 793.693 274.805 793.693 274.439 793.646 274.109 793.554 273.816 793.461 273.523 793.328 273.274 793.154 273.069 792.981 272.864 792.767 272.707 792.514 272.597 792.26 272.487 791.972 272.432 791.649 272.432ZM760.228 268.755C760.179 269.053 760.123 269.288 760.059 269.458L758.426 273.934 762.066 273.934 760.418 269.458C760.365 269.312 760.311 269.078 760.257 268.755ZM768.045 268.594 768.045 272.403 769.715 272.403C770.023 272.403 770.307 272.356 770.568 272.264 770.83 272.171 771.056 272.038 771.246 271.864 771.436 271.691 771.585 271.479 771.693 271.227 771.8 270.976 771.854 270.694 771.854 270.381 771.854 269.82 771.672 269.382 771.308 269.067 770.944 268.752 770.418 268.594 769.73 268.594ZM774.815 267.481 776.441 267.481 779.663 274.805C779.912 275.367 780.074 275.787 780.147 276.065L780.191 276.065C780.401 275.489 780.569 275.059 780.696 274.776L783.985 267.481 785.523 267.481 785.523 277.984 784.3 277.984 784.3 270.938C784.3 270.381 784.334 269.7 784.402 268.894L784.373 268.894C784.256 269.368 784.151 269.707 784.058 269.913L780.469 277.984 779.869 277.984 776.287 269.971C776.184 269.737 776.079 269.378 775.972 268.894L775.943 268.894C775.982 269.314 776.001 270 776.001 270.953L776.001 277.984 774.815 277.984ZM766.815 267.481 769.95 267.481C770.409 267.481 770.832 267.538 771.22 267.653 771.609 267.768 771.945 267.942 772.231 268.177 772.517 268.411 772.74 268.703 772.901 269.052 773.062 269.401 773.143 269.81 773.143 270.279 773.143 270.645 773.088 270.981 772.978 271.286 772.868 271.591 772.712 271.863 772.509 272.102 772.307 272.342 772.063 272.546 771.777 272.714 771.491 272.883 771.17 273.013 770.814 273.106L770.814 273.135C770.99 273.213 771.142 273.302 771.272 273.403 771.401 273.503 771.524 273.621 771.641 273.758 771.759 273.894 771.875 274.049 771.989 274.223 772.104 274.396 772.232 274.598 772.374 274.827L774.344 277.984 772.879 277.984 771.121 275.039C770.96 274.766 770.804 274.533 770.653 274.34 770.501 274.147 770.346 273.99 770.188 273.868 770.029 273.746 769.858 273.656 769.675 273.6 769.492 273.544 769.286 273.516 769.056 273.516L768.045 273.516 768.045 277.984 766.815 277.984ZM759.627 267.481 760.902 267.481 764.945 277.984 763.582 277.984 762.469 275.039 758.016 275.039 756.969 277.984 755.599 277.984ZM792.536 267.305C793.258 267.305 793.839 267.405 794.279 267.605L794.279 268.741C793.737 268.462 793.165 268.323 792.565 268.323 792.096 268.323 791.674 268.428 791.298 268.638 790.922 268.848 790.599 269.145 790.331 269.528 790.062 269.911 789.856 270.374 789.712 270.916 789.568 271.458 789.496 272.061 789.496 272.725L789.525 272.725C790.009 271.851 790.807 271.414 791.92 271.414 792.379 271.414 792.793 271.492 793.162 271.648 793.53 271.805 793.845 272.026 794.107 272.311 794.368 272.597 794.569 272.937 794.711 273.333 794.852 273.728 794.923 274.168 794.923 274.651 794.923 275.164 794.84 275.635 794.674 276.065 794.508 276.495 794.279 276.866 793.986 277.178 793.693 277.491 793.344 277.734 792.938 277.907 792.533 278.08 792.094 278.167 791.62 278.167 791.093 278.167 790.62 278.057 790.203 277.837 789.785 277.618 789.431 277.301 789.141 276.889 788.85 276.476 788.629 275.972 788.478 275.376 788.327 274.781 788.251 274.109 788.251 273.362 788.251 272.449 788.352 271.62 788.555 270.876 788.757 270.131 789.046 269.494 789.419 268.964 789.793 268.434 790.243 268.025 790.77 267.737 791.298 267.449 791.886 267.305 792.536 267.305Z" fill="url(#fill17)" fill-rule="evenodd"/><text fill="#000000" fill-opacity="0" font-family="Arial,Arial_MSFontService,sans-serif" font-size="10.8618" x="755.599" y="276.809">ARM6</text><path d="M799.81 269.275C799.444 269.915 799.097 270.486 798.77 270.989 798.443 271.492 798.132 271.949 797.836 272.359 797.541 272.769 797.259 273.14 796.99 273.472 796.722 273.804 796.468 274.119 796.229 274.417L799.81 274.417ZM799.715 267.481 800.997 267.481 800.997 274.417 802.344 274.417 802.344 275.516 800.997 275.516 800.997 277.984 799.81 277.984 799.81 275.516 794.874 275.516 794.874 274.476C795.333 273.958 795.797 273.405 796.265 272.817 796.734 272.228 797.182 271.631 797.609 271.026 798.037 270.42 798.432 269.816 798.796 269.213 799.16 268.61 799.466 268.033 799.715 267.481Z" fill="url(#fill18)" fill-rule="evenodd"/><text fill="#000000" fill-opacity="0" font-family="Arial,Arial_MSFontService,sans-serif" font-size="10.5029" x="794.874" y="276.671">4</text><rect x="849" y="176" width="135" height="269" fill="#0078D4"/><path d="M913.542 203.064C913.473 203.481 913.395 203.809 913.306 204.048L911.019 210.313 916.115 210.313 913.808 204.048C913.733 203.843 913.658 203.515 913.583 203.064ZM922.763 201.28 924.486 201.28 924.486 215.984 922.763 215.984ZM912.701 201.28 914.485 201.28 920.145 215.984 918.238 215.984 916.679 211.862 910.445 211.862 908.979 215.984 907.061 215.984Z" fill="url(#fill19)" fill-rule="evenodd"/><text fill="#000000" fill-opacity="0" font-family="Arial,Arial_MSFontService,sans-serif" font-size="14.7041" x="907.061" y="214.146">AI</text><path d="M913.555 258.497C913.785 258.497 913.98 258.579 914.141 258.742 914.303 258.906 914.383 259.1 914.383 259.325 914.383 259.549 914.303 259.742 914.141 259.903 913.98 260.064 913.785 260.145 913.555 260.145 913.331 260.145 913.139 260.064 912.981 259.903 912.822 259.742 912.742 259.549 912.742 259.325 912.742 259.1 912.822 258.906 912.981 258.742 913.139 258.579 913.331 258.497 913.555 258.497ZM934.222 249.481 941.51 249.481 941.51 250.594 938.478 250.594 938.478 259.984 937.247 259.984 937.247 250.594 934.222 250.594ZM927.299 249.481 932.631 249.481 932.631 250.594 928.53 250.594 928.53 254.088 932.324 254.088 932.324 255.194 928.53 255.194 928.53 258.871 932.866 258.871 932.866 259.984 927.299 259.984ZM916.299 249.481 917.896 249.481 923.155 257.721C923.374 258.062 923.516 258.297 923.579 258.424L923.609 258.424C923.56 258.121 923.535 257.606 923.535 256.878L923.535 249.481 924.766 249.481 924.766 259.984 923.257 259.984 917.852 251.612C917.715 251.402 917.603 251.183 917.515 250.953L917.471 250.953C917.51 251.178 917.53 251.659 917.53 252.396L917.53 259.984 916.299 259.984ZM906.299 249.481 907.53 249.481 907.53 258.871 911.748 258.871 911.748 259.984 906.299 259.984ZM893.299 249.481 894.925 249.481 898.148 256.805C898.397 257.367 898.558 257.787 898.631 258.065L898.675 258.065C898.885 257.489 899.054 257.059 899.18 256.776L902.469 249.481 904.007 249.481 904.007 259.984 902.784 259.984 902.784 252.938C902.784 252.381 902.818 251.7 902.887 250.894L902.857 250.894C902.74 251.368 902.635 251.707 902.542 251.913L898.953 259.984 898.353 259.984 894.771 251.971C894.669 251.737 894.564 251.378 894.456 250.894L894.427 250.894C894.466 251.314 894.486 252 894.486 252.953L894.486 259.984 893.299 259.984Z" fill="url(#fill20)" fill-rule="evenodd"/><text fill="#000000" fill-opacity="0" font-family="Arial,Arial_MSFontService,sans-serif" font-size="10.6641" x="893.299" y="258.812">ML.NET</text><path d="M895.472 274.19 893.663 274.439C893.106 274.517 892.687 274.655 892.403 274.853 892.12 275.05 891.979 275.401 891.979 275.904 891.979 276.27 892.109 276.569 892.37 276.801 892.632 277.033 892.979 277.149 893.414 277.149 894.01 277.149 894.502 276.94 894.89 276.523 895.278 276.105 895.472 275.577 895.472 274.937ZM917.227 271.319C916.661 271.319 916.18 271.521 915.784 271.927 915.389 272.332 915.145 272.862 915.052 273.516L919.102 273.516C919.097 272.823 918.93 272.283 918.6 271.897 918.271 271.512 917.813 271.319 917.227 271.319ZM886.828 271.319C886.129 271.319 885.568 271.562 885.143 272.048 884.718 272.533 884.506 273.143 884.506 273.875L884.506 274.922C884.506 275.542 884.707 276.069 885.11 276.501 885.513 276.933 886.024 277.149 886.645 277.149 887.372 277.149 887.942 276.871 888.355 276.314 888.767 275.757 888.974 274.983 888.974 273.992 888.974 273.157 888.781 272.503 888.395 272.029 888.009 271.556 887.487 271.319 886.828 271.319ZM917.249 270.308C918.23 270.308 918.99 270.625 919.527 271.26 920.064 271.895 920.333 272.776 920.333 273.904L920.333 274.534 915.037 274.534C915.057 275.369 915.281 276.014 915.711 276.468 916.141 276.922 916.731 277.149 917.483 277.149 918.328 277.149 919.104 276.871 919.812 276.314L919.812 277.442C919.153 277.92 918.282 278.16 917.198 278.16 916.138 278.16 915.306 277.819 914.7 277.138 914.095 276.457 913.792 275.498 913.792 274.263 913.792 273.096 914.123 272.145 914.784 271.41 915.446 270.675 916.268 270.308 917.249 270.308ZM902.688 270.308C903.348 270.308 903.929 270.43 904.432 270.674L904.432 271.905C903.875 271.514 903.279 271.319 902.645 271.319 901.878 271.319 901.249 271.593 900.759 272.143 900.268 272.692 900.022 273.414 900.022 274.307 900.022 275.186 900.253 275.879 900.715 276.387 901.176 276.895 901.795 277.149 902.571 277.149 903.226 277.149 903.841 276.932 904.417 276.497L904.417 277.64C903.841 277.986 903.157 278.16 902.366 278.16 901.297 278.16 900.434 277.812 899.777 277.116 899.12 276.42 898.792 275.518 898.792 274.41 898.792 273.174 899.146 272.182 899.854 271.432 900.562 270.683 901.507 270.308 902.688 270.308ZM894.029 270.308C895.792 270.308 896.673 271.241 896.673 273.106L896.673 277.984 895.472 277.984 895.472 276.812 895.443 276.812C894.92 277.71 894.151 278.16 893.136 278.16 892.389 278.16 891.804 277.962 891.382 277.566 890.959 277.171 890.748 276.646 890.748 275.992 890.748 274.59 891.573 273.775 893.224 273.545L895.472 273.23C895.472 271.956 894.957 271.319 893.927 271.319 893.023 271.319 892.208 271.626 891.48 272.242L891.48 271.011C892.218 270.542 893.067 270.308 894.029 270.308ZM887.128 270.308C888.095 270.308 888.849 270.644 889.391 271.315 889.933 271.987 890.204 272.886 890.204 274.014 890.204 275.269 889.899 276.274 889.289 277.028 888.678 277.782 887.843 278.16 886.784 278.16 885.812 278.16 885.062 277.74 884.535 276.9L884.506 276.9 884.506 281.434 883.305 281.434 883.305 270.484 884.506 270.484 884.506 271.802 884.535 271.802C885.126 270.806 885.99 270.308 887.128 270.308ZM876.879 268.755C876.83 269.053 876.774 269.288 876.71 269.458L875.077 273.934 878.717 273.934 877.069 269.458C877.016 269.312 876.962 269.078 876.908 268.755ZM876.278 267.481 877.553 267.481 881.596 277.984 880.233 277.984 879.12 275.039 874.667 275.039 873.62 277.984 872.25 277.984ZM906.305 266.88 907.506 266.88 907.506 271.729 907.535 271.729C908.111 270.782 908.932 270.308 909.996 270.308 911.686 270.308 912.53 271.326 912.53 273.362L912.53 277.984 911.329 277.984 911.329 273.663C911.329 272.1 910.748 271.319 909.586 271.319 909 271.319 908.507 271.545 908.106 271.996 907.706 272.448 907.506 273.028 907.506 273.736L907.506 277.984 906.305 277.984Z" fill="url(#fill21)" fill-rule="evenodd"/><text fill="#000000" fill-opacity="0" font-family="Arial,Arial_MSFontService,sans-serif" font-size="14.5532" x="872.25" y="279.614">Apache</text><path d="M946.972 274.19 945.163 274.439C944.606 274.517 944.187 274.655 943.903 274.853 943.62 275.05 943.479 275.401 943.479 275.904 943.479 276.27 943.609 276.569 943.87 276.801 944.132 277.033 944.479 277.149 944.914 277.149 945.51 277.149 946.002 276.94 946.39 276.523 946.778 276.105 946.972 275.577 946.972 274.937ZM937.328 271.319C936.629 271.319 936.068 271.562 935.643 272.048 935.218 272.533 935.006 273.143 935.006 273.875L935.006 274.922C935.006 275.542 935.207 276.069 935.61 276.501 936.013 276.933 936.524 277.149 937.145 277.149 937.872 277.149 938.442 276.871 938.855 276.314 939.267 275.757 939.474 274.983 939.474 273.992 939.474 273.157 939.281 272.503 938.895 272.029 938.509 271.556 937.987 271.319 937.328 271.319ZM952.998 270.352C953.311 270.352 953.55 270.386 953.716 270.455L953.716 271.7C953.506 271.539 953.203 271.458 952.808 271.458 952.295 271.458 951.866 271.7 951.522 272.183 951.178 272.666 951.006 273.326 951.006 274.161L951.006 277.984 949.805 277.984 949.805 270.484 951.006 270.484 951.006 272.029 951.035 272.029C951.206 271.502 951.467 271.091 951.819 270.795 952.17 270.5 952.563 270.352 952.998 270.352ZM945.529 270.308C947.292 270.308 948.173 271.241 948.173 273.106L948.173 277.984 946.972 277.984 946.972 276.812 946.943 276.812C946.42 277.71 945.651 278.16 944.636 278.16 943.889 278.16 943.304 277.962 942.882 277.566 942.459 277.171 942.248 276.646 942.248 275.992 942.248 274.59 943.073 273.775 944.724 273.545L946.972 273.23C946.972 271.956 946.457 271.319 945.427 271.319 944.523 271.319 943.708 271.626 942.98 272.242L942.98 271.011C943.718 270.542 944.567 270.308 945.529 270.308ZM937.628 270.308C938.595 270.308 939.349 270.644 939.891 271.315 940.433 271.987 940.704 272.886 940.704 274.014 940.704 275.269 940.399 276.274 939.789 277.028 939.178 277.782 938.343 278.16 937.284 278.16 936.312 278.16 935.562 277.74 935.035 276.9L935.006 276.9 935.006 281.434 933.805 281.434 933.805 270.484 935.006 270.484 935.006 271.802 935.035 271.802C935.626 270.806 936.49 270.308 937.628 270.308ZM929.137 267.305C930.172 267.305 930.927 267.43 931.4 267.679L931.4 269.063C930.78 268.633 929.984 268.418 929.013 268.418 928.744 268.418 928.476 268.446 928.207 268.503 927.938 268.559 927.699 268.65 927.489 268.777 927.279 268.904 927.108 269.068 926.976 269.268 926.845 269.468 926.779 269.712 926.779 270 926.779 270.269 926.829 270.501 926.929 270.696 927.029 270.892 927.177 271.07 927.372 271.231 927.567 271.392 927.805 271.548 928.086 271.7 928.367 271.851 928.69 272.017 929.057 272.198 929.433 272.383 929.789 272.579 930.126 272.784 930.463 272.989 930.758 273.216 931.012 273.465 931.266 273.714 931.468 273.99 931.616 274.292 931.765 274.595 931.84 274.942 931.84 275.332 931.84 275.85 931.739 276.288 931.536 276.647 931.333 277.006 931.06 277.298 930.716 277.522 930.371 277.747 929.975 277.909 929.525 278.009 929.076 278.11 928.603 278.16 928.104 278.16 927.938 278.16 927.733 278.146 927.489 278.119 927.245 278.092 926.996 278.053 926.742 278.002 926.488 277.951 926.248 277.887 926.021 277.812 925.794 277.736 925.612 277.652 925.475 277.559L925.475 276.109C925.641 276.255 925.84 276.387 926.072 276.504 926.304 276.622 926.548 276.72 926.804 276.801 927.061 276.882 927.318 276.944 927.577 276.988 927.836 277.032 928.075 277.054 928.295 277.054 929.052 277.054 929.617 276.913 929.99 276.633 930.364 276.352 930.551 275.948 930.551 275.42 930.551 275.137 930.489 274.891 930.364 274.681 930.24 274.471 930.067 274.279 929.848 274.106 929.628 273.932 929.368 273.766 929.068 273.608 928.767 273.449 928.444 273.282 928.097 273.106 927.731 272.92 927.389 272.732 927.072 272.542 926.754 272.352 926.479 272.142 926.244 271.912 926.01 271.683 925.825 271.423 925.691 271.132 925.557 270.841 925.49 270.501 925.49 270.11 925.49 269.632 925.595 269.216 925.805 268.862 926.015 268.508 926.291 268.216 926.632 267.986 926.974 267.757 927.364 267.586 927.801 267.474 928.238 267.361 928.683 267.305 929.137 267.305Z" fill="url(#fill22)" fill-rule="evenodd"/><text fill="#000000" fill-opacity="0" font-family="Arial,Arial_MSFontService,sans-serif" font-size="14.1284" x="925.475" y="279.667">Spar</text><path d="M954.971 266.88 956.172 266.88 956.172 273.919 956.202 273.919 959.351 270.484 960.926 270.484 957.447 274.102 961.197 277.984 959.512 277.984 956.202 274.38 956.172 274.38 956.172 277.984 954.971 277.984Z" fill="url(#fill23)" fill-rule="evenodd"/><text fill="#000000" fill-opacity="0" font-family="Arial,Arial_MSFontService,sans-serif" font-size="11.1035" x="954.971" y="276.596">k</text><rect x="24" y="450" width="960" height="48" fill="#107C10"/><path d="M392.059 484.095C392.625 484.095 393.106 484.296 393.504 484.7 393.901 485.103 394.1 485.582 394.1 486.136 394.1 486.69 393.901 487.166 393.504 487.563 393.106 487.961 392.625 488.16 392.059 488.16 391.504 488.16 391.032 487.961 390.64 487.563 390.249 487.166 390.053 486.69 390.053 486.136 390.053 485.582 390.249 485.103 390.64 484.7 391.032 484.296 391.504 484.095 392.059 484.095ZM579.309 478.404 574.846 479.018C573.473 479.211 572.437 479.551 571.739 480.039 571.04 480.527 570.691 481.391 570.691 482.631 570.691 483.535 571.013 484.272 571.657 484.844 572.302 485.417 573.16 485.703 574.232 485.703 575.701 485.703 576.915 485.188 577.872 484.158 578.83 483.128 579.309 481.824 579.309 480.247ZM517.308 478.404 512.846 479.018C511.473 479.211 510.437 479.551 509.739 480.039 509.04 480.527 508.691 481.391 508.691 482.631 508.691 483.535 509.013 484.272 509.657 484.844 510.302 485.417 511.16 485.703 512.232 485.703 513.701 485.703 514.915 485.188 515.872 484.158 516.83 483.128 517.308 481.824 517.308 480.247ZM608.617 471.322C606.81 471.322 605.389 471.984 604.353 473.309 603.317 474.634 602.799 476.465 602.799 478.801 602.799 480.933 603.296 482.616 604.29 483.851 605.283 485.085 606.617 485.703 608.291 485.703 609.942 485.703 611.281 485.106 612.311 483.914 613.341 482.722 613.856 481.216 613.856 479.397L613.856 476.669C613.856 475.176 613.362 473.911 612.374 472.875 611.387 471.84 610.134 471.322 608.617 471.322ZM554.617 471.322C552.81 471.322 551.389 471.984 550.353 473.309 549.317 474.634 548.799 476.465 548.799 478.801 548.799 480.933 549.296 482.616 550.29 483.851 551.283 485.085 552.617 485.703 554.291 485.703 555.942 485.703 557.281 485.106 558.311 483.914 559.341 482.722 559.856 481.216 559.856 479.397L559.856 476.669C559.856 475.176 559.362 473.911 558.374 472.875 557.387 471.84 556.134 471.322 554.617 471.322ZM595.906 468.937C596.677 468.937 597.267 469.021 597.676 469.19L597.676 472.261C597.158 471.864 596.412 471.665 595.436 471.665 594.171 471.665 593.114 472.261 592.265 473.454 591.416 474.646 590.992 476.272 590.992 478.332L590.992 487.762 588.029 487.762 588.029 469.262 590.992 469.262 590.992 473.074 591.064 473.074C591.485 471.773 592.13 470.759 592.997 470.03 593.864 469.301 594.834 468.937 595.906 468.937ZM575.749 468.829C580.097 468.829 582.271 471.129 582.271 475.73L582.271 487.762 579.309 487.762 579.309 484.872 579.236 484.872C577.948 487.088 576.051 488.196 573.545 488.196 571.703 488.196 570.26 487.708 569.218 486.732 568.177 485.757 567.656 484.462 567.656 482.848 567.656 479.391 569.691 477.38 573.762 476.814L579.309 476.037C579.309 472.894 578.038 471.322 575.497 471.322 573.268 471.322 571.257 472.081 569.462 473.598L569.462 470.563C571.281 469.407 573.377 468.829 575.749 468.829ZM535.134 468.829C537.158 468.829 538.705 469.482 539.777 470.789 540.849 472.096 541.385 473.984 541.385 476.453L541.385 487.762 538.422 487.762 538.422 477.211C538.422 473.285 536.989 471.322 534.122 471.322 532.641 471.322 531.416 471.879 530.446 472.993 529.476 474.107 528.992 475.513 528.992 477.211L528.992 487.762 526.029 487.762 526.029 469.262 528.992 469.262 528.992 472.333 529.064 472.333C530.461 469.997 532.484 468.829 535.134 468.829ZM513.749 468.829C518.097 468.829 520.271 471.129 520.271 475.73L520.271 487.762 517.308 487.762 517.308 484.872 517.236 484.872C515.948 487.088 514.051 488.196 511.545 488.196 509.703 488.196 508.26 487.708 507.218 486.732 506.177 485.757 505.656 484.462 505.656 482.848 505.656 479.391 507.691 477.38 511.762 476.814L517.308 476.037C517.308 472.894 516.038 471.322 513.497 471.322 511.268 471.322 509.257 472.081 507.462 473.598L507.462 470.563C509.281 469.407 511.377 468.829 513.749 468.829ZM497.949 463.788 497.949 469.262 502.61 469.262 502.61 471.792 497.949 471.792 497.949 482.216C497.949 483.456 498.16 484.342 498.581 484.872 499.003 485.402 499.702 485.667 500.677 485.667 501.424 485.667 502.068 485.462 502.61 485.052L502.61 487.582C501.912 487.967 500.99 488.16 499.846 488.16 496.606 488.16 494.986 486.353 494.986 482.74L494.986 471.792 491.807 471.792 491.807 469.262 494.986 469.262 494.986 464.746ZM443.77 461.855 461.747 461.855 461.747 464.601 454.267 464.601 454.267 487.762 451.232 487.762 451.232 464.601 443.77 464.601ZM427.426 461.855 440.579 461.855 440.579 464.601 430.461 464.601 430.461 473.219 439.82 473.219 439.82 475.947 430.461 475.947 430.461 485.016 441.157 485.016 441.157 487.762 427.426 487.762ZM399.426 461.855 403.365 461.855 416.336 482.18C416.878 483.023 417.228 483.601 417.384 483.914L417.456 483.914C417.336 483.167 417.276 481.897 417.276 480.102L417.276 461.855 420.311 461.855 420.311 487.762 416.589 487.762 403.256 467.112C402.919 466.594 402.642 466.052 402.425 465.486L402.317 465.486C402.413 466.04 402.461 467.227 402.461 469.045L402.461 487.762 399.426 487.762ZM484.249 461.421C486.802 461.421 488.663 461.729 489.831 462.343L489.831 465.757C488.302 464.697 486.339 464.167 483.942 464.167 483.279 464.167 482.617 464.237 481.955 464.375 481.292 464.514 480.702 464.74 480.184 465.053 479.666 465.366 479.245 465.769 478.919 466.263 478.594 466.757 478.432 467.359 478.432 468.07 478.432 468.732 478.555 469.304 478.802 469.786 479.049 470.268 479.413 470.708 479.895 471.105 480.377 471.502 480.964 471.888 481.656 472.261 482.349 472.635 483.147 473.044 484.05 473.49 484.978 473.947 485.857 474.429 486.688 474.935 487.519 475.441 488.248 476.001 488.874 476.615 489.5 477.229 489.997 477.91 490.364 478.657 490.732 479.403 490.915 480.259 490.915 481.222 490.915 482.499 490.666 483.58 490.166 484.465 489.666 485.35 488.991 486.07 488.142 486.624 487.293 487.178 486.315 487.579 485.206 487.825 484.098 488.072 482.93 488.196 481.702 488.196 481.292 488.196 480.786 488.163 480.184 488.096 479.582 488.03 478.968 487.934 478.341 487.807 477.715 487.681 477.122 487.524 476.562 487.338 476.002 487.151 475.553 486.943 475.216 486.714L475.216 483.137C475.625 483.499 476.116 483.824 476.688 484.113 477.26 484.402 477.862 484.646 478.495 484.844 479.127 485.043 479.762 485.197 480.401 485.305 481.039 485.414 481.629 485.468 482.171 485.468 484.038 485.468 485.432 485.121 486.354 484.429 487.275 483.736 487.736 482.74 487.736 481.439 487.736 480.74 487.582 480.132 487.275 479.614 486.968 479.096 486.543 478.624 486.001 478.196 485.459 477.768 484.818 477.359 484.077 476.968 483.337 476.576 482.539 476.164 481.684 475.73 480.78 475.272 479.937 474.809 479.154 474.339 478.371 473.869 477.691 473.351 477.113 472.785 476.535 472.219 476.08 471.578 475.749 470.861 475.417 470.144 475.252 469.304 475.252 468.341 475.252 467.16 475.511 466.134 476.029 465.26 476.547 464.387 477.227 463.668 478.07 463.102 478.913 462.535 479.874 462.114 480.952 461.837 482.03 461.56 483.129 461.421 484.249 461.421ZM613.856 460.374 616.819 460.374 616.819 487.762 613.856 487.762 613.856 484.619 613.784 484.619C612.411 487.003 610.291 488.196 607.424 488.196 605.1 488.196 603.242 487.368 601.851 485.712 600.46 484.056 599.764 481.8 599.764 478.946 599.764 475.887 600.535 473.436 602.077 471.593 603.618 469.75 605.672 468.829 608.237 468.829 610.779 468.829 612.627 469.828 613.784 471.828L613.856 471.828ZM559.856 460.374 562.819 460.374 562.819 487.762 559.856 487.762 559.856 484.619 559.784 484.619C558.411 487.003 556.291 488.196 553.424 488.196 551.1 488.196 549.242 487.368 547.851 485.712 546.46 484.056 545.764 481.8 545.764 478.946 545.764 475.887 546.535 473.436 548.077 471.593 549.618 469.75 551.672 468.829 554.237 468.829 556.779 468.829 558.627 469.828 559.784 471.828L559.856 471.828Z" fill="url(#fill24)" fill-rule="evenodd"/><text fill="#000000" fill-opacity="0" font-family="Arial,Arial_MSFontService,sans-serif" font-size="27.8223" x="390.053" y="484.718">.NET Standard</text><rect x="24" y="508" width="960" height="77" fill="#083E08"/><path d="M421.042 564.067C422.021 564.067 422.854 564.416 423.542 565.114 424.229 565.812 424.573 566.64 424.573 567.598 424.573 568.557 424.229 569.38 423.542 570.067 422.854 570.755 422.021 571.098 421.042 571.098 420.083 571.098 419.266 570.755 418.589 570.067 417.911 569.38 417.573 568.557 417.573 567.598 417.573 566.64 417.911 565.812 418.589 565.114 419.266 564.416 420.083 564.067 421.042 564.067ZM566.573 525.598 587.292 525.598 587.292 530.223 571.01 530.223 570.104 543.38C570.771 543.338 571.479 543.302 572.229 543.27 572.979 543.239 573.646 543.223 574.229 543.223 576.604 543.223 578.729 543.536 580.604 544.161 582.479 544.786 584.068 545.677 585.37 546.833 586.672 547.989 587.661 549.406 588.339 551.083 589.016 552.76 589.354 554.64 589.354 556.723 589.354 558.911 588.979 560.89 588.229 562.661 587.479 564.432 586.411 565.953 585.026 567.223 583.641 568.494 581.969 569.473 580.01 570.161 578.052 570.848 575.875 571.192 573.479 571.192 569.312 571.192 566.219 570.567 564.198 569.317L564.198 563.88C567.24 565.838 570.354 566.817 573.542 566.817 575.167 566.817 576.63 566.578 577.932 566.098 579.234 565.619 580.344 564.953 581.26 564.098 582.177 563.244 582.88 562.213 583.37 561.005 583.859 559.796 584.104 558.473 584.104 557.036 584.104 554.119 583.125 551.833 581.167 550.177 579.208 548.52 576.365 547.692 572.635 547.692 572.031 547.692 571.396 547.703 570.729 547.723 570.063 547.744 569.396 547.77 568.729 547.802 568.063 547.833 567.411 547.869 566.776 547.911 566.141 547.953 565.563 548.005 565.042 548.067ZM509.354 525.598 540.448 525.598 540.448 530.348 527.51 530.348 527.51 570.411 522.26 570.411 522.26 530.348 509.354 530.348ZM481.948 525.598 504.698 525.598 504.698 530.348 487.198 530.348 487.198 545.255 503.385 545.255 503.385 549.973 487.198 549.973 487.198 565.661 505.698 565.661 505.698 570.411 481.948 570.411ZM433.948 525.598 440.76 525.598 463.198 560.755C464.135 562.213 464.74 563.213 465.01 563.755L465.135 563.755C464.927 562.463 464.823 560.265 464.823 557.161L464.823 525.598 470.073 525.598 470.073 570.411 463.635 570.411 440.573 534.692C439.99 533.796 439.51 532.859 439.135 531.88L438.948 531.88C439.115 532.838 439.198 534.89 439.198 538.036L439.198 570.411 433.948 570.411Z" fill="url(#fill25)" fill-rule="evenodd"/><text fill="#000000" fill-opacity="0" font-family="Arial,Arial_MSFontService,sans-serif" font-size="45.5937" x="417.573" y="565.493">.NET 5</text><rect x="24" y="595" width="960" height="91" fill="#107C10"/><path d="M474.67 624.23 471.413 624.679C470.411 624.819 469.655 625.068 469.146 625.424 468.636 625.779 468.381 626.41 468.381 627.315 468.381 627.975 468.616 628.513 469.086 628.93 469.557 629.348 470.183 629.557 470.965 629.557 472.037 629.557 472.923 629.181 473.621 628.429 474.32 627.678 474.67 626.727 474.67 625.575ZM576.428 619.062C575.409 619.062 574.543 619.427 573.831 620.157 573.119 620.886 572.68 621.84 572.513 623.018L579.803 623.018C579.795 621.769 579.494 620.798 578.9 620.104 578.307 619.41 577.483 619.062 576.428 619.062ZM546.878 617.56 549.027 617.56 549.027 625.285C549.027 628.133 550.117 629.557 552.297 629.557 553.351 629.557 554.219 629.168 554.9 628.39 555.581 627.612 555.922 626.595 555.922 625.338L555.922 617.56 558.084 617.56 558.084 631.06 555.922 631.06 555.922 628.924 555.869 628.924C554.973 630.559 553.584 631.376 551.703 631.376 548.487 631.376 546.878 629.46 546.878 625.628ZM509.878 617.56 512.027 617.56 512.027 625.285C512.027 628.133 513.117 629.557 515.297 629.557 516.351 629.557 517.219 629.168 517.9 628.39 518.581 627.612 518.922 626.595 518.922 625.338L518.922 617.56 521.084 617.56 521.084 631.06 518.922 631.06 518.922 628.924 518.869 628.924C517.973 630.559 516.584 631.376 514.703 631.376 511.486 631.376 509.878 629.46 509.878 625.628ZM567.916 617.322C568.479 617.322 568.909 617.384 569.208 617.507L569.208 619.748C568.83 619.458 568.285 619.313 567.573 619.313 566.651 619.313 565.879 619.748 565.26 620.618 564.64 621.488 564.33 622.675 564.33 624.178L564.33 631.06 562.168 631.06 562.168 617.56 564.33 617.56 564.33 620.341 564.383 620.341C564.691 619.392 565.161 618.652 565.794 618.12 566.426 617.588 567.134 617.322 567.916 617.322ZM506.916 617.322C507.479 617.322 507.909 617.384 508.208 617.507L508.208 619.748C507.83 619.458 507.285 619.313 506.573 619.313 505.651 619.313 504.879 619.748 504.26 620.618 503.64 621.488 503.33 622.675 503.33 624.178L503.33 631.06 501.168 631.06 501.168 617.56 503.33 617.56 503.33 620.341 503.383 620.341C503.691 619.392 504.161 618.652 504.794 618.12 505.426 617.588 506.134 617.322 506.916 617.322ZM463.916 617.322C464.479 617.322 464.909 617.384 465.208 617.507L465.208 619.748C464.83 619.458 464.285 619.313 463.573 619.313 462.651 619.313 461.879 619.748 461.26 620.618 460.64 621.488 460.33 622.675 460.33 624.178L460.33 631.06 458.168 631.06 458.168 617.56 460.33 617.56 460.33 620.341 460.383 620.341C460.691 619.392 461.161 618.652 461.794 618.12 462.426 617.588 463.134 617.322 463.916 617.322ZM576.468 617.243C578.234 617.243 579.601 617.814 580.568 618.957 581.535 620.1 582.018 621.686 582.018 623.716L582.018 624.85 572.486 624.85C572.522 626.353 572.926 627.513 573.699 628.331 574.473 629.148 575.536 629.557 576.89 629.557 578.41 629.557 579.808 629.056 581.082 628.054L581.082 630.084C579.896 630.945 578.327 631.376 576.376 631.376 574.468 631.376 572.97 630.763 571.88 629.537 570.79 628.311 570.245 626.586 570.245 624.362 570.245 622.262 570.841 620.55 572.032 619.227 573.223 617.904 574.701 617.243 576.468 617.243ZM531.259 617.243C532.445 617.243 533.491 617.463 534.397 617.902L534.397 620.117C533.395 619.414 532.322 619.062 531.18 619.062 529.8 619.062 528.668 619.557 527.785 620.546 526.902 621.534 526.46 622.833 526.46 624.441 526.46 626.023 526.875 627.271 527.706 628.185 528.536 629.1 529.651 629.557 531.048 629.557 532.226 629.557 533.333 629.165 534.37 628.383L534.37 630.44C533.333 631.064 532.103 631.376 530.679 631.376 528.754 631.376 527.201 630.75 526.018 629.497 524.836 628.245 524.245 626.621 524.245 624.626 524.245 622.402 524.882 620.616 526.157 619.267 527.431 617.918 529.132 617.243 531.259 617.243ZM485.545 617.243C486.714 617.243 487.76 617.445 488.683 617.85L488.683 620.038C487.69 619.388 486.547 619.062 485.255 619.062 484.851 619.062 484.486 619.109 484.161 619.201 483.836 619.293 483.557 619.423 483.324 619.59 483.091 619.757 482.911 619.957 482.783 620.19 482.656 620.423 482.592 620.68 482.592 620.961 482.592 621.312 482.656 621.607 482.783 621.844 482.911 622.081 483.097 622.292 483.343 622.477 483.589 622.662 483.888 622.829 484.24 622.978 484.591 623.127 484.991 623.29 485.44 623.466 486.037 623.694 486.573 623.929 487.048 624.171 487.523 624.413 487.927 624.685 488.261 624.988 488.595 625.292 488.852 625.641 489.032 626.037 489.212 626.432 489.302 626.902 489.302 627.447 489.302 628.115 489.155 628.695 488.861 629.187 488.566 629.68 488.173 630.088 487.681 630.414 487.189 630.739 486.622 630.98 485.98 631.139 485.339 631.297 484.666 631.376 483.963 631.376 482.574 631.376 481.37 631.108 480.351 630.572L480.351 628.251C481.528 629.122 482.825 629.557 484.24 629.557 486.138 629.557 487.088 628.924 487.088 627.658 487.088 627.298 487.006 626.992 486.844 626.742 486.681 626.491 486.461 626.269 486.184 626.076 485.908 625.883 485.582 625.709 485.209 625.555 484.835 625.402 484.433 625.241 484.003 625.074 483.405 624.837 482.88 624.597 482.427 624.356 481.975 624.114 481.597 623.841 481.293 623.538 480.99 623.235 480.762 622.89 480.608 622.503 480.454 622.117 480.377 621.664 480.377 621.145 480.377 620.513 480.522 619.952 480.812 619.465 481.102 618.977 481.489 618.568 481.972 618.238 482.456 617.909 483.007 617.661 483.627 617.494 484.246 617.327 484.886 617.243 485.545 617.243ZM472.072 617.243C475.245 617.243 476.832 618.922 476.832 622.279L476.832 631.06 474.67 631.06 474.67 628.95 474.617 628.95C473.676 630.567 472.292 631.376 470.464 631.376 469.119 631.376 468.067 631.02 467.307 630.308 466.546 629.596 466.166 628.651 466.166 627.474 466.166 624.951 467.651 623.483 470.622 623.07L474.67 622.503C474.67 620.209 473.742 619.062 471.888 619.062 470.262 619.062 468.794 619.616 467.484 620.724L467.484 618.509C468.812 617.665 470.341 617.243 472.072 617.243ZM440.813 617.243C442.289 617.243 443.419 617.72 444.201 618.674 444.983 619.627 445.374 621.005 445.374 622.807L445.374 631.06 443.212 631.06 443.212 623.36C443.212 620.495 442.166 619.062 440.074 619.062 438.993 619.062 438.099 619.469 437.391 620.282 436.684 621.095 436.33 622.121 436.33 623.36L436.33 631.06 434.168 631.06 434.168 617.56 436.33 617.56 436.33 619.801 436.383 619.801C437.402 618.096 438.879 617.243 440.813 617.243ZM541.029 613.565 541.029 617.56 544.43 617.56 544.43 619.405 541.029 619.405 541.029 627.012C541.029 627.917 541.183 628.563 541.49 628.95 541.798 629.337 542.308 629.53 543.02 629.53 543.565 629.53 544.035 629.381 544.43 629.082L544.43 630.928C543.921 631.209 543.248 631.35 542.413 631.35 540.049 631.35 538.867 630.031 538.867 627.394L538.867 619.405 536.547 619.405 536.547 617.56 538.867 617.56 538.867 614.264ZM495.029 613.565 495.029 617.56 498.43 617.56 498.43 619.405 495.029 619.405 495.029 627.012C495.029 627.917 495.183 628.563 495.49 628.95 495.798 629.337 496.308 629.53 497.02 629.53 497.565 629.53 498.035 629.381 498.43 629.082L498.43 630.928C497.921 631.209 497.248 631.35 496.413 631.35 494.049 631.35 492.867 630.031 492.867 627.394L492.867 619.405 490.547 619.405 490.547 617.56 492.867 617.56 492.867 614.264ZM427.458 612.154 429.673 612.154 429.673 631.06 427.458 631.06ZM454.27 610.783C454.929 610.783 455.452 610.862 455.839 611.02L455.839 612.972C455.417 612.734 454.938 612.616 454.402 612.616 452.89 612.616 452.134 613.569 452.134 615.477L452.134 617.56 455.298 617.56 455.298 619.405 452.134 619.405 452.134 631.06 449.986 631.06 449.986 619.405 447.678 619.405 447.678 617.56 449.986 617.56 449.986 615.371C449.986 613.956 450.394 612.838 451.212 612.016 452.029 611.194 453.048 610.783 454.27 610.783Z" fill="url(#fill26)" fill-rule="evenodd"/><text fill="#000000" fill-opacity="0" font-family="Arial,Arial_MSFontService,sans-serif" font-size="20.5928" x="427.458" y="628.802">Infrastructure</text><rect x="36" y="652" width="260" height="28" fill="#E6E6E6"/><text fill="#1A1A1A" font-family="Segoe UI,Segoe UI_MSFontService,sans-serif" font-weight="400" font-size="16" transform="translate(89.0909 672)">Runtime Components</text><rect x="374" y="652" width="259" height="28" fill="#E6E6E6"/><text fill="#1A1A1A" font-family="Segoe UI,Segoe UI_MSFontService,sans-serif" font-weight="400" font-size="16" transform="translate(468.286 672)">Compilers</text><rect x="712" y="652" width="259" height="28" fill="#E6E6E6"/><text fill="#1A1A1A" font-family="Segoe UI,Segoe UI_MSFontService,sans-serif" font-weight="400" font-size="16" transform="translate(803.421 672)">Languages</text><rect x="987" y="214" width="257" height="477" fill="#E6E6E6"/><text fill="#1A1A1A" font-family="Arial,Arial_MSFontService,sans-serif" font-weight="400" font-size="15" transform="translate(1006.16 262)"><tspan font-family="Segoe UI,Segoe UI_MSFontService,sans-serif" x="17.9999" y="0">Visual Studio</tspan><tspan x="0" y="44"></tspan><tspan font-family="Segoe UI,Segoe UI_MSFontService,sans-serif" x="17.9999" y="44">Visual</tspan><tspan font-family="Segoe UI,Segoe UI_MSFontService,sans-serif" x="60.1667" y="44">Studio for Mac</tspan><tspan x="0" y="88"></tspan><tspan font-family="Segoe UI,Segoe UI_MSFontService,sans-serif" x="17.9999" y="88">Visual</tspan><tspan font-family="Segoe UI,Segoe UI_MSFontService,sans-serif" x="60.1667" y="88">Studio Code</tspan><tspan x="0" y="132"></tspan><tspan font-family="Segoe UI,Segoe UI_MSFontService,sans-serif" x="17.9999" y="132">Command</tspan><tspan font-family="Segoe UI,Segoe UI_MSFontService,sans-serif" x="85.4999" y="132">-</tspan><tspan font-family="Segoe UI,Segoe UI_MSFontService,sans-serif" x="91.3333" y="132">Line Interface (CLI)</tspan></text><rect x="987" y="171" width="257" height="43" fill="#D73B01"/><text fill="#FFFFFF" font-family="Segoe UI,Segoe UI_MSFontService,sans-serif" font-weight="400" font-size="27" transform="translate(1075.42 202)">TOOLS</text></g></svg>