<svg width="836" height="433" xmlns="http://www.w3.org/2000/svg" xmlns:xlink="http://www.w3.org/1999/xlink" overflow="hidden"><defs><clipPath id="clip0"><path d="M20 170 856 170 856 603 20 603Z" fill-rule="evenodd" clip-rule="evenodd"/></clipPath><linearGradient x1="94.211" y1="303.784" x2="94.211" y2="335.784" gradientUnits="userSpaceOnUse" spreadMethod="reflect" id="fill1"><stop offset="0" stop-color="#FFFFFF"/><stop offset="1" stop-color="#FFFFFF"/></linearGradient><linearGradient x1="231.782" y1="287.784" x2="231.782" y2="319.784" gradientUnits="userSpaceOnUse" spreadMethod="reflect" id="fill2"><stop offset="0" stop-color="#FFFFFF"/><stop offset="1" stop-color="#FFFFFF"/></linearGradient><linearGradient x1="231.778" y1="319.784" x2="231.778" y2="351.784" gradientUnits="userSpaceOnUse" spreadMethod="reflect" id="fill3"><stop offset="0" stop-color="#FFFFFF"/><stop offset="1" stop-color="#FFFFFF"/></linearGradient><linearGradient x1="369.346" y1="303.784" x2="369.346" y2="335.784" gradientUnits="userSpaceOnUse" spreadMethod="reflect" id="fill4"><stop offset="0" stop-color="#FFFFFF"/><stop offset="1" stop-color="#FFFFFF"/></linearGradient><linearGradient x1="506.913" y1="303.784" x2="506.913" y2="335.784" gradientUnits="userSpaceOnUse" spreadMethod="reflect" id="fill5"><stop offset="0" stop-color="#FFFFFF"/><stop offset="1" stop-color="#FFFFFF"/></linearGradient><linearGradient x1="644.481" y1="303.784" x2="644.481" y2="335.784" gradientUnits="userSpaceOnUse" spreadMethod="reflect" id="fill6"><stop offset="0" stop-color="#FFFFFF"/><stop offset="1" stop-color="#FFFFFF"/></linearGradient><linearGradient x1="782.048" y1="303.784" x2="782.048" y2="335.784" gradientUnits="userSpaceOnUse" spreadMethod="reflect" id="fill7"><stop offset="0" stop-color="#FFFFFF"/><stop offset="1" stop-color="#FFFFFF"/></linearGradient><linearGradient x1="438.13" y1="491.416" x2="438.13" y2="568.216" gradientUnits="userSpaceOnUse" spreadMethod="reflect" id="fill8"><stop offset="0" stop-color="#FFFFFF"/><stop offset="1" stop-color="#FFFFFF"/></linearGradient><linearGradient x1="438.13" y1="491.416" x2="438.13" y2="568.216" gradientUnits="userSpaceOnUse" spreadMethod="reflect" id="fill9"><stop offset="0" stop-color="#FFFFFF"/><stop offset="1" stop-color="#FFFFFF"/></linearGradient></defs><g clip-path="url(#clip0)" transform="translate(-20 -170)"><rect x="21" y="171" width="835" height="432" fill="#0C5D0C"/><rect x="27" y="176" width="134" height="288" fill="#107C10"/><path d="M39.2176 327.107C39.6307 327.107 39.9822 327.255 40.2723 327.549 40.5623 327.844 40.7073 328.193 40.7073 328.597 40.7073 329.001 40.5623 329.349 40.2723 329.639 39.9822 329.929 39.6307 330.074 39.2176 330.074 38.8133 330.074 38.4683 329.929 38.1827 329.639 37.897 329.349 37.7542 329.001 37.7542 328.597 37.7542 328.193 37.897 327.844 38.1827 327.549 38.4683 327.255 38.8133 327.107 39.2176 327.107ZM145.726 317.787C144.707 317.787 143.841 318.151 143.129 318.881 142.417 319.61 141.978 320.564 141.811 321.742L149.101 321.742C149.093 320.494 148.792 319.522 148.198 318.828 147.605 318.134 146.781 317.787 145.726 317.787ZM121.267 317.787C119.878 317.787 118.78 318.259 117.971 319.204 117.162 320.149 116.758 321.452 116.758 323.113 116.758 324.712 117.167 325.974 117.984 326.897 118.802 327.819 119.896 328.281 121.267 328.281 122.664 328.281 123.739 327.828 124.49 326.923 125.242 326.018 125.617 324.73 125.617 323.06 125.617 321.373 125.242 320.072 124.49 319.158 123.739 318.244 122.664 317.787 121.267 317.787ZM137.214 316.046C137.777 316.046 138.207 316.108 138.506 316.231L138.506 318.472C138.128 318.182 137.583 318.037 136.871 318.037 135.949 318.037 135.177 318.472 134.558 319.342 133.938 320.212 133.628 321.399 133.628 322.902L133.628 329.784 131.466 329.784 131.466 316.284 133.628 316.284 133.628 319.065 133.681 319.065C133.989 318.116 134.459 317.376 135.092 316.844 135.724 316.312 136.432 316.046 137.214 316.046ZM145.766 315.967C147.533 315.967 148.899 316.539 149.866 317.681 150.833 318.824 151.316 320.41 151.316 322.44L151.316 323.574 141.784 323.574C141.82 325.077 142.224 326.237 142.997 327.055 143.771 327.872 144.834 328.281 146.188 328.281 147.708 328.281 149.106 327.78 150.38 326.778L150.38 328.808C149.194 329.669 147.625 330.1 145.674 330.1 143.766 330.1 142.268 329.487 141.178 328.261 140.088 327.035 139.543 325.31 139.543 323.086 139.543 320.986 140.139 319.274 141.33 317.951 142.521 316.629 143.999 315.967 145.766 315.967ZM121.425 315.967C123.438 315.967 125.009 316.587 126.138 317.826 127.268 319.065 127.832 320.784 127.832 322.981 127.832 325.134 127.224 326.859 126.006 328.156 124.789 329.452 123.157 330.1 121.109 330.1 119.114 330.1 117.521 329.469 116.33 328.208 115.139 326.947 114.543 325.275 114.543 323.192 114.543 320.924 115.163 319.153 116.402 317.879 117.641 316.605 119.316 315.967 121.425 315.967ZM75.8182 310.878 88.9358 310.878 88.9358 312.882 83.4778 312.882 83.4778 329.784 81.263 329.784 81.263 312.882 75.8182 312.882ZM64.7561 310.878 74.3538 310.878 74.3538 312.882 66.971 312.882 66.971 319.171 73.8001 319.171 73.8001 321.162 66.971 321.162 66.971 327.78 74.7757 327.78 74.7757 329.784 64.7561 329.784ZM44.7562 310.878 47.6302 310.878 57.096 325.71C57.4915 326.325 57.7464 326.747 57.8606 326.976L57.9134 326.976C57.8255 326.431 57.7815 325.503 57.7815 324.194L57.7815 310.878 59.9964 310.878 59.9964 329.784 57.2806 329.784 47.5511 314.715C47.305 314.337 47.1028 313.941 46.9446 313.528L46.8655 313.528C46.9358 313.933 46.971 314.798 46.971 316.126L46.971 329.784 44.7562 329.784ZM108.167 310.562C109.96 310.562 111.446 310.821 112.623 311.34L112.623 313.7C111.27 312.944 109.776 312.566 108.141 312.566 105.97 312.566 104.21 313.291 102.861 314.741 101.512 316.191 100.837 318.129 100.837 320.555 100.837 322.858 101.468 324.693 102.729 326.059 103.99 327.426 105.645 328.109 107.693 328.109 109.591 328.109 111.235 327.688 112.623 326.844L112.623 328.993C111.226 329.731 109.486 330.1 107.403 330.1 104.713 330.1 102.56 329.234 100.943 327.503 99.3255 325.772 98.5169 323.5 98.5169 320.687 98.5169 317.664 99.4266 315.22 101.246 313.357 103.065 311.494 105.372 310.562 108.167 310.562Z" fill="url(#fill1)" fill-rule="evenodd"/><text fill="#000000" fill-opacity="0" font-family="Arial,Arial_MSFontService,sans-serif" font-size="19.5381" x="37.7542" y="327.658">.NET Core</text><rect x="165" y="176" width="134" height="288" fill="#107C10"/><path d="M208.028 311.108C208.441 311.108 208.793 311.255 209.083 311.549 209.373 311.844 209.518 312.193 209.518 312.597 209.518 313.002 209.373 313.349 209.083 313.639 208.793 313.929 208.441 314.074 208.028 314.074 207.624 314.074 207.279 313.929 206.993 313.639 206.708 313.349 206.565 313.002 206.565 312.597 206.565 312.193 206.708 311.844 206.993 311.549 207.279 311.255 207.624 311.108 208.028 311.108ZM244.629 294.879 257.747 294.879 257.747 296.882 252.289 296.882 252.289 313.784 250.074 313.784 250.074 296.882 244.629 296.882ZM233.567 294.879 243.165 294.879 243.165 296.882 235.782 296.882 235.782 303.171 242.611 303.171 242.611 305.162 235.782 305.162 235.782 311.78 243.586 311.78 243.586 313.784 233.567 313.784ZM213.567 294.879 216.441 294.879 225.907 309.71C226.302 310.325 226.557 310.747 226.671 310.976L226.724 310.976C226.636 310.431 226.592 309.504 226.592 308.194L226.592 294.879 228.807 294.879 228.807 313.784 226.091 313.784 216.362 298.715C216.116 298.337 215.914 297.942 215.755 297.528L215.676 297.528C215.747 297.933 215.782 298.798 215.782 300.126L215.782 313.784 213.567 313.784Z" fill="url(#fill2)" fill-rule="evenodd"/><text fill="#000000" fill-opacity="0" font-family="Arial,Arial_MSFontService,sans-serif" font-size="19.1953" x="206.565" y="311.674">.NET </text><path d="M198.258 338.955 195.002 339.403C194 339.544 193.244 339.792 192.734 340.148 192.225 340.504 191.97 341.134 191.97 342.04 191.97 342.699 192.205 343.237 192.675 343.655 193.145 344.072 193.772 344.281 194.554 344.281 195.626 344.281 196.512 343.905 197.21 343.154 197.909 342.402 198.258 341.451 198.258 340.299ZM266.558 333.787C265.169 333.787 264.07 334.259 263.262 335.204 262.453 336.149 262.049 337.452 262.049 339.113 262.049 340.713 262.458 341.974 263.275 342.897 264.092 343.819 265.187 344.281 266.558 344.281 267.955 344.281 269.03 343.828 269.781 342.923 270.533 342.018 270.908 340.73 270.908 339.06 270.908 337.373 270.533 336.072 269.781 335.158 269.03 334.244 267.955 333.787 266.558 333.787ZM233.017 333.787C231.998 333.787 231.132 334.151 230.42 334.881 229.708 335.61 229.269 336.564 229.102 337.742L236.392 337.742C236.383 336.494 236.082 335.523 235.489 334.828 234.896 334.134 234.072 333.787 233.017 333.787ZM239.885 332.284 242.152 332.284 244.947 342.435C245.035 342.743 245.097 343.147 245.132 343.648L245.237 343.648C245.264 343.261 245.343 342.848 245.475 342.409L248.586 332.284 250.564 332.284 253.358 342.462C253.446 342.787 253.512 343.191 253.556 343.674L253.662 343.674C253.679 343.332 253.754 342.927 253.886 342.462L256.628 332.284 258.764 332.284 254.716 345.784 252.475 345.784 249.693 336.12C249.588 335.751 249.518 335.334 249.483 334.868L249.43 334.868C249.403 335.184 249.311 335.593 249.153 336.094L246.134 345.784 243.972 345.784ZM282.505 332.047C283.067 332.047 283.498 332.108 283.797 332.231L283.797 334.472C283.419 334.182 282.874 334.037 282.162 334.037 281.239 334.037 280.468 334.472 279.848 335.342 279.229 336.213 278.919 337.399 278.919 338.902L278.919 345.784 276.757 345.784 276.757 332.284 278.919 332.284 278.919 335.066 278.972 335.066C279.279 334.116 279.75 333.376 280.382 332.844 281.015 332.312 281.723 332.047 282.505 332.047ZM187.505 332.047C188.067 332.047 188.498 332.108 188.797 332.231L188.797 334.472C188.419 334.182 187.874 334.037 187.162 334.037 186.239 334.037 185.468 334.472 184.848 335.342 184.229 336.213 183.919 337.399 183.919 338.902L183.919 345.784 181.757 345.784 181.757 332.284 183.919 332.284 183.919 335.066 183.972 335.066C184.279 334.116 184.75 333.376 185.382 332.844 186.015 332.312 186.723 332.047 187.505 332.047ZM266.716 331.967C268.729 331.967 270.3 332.587 271.429 333.826 272.558 335.066 273.123 336.784 273.123 338.981 273.123 341.134 272.514 342.859 271.297 344.156 270.08 345.452 268.447 346.1 266.4 346.1 264.404 346.1 262.811 345.47 261.62 344.208 260.43 342.947 259.834 341.275 259.834 339.192 259.834 336.924 260.454 335.153 261.693 333.879 262.932 332.605 264.607 331.967 266.716 331.967ZM233.057 331.967C234.823 331.967 236.19 332.539 237.157 333.681 238.124 334.824 238.607 336.41 238.607 338.441L238.607 339.574 229.075 339.574C229.11 341.077 229.515 342.237 230.288 343.055 231.062 343.872 232.125 344.281 233.479 344.281 234.999 344.281 236.397 343.78 237.671 342.778L237.671 344.808C236.484 345.67 234.916 346.1 232.964 346.1 231.057 346.1 229.559 345.487 228.469 344.261 227.379 343.035 226.834 341.31 226.834 339.087 226.834 336.986 227.43 335.274 228.62 333.952 229.811 332.629 231.29 331.967 233.057 331.967ZM211.164 331.967C212.087 331.967 212.891 332.224 213.577 332.739 214.262 333.253 214.733 333.927 214.987 334.762 215.989 332.899 217.483 331.967 219.47 331.967 222.441 331.967 223.926 333.8 223.926 337.465L223.926 345.784 221.764 345.784 221.764 338.032C221.764 336.538 221.533 335.457 221.072 334.789 220.61 334.121 219.835 333.787 218.745 333.787 217.822 333.787 217.037 334.209 216.391 335.052 215.745 335.896 215.422 336.907 215.422 338.085L215.422 345.784 213.26 345.784 213.26 337.768C213.26 335.114 212.236 333.787 210.189 333.787 209.239 333.787 208.457 334.184 207.842 334.98 207.227 335.775 206.919 336.81 206.919 338.085L206.919 345.784 204.757 345.784 204.757 332.284 206.919 332.284 206.919 334.42 206.972 334.42C207.93 332.785 209.327 331.967 211.164 331.967ZM195.661 331.967C198.834 331.967 200.421 333.646 200.421 337.004L200.421 345.784 198.258 345.784 198.258 343.674 198.206 343.674C197.265 345.292 195.881 346.1 194.053 346.1 192.708 346.1 191.656 345.744 190.895 345.032 190.135 344.32 189.755 343.376 189.755 342.198 189.755 339.675 191.24 338.208 194.211 337.795L198.258 337.228C198.258 334.934 197.331 333.787 195.477 333.787 193.851 333.787 192.383 334.34 191.073 335.448L191.073 333.233C192.4 332.389 193.93 331.967 195.661 331.967ZM169.047 326.879 178.645 326.879 178.645 328.882 171.262 328.882 171.262 335.422 178.091 335.422 178.091 337.412 171.262 337.412 171.262 345.784 169.047 345.784ZM285.757 325.797 287.919 325.797 287.919 338.467 287.972 338.467 293.641 332.284 296.475 332.284 290.213 338.797 296.963 345.784 293.931 345.784 287.972 339.297 287.919 339.297 287.919 345.784 285.757 345.784Z" fill="url(#fill3)" fill-rule="evenodd"/><text fill="#000000" fill-opacity="0" font-family="Arial,Arial_MSFontService,sans-serif" font-size="20.3027" x="169.047" y="343.562">Framework</text><rect x="302" y="176" width="135" height="288" fill="#107C10"/><path d="M397.085 317.787C395.696 317.787 394.598 318.259 393.789 319.204 392.981 320.149 392.576 321.452 392.576 323.113 392.576 324.713 392.985 325.974 393.802 326.897 394.62 327.819 395.714 328.281 397.085 328.281 398.483 328.281 399.557 327.828 400.309 326.923 401.06 326.018 401.436 324.73 401.436 323.06 401.436 321.373 401.06 320.072 400.309 319.158 399.557 318.244 398.483 317.787 397.085 317.787ZM366.085 317.787C364.697 317.787 363.598 318.259 362.789 319.204 361.981 320.149 361.576 321.452 361.576 323.113 361.576 324.713 361.985 325.974 362.802 326.897 363.62 327.819 364.714 328.281 366.085 328.281 367.483 328.281 368.557 327.828 369.309 326.923 370.06 326.018 370.436 324.73 370.436 323.06 370.436 321.373 370.06 320.072 369.309 319.158 368.557 318.244 367.483 317.787 366.085 317.787ZM397.243 315.967C399.256 315.967 400.827 316.587 401.957 317.826 403.086 319.066 403.651 320.784 403.651 322.981 403.651 325.134 403.042 326.859 401.825 328.156 400.607 329.452 398.975 330.1 396.927 330.1 394.932 330.1 393.339 329.47 392.148 328.208 390.957 326.947 390.362 325.275 390.362 323.192 390.362 320.924 390.981 319.153 392.22 317.879 393.46 316.605 395.134 315.967 397.243 315.967ZM382.929 315.967C384.405 315.967 385.535 316.444 386.317 317.398 387.099 318.351 387.49 319.729 387.49 321.531L387.49 329.784 385.328 329.784 385.328 322.085C385.328 319.219 384.282 317.787 382.191 317.787 381.11 317.787 380.215 318.193 379.508 319.006 378.8 319.819 378.446 320.845 378.446 322.085L378.446 329.784 376.284 329.784 376.284 316.284 378.446 316.284 378.446 318.525 378.499 318.525C379.519 316.82 380.995 315.967 382.929 315.967ZM366.243 315.967C368.256 315.967 369.827 316.587 370.957 317.826 372.086 319.066 372.651 320.784 372.651 322.981 372.651 325.134 372.042 326.859 370.825 328.156 369.607 329.452 367.975 330.1 365.927 330.1 363.932 330.1 362.339 329.47 361.148 328.208 359.957 326.947 359.362 325.275 359.362 323.192 359.362 320.924 359.981 319.153 361.22 317.879 362.46 316.605 364.134 315.967 366.243 315.967ZM336.574 310.879 339.501 310.879 345.302 324.062C345.75 325.073 346.04 325.829 346.172 326.33L346.251 326.33C346.629 325.293 346.932 324.519 347.161 324.009L353.08 310.879 355.849 310.879 355.849 329.784 353.647 329.784 353.647 317.101C353.647 316.099 353.709 314.873 353.832 313.423L353.779 313.423C353.568 314.276 353.379 314.886 353.212 315.255L346.752 329.784 345.671 329.784 339.224 315.361C339.04 314.939 338.851 314.293 338.657 313.423L338.605 313.423C338.675 314.179 338.71 315.414 338.71 317.128L338.71 329.784 336.574 329.784Z" fill="url(#fill4)" fill-rule="evenodd"/><text fill="#000000" fill-opacity="0" font-family="Arial,Arial_MSFontService,sans-serif" font-size="19.2217" x="336.574" y="327.698">Mono</text><rect x="440" y="176" width="134" height="288" fill="#107C10"/><path d="M520.27 322.955 517.014 323.403C516.012 323.544 515.256 323.792 514.746 324.148 514.236 324.504 513.981 325.134 513.981 326.04 513.981 326.699 514.216 327.237 514.687 327.655 515.157 328.072 515.783 328.281 516.565 328.281 517.638 328.281 518.523 327.905 519.222 327.154 519.921 326.402 520.27 325.451 520.27 324.299ZM484.27 322.955 481.014 323.403C480.012 323.544 479.256 323.792 478.746 324.148 478.236 324.504 477.981 325.134 477.981 326.04 477.981 326.699 478.216 327.237 478.687 327.655 479.157 328.072 479.783 328.281 480.565 328.281 481.638 328.281 482.523 327.905 483.222 327.154 483.921 326.402 484.27 325.451 484.27 324.299ZM535.768 316.284 537.931 316.284 537.931 329.784 535.768 329.784ZM532.516 316.047C533.079 316.047 533.51 316.108 533.809 316.231L533.809 318.472C533.431 318.182 532.886 318.037 532.174 318.037 531.251 318.037 530.48 318.472 529.86 319.342 529.24 320.213 528.931 321.399 528.931 322.902L528.931 329.784 526.768 329.784 526.768 316.284 528.931 316.284 528.931 319.066 528.983 319.066C529.291 318.116 529.761 317.376 530.394 316.844 531.027 316.312 531.734 316.047 532.516 316.047ZM549.413 315.967C550.89 315.967 552.019 316.444 552.801 317.398 553.583 318.351 553.974 319.729 553.974 321.531L553.974 329.784 551.812 329.784 551.812 322.085C551.812 319.219 550.766 317.787 548.675 317.787 547.594 317.787 546.699 318.193 545.992 319.006 545.284 319.819 544.931 320.845 544.931 322.085L544.931 329.784 542.768 329.784 542.768 316.284 544.931 316.284 544.931 318.525 544.983 318.525C546.003 316.82 547.479 315.967 549.413 315.967ZM517.673 315.967C520.846 315.967 522.432 317.646 522.432 321.004L522.432 329.784 520.27 329.784 520.27 327.674 520.217 327.674C519.277 329.292 517.893 330.1 516.064 330.1 514.72 330.1 513.667 329.744 512.907 329.032 512.147 328.32 511.767 327.376 511.767 326.198 511.767 323.675 513.252 322.208 516.223 321.795L520.27 321.228C520.27 318.934 519.343 317.787 517.488 317.787 515.862 317.787 514.394 318.34 513.085 319.448L513.085 317.233C514.412 316.389 515.941 315.967 517.673 315.967ZM496.176 315.967C497.099 315.967 497.903 316.224 498.588 316.739 499.274 317.253 499.744 317.927 499.999 318.762 501.001 316.899 502.495 315.967 504.481 315.967 507.452 315.967 508.937 317.8 508.937 321.465L508.937 329.784 506.775 329.784 506.775 322.032C506.775 320.538 506.545 319.457 506.083 318.789 505.622 318.121 504.846 317.787 503.756 317.787 502.833 317.787 502.049 318.209 501.403 319.052 500.757 319.896 500.434 320.907 500.434 322.085L500.434 329.784 498.272 329.784 498.272 321.768C498.272 319.114 497.248 317.787 495.2 317.787 494.251 317.787 493.469 318.184 492.853 318.98 492.238 319.775 491.931 320.81 491.931 322.085L491.931 329.784 489.768 329.784 489.768 316.284 491.931 316.284 491.931 318.42 491.983 318.42C492.941 316.785 494.339 315.967 496.176 315.967ZM481.673 315.967C484.846 315.967 486.432 317.646 486.432 321.004L486.432 329.784 484.27 329.784 484.27 327.674 484.217 327.674C483.277 329.292 481.892 330.1 480.064 330.1 478.72 330.1 477.667 329.744 476.907 329.032 476.147 328.32 475.767 327.376 475.767 326.198 475.767 323.675 477.252 322.208 480.223 321.795L484.27 321.228C484.27 318.934 483.343 317.787 481.488 317.787 479.862 317.787 478.394 318.34 477.085 319.448L477.085 317.233C478.412 316.389 479.941 315.967 481.673 315.967ZM459.424 310.879 462.14 310.879 466.002 317.523C466.257 317.963 466.481 318.402 466.675 318.841L466.727 318.841C467.009 318.261 467.255 317.804 467.466 317.47L471.487 310.879 474.031 310.879 468.085 320.252 474.11 329.784 471.408 329.784 467.057 322.546C466.925 322.326 466.78 322.014 466.622 321.61L466.569 321.61C466.481 321.812 466.332 322.124 466.121 322.546L461.639 329.784 458.923 329.784 465.251 320.278ZM536.876 310.048C537.271 310.048 537.608 310.182 537.884 310.45 538.161 310.718 538.3 311.054 538.3 311.459 538.3 311.845 538.161 312.175 537.884 312.447 537.608 312.72 537.271 312.856 536.876 312.856 536.489 312.856 536.16 312.724 535.887 312.461 535.615 312.197 535.478 311.863 535.478 311.459 535.478 311.054 535.615 310.718 535.887 310.45 536.16 310.182 536.489 310.048 536.876 310.048Z" fill="url(#fill5)" fill-rule="evenodd"/><text fill="#000000" fill-opacity="0" font-family="Arial,Arial_MSFontService,sans-serif" font-size="20.0522" x="458.923" y="327.594">Xamarin</text><rect x="577" y="176" width="135" height="288" fill="#107C10"/><path d="M663.091 312.882 663.091 320.634 665.411 320.634C666.94 320.634 668.107 320.285 668.911 319.586 669.716 318.888 670.118 317.901 670.118 316.627 670.118 314.13 668.641 312.882 665.688 312.882ZM660.876 310.879 666.07 310.879C668.092 310.879 669.658 311.371 670.77 312.355 671.882 313.339 672.438 314.728 672.438 316.521 672.438 318.314 671.821 319.782 670.586 320.924 669.351 322.067 667.683 322.638 665.583 322.638L663.091 322.638 663.091 329.784 660.876 329.784ZM633.74 310.879 636.179 310.879 640.2 325.38C640.367 325.987 640.473 326.62 640.517 327.279L640.583 327.279C640.626 326.813 640.763 326.18 640.991 325.38L645.17 310.879 647.293 310.879 651.301 325.486C651.441 325.987 651.547 326.576 651.617 327.253L651.67 327.253C651.705 326.796 651.824 326.189 652.026 325.433L655.889 310.879 658.288 310.879 652.949 329.784 650.352 329.784 646.462 315.967C646.295 315.379 646.194 314.737 646.159 314.043L646.106 314.043C646.054 314.693 645.939 315.326 645.764 315.941L641.848 329.784 639.277 329.784ZM617.639 310.879 619.854 310.879 619.854 322.296C619.854 326.172 621.488 328.109 624.758 328.109 627.913 328.109 629.491 326.237 629.491 322.493L629.491 310.879 631.706 310.879 631.706 322.137C631.706 327.446 629.311 330.1 624.521 330.1 619.933 330.1 617.639 327.547 617.639 322.441Z" fill="url(#fill6)" fill-rule="evenodd"/><text fill="#000000" fill-opacity="0" font-family="Arial,Arial_MSFontService,sans-serif" font-size="19.2217" x="617.639" y="327.698">UWP</text><rect x="715" y="176" width="134" height="288" fill="#107C10"/><path d="M800.316 316.284 802.716 316.284 806.367 326.672C806.411 326.804 806.504 327.147 806.644 327.701L806.723 327.701C806.767 327.49 806.855 327.156 806.987 326.699L810.823 316.284 813.065 316.284 806.855 331.946C805.748 334.741 804.192 336.138 802.188 336.138 801.626 336.138 801.156 336.081 800.778 335.967L800.778 334.029C801.243 334.187 801.67 334.266 802.056 334.266 803.146 334.266 803.964 333.616 804.509 332.315L805.59 329.757ZM787.32 316.284 789.482 316.284 789.482 329.784 787.32 329.784ZM777.965 315.967C779.441 315.967 780.571 316.444 781.353 317.398 782.135 318.351 782.526 319.729 782.526 321.531L782.526 329.784 780.364 329.784 780.364 322.085C780.364 319.219 779.318 317.787 777.226 317.787 776.145 317.787 775.251 318.193 774.543 319.006 773.836 319.819 773.482 320.845 773.482 322.085L773.482 329.784 771.32 329.784 771.32 316.284 773.482 316.284 773.482 318.525 773.535 318.525C774.554 316.82 776.031 315.967 777.965 315.967ZM796.181 312.289 796.181 316.284 799.582 316.284 799.582 318.13 796.181 318.13 796.181 325.736C796.181 326.642 796.335 327.288 796.642 327.674 796.95 328.061 797.46 328.255 798.172 328.255 798.717 328.255 799.187 328.105 799.582 327.806L799.582 329.652C799.073 329.933 798.4 330.074 797.565 330.074 795.201 330.074 794.019 328.755 794.019 326.119L794.019 318.13 791.698 318.13 791.698 316.284 794.019 316.284 794.019 312.988ZM753.373 310.879 755.588 310.879 755.588 322.296C755.588 326.172 757.222 328.109 760.492 328.109 763.647 328.109 765.225 326.237 765.225 322.493L765.225 310.879 767.44 310.879 767.44 322.137C767.44 327.446 765.045 330.1 760.255 330.1 755.667 330.1 753.373 327.547 753.373 322.441ZM788.427 310.048C788.823 310.048 789.159 310.182 789.436 310.45 789.713 310.718 789.851 311.054 789.851 311.459 789.851 311.845 789.713 312.175 789.436 312.447 789.159 312.72 788.823 312.856 788.427 312.856 788.041 312.856 787.711 312.724 787.439 312.461 787.166 312.197 787.03 311.863 787.03 311.459 787.03 311.054 787.166 310.718 787.439 310.45 787.711 310.182 788.041 310.048 788.427 310.048Z" fill="url(#fill7)" fill-rule="evenodd"/><text fill="#000000" fill-opacity="0" font-family="Arial,Arial_MSFontService,sans-serif" font-size="26.0903" x="753.373" y="332.877">Unity</text><rect x="27" y="467" width="822" height="125" fill="#083E08"/><path d="M246.738 547.072C247.718 547.072 248.551 547.421 249.238 548.119 249.926 548.817 250.27 549.645 250.27 550.604 250.27 551.562 249.926 552.385 249.238 553.072 248.551 553.76 247.718 554.104 246.738 554.104 245.78 554.104 244.962 553.76 244.285 553.072 243.608 552.385 243.27 551.562 243.27 550.604 243.27 549.645 243.608 548.817 244.285 548.119 244.962 547.421 245.78 547.072 246.738 547.072ZM335.051 508.604 366.145 508.604 366.145 513.354 353.207 513.354 353.207 553.416 347.957 553.416 347.957 513.354 335.051 513.354ZM307.645 508.604 330.395 508.604 330.395 513.354 312.895 513.354 312.895 528.26 329.082 528.26 329.082 532.979 312.895 532.979 312.895 548.666 331.395 548.666 331.395 553.416 307.645 553.416ZM259.645 508.604 266.457 508.604 288.895 543.76C289.832 545.218 290.436 546.218 290.707 546.76L290.832 546.76C290.624 545.468 290.52 543.27 290.52 540.166L290.52 508.604 295.77 508.604 295.77 553.416 289.332 553.416 266.27 517.697C265.686 516.802 265.207 515.864 264.832 514.885L264.645 514.885C264.811 515.843 264.895 517.895 264.895 521.041L264.895 553.416 259.645 553.416Z" fill="url(#fill8)" fill-rule="evenodd"/><text fill="#000000" fill-opacity="0" font-family="Arial,Arial_MSFontService,sans-serif" font-size="45.5" x="243.27" y="548.416">.NET </text><path d="M567.865 537.229 560.146 538.291C557.771 538.625 555.98 539.213 554.771 540.057 553.563 540.901 552.959 542.395 552.959 544.541 552.959 546.104 553.516 547.38 554.631 548.369 555.745 549.359 557.23 549.854 559.084 549.854 561.625 549.854 563.724 548.963 565.381 547.182 567.037 545.401 567.865 543.145 567.865 540.416ZM461.865 537.229 454.146 538.291C451.771 538.625 449.98 539.213 448.771 540.057 447.563 540.901 446.959 542.395 446.959 544.541 446.959 546.104 447.516 547.38 448.631 548.369 449.745 549.359 451.23 549.854 453.084 549.854 455.625 549.854 457.724 548.963 459.381 547.182 461.037 545.401 461.865 543.145 461.865 540.416ZM617.209 524.979C614.084 524.979 611.625 526.125 609.834 528.416 608.042 530.708 607.146 533.875 607.146 537.916 607.146 541.604 608.006 544.515 609.724 546.651 611.443 548.786 613.75 549.854 616.646 549.854 619.5 549.854 621.818 548.822 623.599 546.76 625.381 544.697 626.271 542.093 626.271 538.947L626.271 534.229C626.271 531.645 625.417 529.458 623.709 527.666 622 525.875 619.834 524.979 617.209 524.979ZM525.209 524.979C522.084 524.979 519.625 526.125 517.834 528.416 516.042 530.708 515.146 533.875 515.146 537.916 515.146 541.604 516.006 544.515 517.724 546.651 519.443 548.786 521.75 549.854 524.646 549.854 527.5 549.854 529.818 548.822 531.599 546.76 533.381 544.697 534.271 542.093 534.271 538.947L534.271 534.229C534.271 531.645 533.417 529.458 531.709 527.666 530 525.875 527.834 524.979 525.209 524.979ZM595.709 520.854C597.042 520.854 598.063 521 598.771 521.291L598.771 526.604C597.875 525.916 596.584 525.572 594.896 525.572 592.709 525.572 590.881 526.604 589.412 528.666 587.943 530.729 587.209 533.541 587.209 537.104L587.209 553.416 582.084 553.416 582.084 521.416 587.209 521.416 587.209 528.01 587.334 528.01C588.063 525.76 589.178 524.005 590.678 522.744 592.178 521.484 593.855 520.854 595.709 520.854ZM561.709 520.666C569.23 520.666 572.99 524.645 572.99 532.604L572.99 553.416 567.865 553.416 567.865 548.416 567.74 548.416C565.511 552.25 562.23 554.166 557.896 554.166 554.709 554.166 552.214 553.322 550.412 551.635 548.61 549.947 547.709 547.708 547.709 544.916 547.709 538.937 551.23 535.458 558.271 534.479L567.865 533.135C567.865 527.697 565.667 524.979 561.271 524.979 557.417 524.979 553.938 526.291 550.834 528.916L550.834 523.666C553.98 521.666 557.605 520.666 561.709 520.666ZM491.834 520.666C495.334 520.666 498.011 521.796 499.865 524.057 501.719 526.317 502.646 529.583 502.646 533.854L502.646 553.416 497.521 553.416 497.521 535.166C497.521 528.375 495.042 524.979 490.084 524.979 487.521 524.979 485.401 525.942 483.724 527.869 482.047 529.796 481.209 532.229 481.209 535.166L481.209 553.416 476.084 553.416 476.084 521.416 481.209 521.416 481.209 526.729 481.334 526.729C483.75 522.687 487.25 520.666 491.834 520.666ZM455.709 520.666C463.23 520.666 466.99 524.645 466.99 532.604L466.99 553.416 461.865 553.416 461.865 548.416 461.74 548.416C459.511 552.25 456.23 554.166 451.896 554.166 448.709 554.166 446.214 553.322 444.412 551.635 442.61 549.947 441.709 547.708 441.709 544.916 441.709 538.937 445.23 535.458 452.271 534.479L461.865 533.135C461.865 527.697 459.667 524.979 455.271 524.979 451.417 524.979 447.938 526.291 444.834 528.916L444.834 523.666C447.98 521.666 451.605 520.666 455.709 520.666ZM428.865 511.947 428.865 521.416 436.928 521.416 436.928 525.791 428.865 525.791 428.865 543.822C428.865 545.968 429.23 547.5 429.959 548.416 430.688 549.333 431.896 549.791 433.584 549.791 434.875 549.791 435.99 549.437 436.928 548.729L436.928 553.104C435.719 553.77 434.125 554.104 432.146 554.104 426.542 554.104 423.74 550.979 423.74 544.729L423.74 525.791 418.24 525.791 418.24 521.416 423.74 521.416 423.74 513.604ZM404.303 507.854C408.719 507.854 411.938 508.385 413.959 509.447L413.959 515.354C411.313 513.52 407.917 512.604 403.771 512.604 402.625 512.604 401.48 512.723 400.334 512.963 399.188 513.203 398.167 513.593 397.271 514.135 396.375 514.677 395.646 515.375 395.084 516.229 394.521 517.083 394.24 518.125 394.24 519.354 394.24 520.5 394.454 521.489 394.881 522.322 395.308 523.156 395.938 523.916 396.771 524.604 397.605 525.291 398.62 525.958 399.818 526.604 401.016 527.25 402.396 527.958 403.959 528.729 405.563 529.52 407.084 530.354 408.521 531.229 409.959 532.104 411.219 533.072 412.303 534.135 413.386 535.197 414.245 536.375 414.881 537.666 415.516 538.958 415.834 540.437 415.834 542.104 415.834 544.312 415.401 546.182 414.537 547.713 413.672 549.244 412.506 550.489 411.037 551.447 409.568 552.406 407.875 553.098 405.959 553.526 404.042 553.953 402.021 554.166 399.896 554.166 399.188 554.166 398.313 554.109 397.271 553.994 396.23 553.88 395.167 553.713 394.084 553.494 393 553.276 391.974 553.005 391.006 552.682 390.037 552.359 389.261 552 388.678 551.604L388.678 545.416C389.386 546.041 390.235 546.604 391.224 547.104 392.214 547.604 393.256 548.026 394.349 548.369 395.443 548.713 396.542 548.979 397.646 549.166 398.75 549.354 399.771 549.447 400.709 549.447 403.938 549.447 406.349 548.848 407.943 547.651 409.537 546.453 410.334 544.729 410.334 542.479 410.334 541.27 410.068 540.218 409.537 539.322 409.006 538.427 408.271 537.609 407.334 536.869 406.396 536.13 405.287 535.421 404.006 534.744 402.724 534.067 401.344 533.354 399.865 532.604 398.303 531.812 396.844 531.01 395.49 530.197 394.136 529.385 392.959 528.489 391.959 527.51 390.959 526.531 390.172 525.421 389.599 524.182 389.026 522.942 388.74 521.489 388.74 519.822 388.74 517.781 389.188 516.005 390.084 514.494 390.98 512.984 392.157 511.739 393.615 510.76 395.073 509.781 396.735 509.052 398.599 508.572 400.464 508.093 402.365 507.854 404.303 507.854ZM626.271 506.041 631.396 506.041 631.396 553.416 626.271 553.416 626.271 547.979 626.146 547.979C623.771 552.104 620.105 554.166 615.146 554.166 611.125 554.166 607.912 552.734 605.506 549.869 603.099 547.005 601.896 543.104 601.896 538.166 601.896 532.875 603.23 528.635 605.896 525.447 608.563 522.26 612.115 520.666 616.553 520.666 620.948 520.666 624.146 522.395 626.146 525.854L626.271 525.854ZM534.271 506.041 539.396 506.041 539.396 553.416 534.271 553.416 534.271 547.979 534.146 547.979C531.771 552.104 528.105 554.166 523.146 554.166 519.125 554.166 515.912 552.734 513.506 549.869 511.099 547.005 509.896 543.104 509.896 538.166 509.896 532.875 511.23 528.635 513.896 525.447 516.563 522.26 520.115 520.666 524.553 520.666 528.948 520.666 532.146 522.395 534.146 525.854L534.271 525.854Z" fill="url(#fill9)" fill-rule="evenodd"/><text fill="#000000" fill-opacity="0" font-family="Arial,Arial_MSFontService,sans-serif" font-size="48.125" x="388.678" y="548.151">Standard</text></g></svg>