<svg width="1295" height="598" xmlns="http://www.w3.org/2000/svg" xmlns:xlink="http://www.w3.org/1999/xlink" overflow="hidden"><defs><clipPath id="clip0"><path d="M-1 71 1294 71 1294 669-1 669Z" fill-rule="evenodd" clip-rule="evenodd"/></clipPath><linearGradient x1="139.812" y1="156.296" x2="117.184" y2="178.923" gradientUnits="userSpaceOnUse" spreadMethod="reflect" id="fill1"><stop offset="0" stop-color="#FFFFFF"/><stop offset="1" stop-color="#FFFFFF"/></linearGradient><linearGradient x1="110.839" y1="172.578" x2="88.2117" y2="195.205" gradientUnits="userSpaceOnUse" spreadMethod="reflect" id="fill2"><stop offset="0" stop-color="#FFFFFF"/><stop offset="1" stop-color="#FFFFFF"/></linearGradient><linearGradient x1="565.541" y1="156.296" x2="542.914" y2="178.923" gradientUnits="userSpaceOnUse" spreadMethod="reflect" id="fill3"><stop offset="0" stop-color="#FFFFFF"/><stop offset="1" stop-color="#FFFFFF"/></linearGradient><linearGradient x1="529.439" y1="165.448" x2="506.811" y2="188.075" gradientUnits="userSpaceOnUse" spreadMethod="reflect" id="fill4"><stop offset="0" stop-color="#FFFFFF"/><stop offset="1" stop-color="#FFFFFF"/></linearGradient><linearGradient x1="991.271" y1="156.296" x2="968.644" y2="178.923" gradientUnits="userSpaceOnUse" spreadMethod="reflect" id="fill5"><stop offset="0" stop-color="#FFFFFF"/><stop offset="1" stop-color="#FFFFFF"/></linearGradient><linearGradient x1="955.169" y1="165.448" x2="932.541" y2="188.075" gradientUnits="userSpaceOnUse" spreadMethod="reflect" id="fill6"><stop offset="0" stop-color="#FFFFFF"/><stop offset="1" stop-color="#FFFFFF"/></linearGradient><linearGradient x1="297.299" y1="558.052" x2="319.926" y2="580.679" gradientUnits="userSpaceOnUse" spreadMethod="reflect" id="fill7"><stop offset="0" stop-color="#FFFFFF"/><stop offset="1" stop-color="#FFFFFF"/></linearGradient><linearGradient x1="313.581" y1="587.024" x2="336.208" y2="609.652" gradientUnits="userSpaceOnUse" spreadMethod="reflect" id="fill8"><stop offset="0" stop-color="#FFFFFF"/><stop offset="1" stop-color="#FFFFFF"/></linearGradient><linearGradient x1="732.246" y1="558.052" x2="754.874" y2="580.679" gradientUnits="userSpaceOnUse" spreadMethod="reflect" id="fill9"><stop offset="0" stop-color="#FFFFFF"/><stop offset="1" stop-color="#FFFFFF"/></linearGradient><linearGradient x1="748.529" y1="587.024" x2="771.156" y2="609.652" gradientUnits="userSpaceOnUse" spreadMethod="reflect" id="fill10"><stop offset="0" stop-color="#FFFFFF"/><stop offset="1" stop-color="#FFFFFF"/></linearGradient></defs><g clip-path="url(#clip0)" transform="translate(1 -71)"><rect x="0" y="72" width="1280" height="204" fill="#F2F2F2"/><text fill="#737373" font-family="Segoe UI,Segoe UI_MSFontService,sans-serif" font-weight="400" font-size="37" transform="translate(1205.93 165)">LTS <tspan x="-84.6866" y="45">Releases</tspan></text><path d="M85 321.751 1089.5 321.751 1089.5 269 1195 374.5 1089.5 480 1089.5 427.251 85 427.251Z" fill="#ABABAB" fill-rule="evenodd"/><path d="M131 374C131 358.536 143.536 346 159 346 174.464 346 187 358.536 187 374 187 389.464 174.464 402 159 402 143.536 402 131 389.464 131 374Z" fill="#3A3A3A" fill-rule="evenodd"/><path d="M344 374C344 358.536 356.536 346 372 346 387.464 346 400 358.536 400 374 400 389.464 387.464 402 372 402 356.536 402 344 389.464 344 374Z" fill="#3A3A3A" fill-rule="evenodd"/><path d="M982 374C982 358.536 994.536 346 1010 346 1025.46 346 1038 358.536 1038 374 1038 389.464 1025.46 402 1010 402 994.536 402 982 389.464 982 374Z" fill="#3A3A3A" fill-rule="evenodd"/><path d="M557 374C557 358.536 569.536 346 585 346 600.464 346 613 358.536 613 374 613 389.464 600.464 402 585 402 569.536 402 557 389.464 557 374Z" fill="#3A3A3A" fill-rule="evenodd"/><path d="M770 374C770 358.536 782.312 346 797.5 346 812.688 346 825 358.536 825 374 825 389.464 812.688 402 797.5 402 782.312 402 770 389.464 770 374Z" fill="#3A3A3A" fill-rule="evenodd"/><path d="M97.0859 91.8475 198.909 193.671 198.909 261.553 131.027 261.553 29.2036 159.73Z" fill="#107C10" fill-rule="evenodd"/><path d="M109.691 145.978C108.709 144.996 107.598 144.553 106.358 144.65 105.118 144.746 103.911 145.381 102.737 146.556 101.606 147.687 101.003 148.868 100.928 150.099 100.854 151.329 101.301 152.429 102.271 153.399 103.259 154.387 104.339 154.826 105.51 154.718 106.681 154.609 107.858 153.964 109.038 152.783 110.232 151.59 110.886 150.405 111.001 149.227 111.116 148.049 110.679 146.966 109.691 145.978ZM116.549 150.71 118.227 152.388 113.715 161.748C113.385 162.438 113.053 162.994 112.717 163.416L112.755 163.454C113.295 163.037 113.827 162.705 114.349 162.456L123.857 158.019 125.47 159.632 112.121 165.374 110.62 163.873ZM111.089 144.803C112.513 146.227 113.185 147.776 113.108 149.451 113.03 151.126 112.214 152.74 110.661 154.294 109.138 155.816 107.488 156.605 105.71 156.661 103.933 156.717 102.32 156.021 100.872 154.573 99.4614 153.162 98.7809 151.59 98.8306 149.856 98.8803 148.122 99.6417 146.519 101.115 145.046 102.718 143.442 104.408 142.628 106.186 142.603 107.963 142.579 109.598 143.312 111.089 144.803ZM168.759 197.421C168.393 197.054 167.978 196.785 167.515 196.614 167.052 196.444 166.572 196.374 166.074 196.405 165.577 196.436 165.08 196.566 164.583 196.796 164.086 197.026 163.623 197.356 163.194 197.784 162.722 198.257 162.363 198.743 162.117 199.243 161.872 199.744 161.738 200.241 161.716 200.735 161.695 201.229 161.782 201.711 161.977 202.18 162.173 202.649 162.473 203.086 162.877 203.49 163.231 203.844 163.632 204.111 164.08 204.291 164.527 204.471 164.981 204.565 165.441 204.571 165.9 204.577 166.351 204.493 166.792 204.319 167.234 204.145 167.631 203.881 167.986 203.527 168.501 203.011 168.904 202.475 169.193 201.919 169.482 201.363 169.659 200.816 169.724 200.278 169.789 199.74 169.741 199.226 169.58 198.735 169.418 198.244 169.145 197.806 168.759 197.421ZM148.44 177.101C146.532 175.193 143.642 176.175 139.77 180.047 136.159 183.658 135.289 186.398 137.16 188.269 139.006 190.115 141.768 189.198 145.447 185.519 149.251 181.716 150.248 178.91 148.44 177.101ZM96.537 123.054 98.5693 125.087 94.7751 142.268C94.6198 142.982 94.5017 143.461 94.4209 143.703L94.4582 143.74C94.7813 143.293 95.4059 142.606 96.3319 141.68L105.747 132.265 107.313 133.831 93.9454 147.199 92.0251 145.279 95.8006 127.744C95.8938 127.302 96.0305 126.88 96.2107 126.476L96.1548 126.42C95.9186 126.755 95.3313 127.392 94.3929 128.331L84.7351 137.989 83.169 136.422ZM170.186 196.256C170.857 196.927 171.317 197.657 171.565 198.446 171.814 199.236 171.856 200.067 171.691 200.94 171.526 201.813 171.158 202.722 170.586 203.667 170.015 204.611 169.241 205.572 168.265 206.547 167.041 207.772 165.831 208.74 164.634 209.451 163.438 210.163 162.276 210.616 161.148 210.812 160.02 211.008 158.948 210.943 157.932 210.616 156.915 210.29 155.979 209.698 155.121 208.84 154.238 207.958 153.617 207.026 153.256 206.044L154.72 204.58C155.043 205.736 155.624 206.734 156.463 207.573 157.066 208.176 157.73 208.59 158.454 208.817 159.178 209.044 159.942 209.084 160.747 208.938 161.552 208.792 162.389 208.458 163.259 207.936 164.129 207.414 165.015 206.703 165.916 205.801L165.879 205.764C164.157 206.342 162.588 205.923 161.171 204.506 160.599 203.934 160.175 203.308 159.898 202.627 159.622 201.947 159.495 201.248 159.516 200.53 159.538 199.812 159.707 199.102 160.024 198.4 160.341 197.697 160.807 197.039 161.423 196.423 162.081 195.765 162.792 195.269 163.553 194.936 164.314 194.604 165.083 194.431 165.86 194.419 166.637 194.407 167.397 194.554 168.139 194.862 168.882 195.169 169.564 195.634 170.186 196.256ZM149.81 175.88C152.613 178.683 151.73 182.368 147.162 186.936 146.044 188.055 144.952 188.945 143.886 189.607 142.82 190.269 141.799 190.705 140.823 190.917 139.848 191.128 138.928 191.109 138.064 190.861 137.2 190.612 136.414 190.134 135.705 189.425 135.034 188.754 134.584 188.008 134.354 187.188 134.124 186.367 134.111 185.494 134.316 184.568 134.522 183.642 134.943 182.674 135.58 181.664 136.217 180.654 137.067 179.618 138.129 178.555 139.298 177.387 140.427 176.453 141.518 175.754 142.609 175.055 143.646 174.592 144.632 174.365 145.617 174.138 146.544 174.152 147.414 174.407 148.284 174.662 149.083 175.153 149.81 175.88ZM139.528 165.598C140.075 166.145 140.502 166.731 140.81 167.355 141.118 167.98 141.29 168.616 141.327 169.262 141.365 169.908 141.258 170.553 141.006 171.196 140.754 171.839 140.339 172.45 139.761 173.028 139.233 173.556 138.694 173.974 138.144 174.282 137.594 174.589 137.007 174.81 136.382 174.944 135.757 175.077 135.085 175.132 134.364 175.107 133.643 175.082 132.85 174.998 131.987 174.855 130.911 174.675 130.012 174.54 129.288 174.45 128.564 174.36 127.944 174.333 127.428 174.37 126.912 174.408 126.468 174.516 126.095 174.697 125.722 174.877 125.355 175.147 124.995 175.508L131.651 182.164 130.281 183.534 122.031 175.284 122.692 174.622C123.264 174.05 123.83 173.609 124.389 173.298 124.948 172.988 125.567 172.779 126.244 172.674 126.922 172.568 127.688 172.551 128.542 172.623 129.397 172.694 130.405 172.82 131.567 173 132.4 173.137 133.138 173.21 133.781 173.219 134.424 173.228 135.004 173.174 135.52 173.056 136.036 172.938 136.499 172.758 136.909 172.515 137.319 172.273 137.707 171.968 138.074 171.602 138.484 171.192 138.778 170.771 138.955 170.339 139.132 169.907 139.211 169.479 139.193 169.057 139.174 168.634 139.065 168.224 138.866 167.826 138.668 167.428 138.394 167.056 138.046 166.708 137.748 166.409 137.415 166.158 137.049 165.952 136.682 165.747 136.292 165.581 135.879 165.454 135.465 165.326 135.033 165.236 134.583 165.183 134.132 165.131 133.677 165.117 133.217 165.141L134.858 163.501C135.703 163.513 136.502 163.675 137.254 163.985 138.006 164.296 138.764 164.834 139.528 165.598ZM161.358 187.279 161.936 187.857 148.27 201.523 146.741 199.994 158.291 188.444C158.055 188.444 157.747 188.407 157.368 188.332 156.989 188.258 156.584 188.154 156.152 188.02 155.72 187.886 155.282 187.728 154.837 187.545 154.393 187.361 153.984 187.158 153.611 186.934L155.159 185.387C155.588 185.629 156.069 185.859 156.604 186.076 157.138 186.294 157.685 186.487 158.245 186.654 158.804 186.822 159.352 186.96 159.89 187.069 160.427 187.178 160.917 187.248 161.358 187.279Z" fill="url(#fill1)" fill-rule="evenodd"/><text fill="#000000" fill-opacity="0" font-family="Arial,Arial_MSFontService,sans-serif" font-size="87.8678" x="83.169" y="199.939">Nov 2019</text><path d="M115.793 210.517C116.085 210.809 116.23 211.162 116.227 211.575 116.224 211.988 116.079 212.338 115.793 212.624 115.507 212.909 115.159 213.052 114.749 213.052 114.339 213.052 113.988 212.906 113.696 212.614 113.41 212.328 113.268 211.982 113.272 211.575 113.275 211.168 113.419 210.821 113.705 210.535 113.991 210.25 114.339 210.103 114.749 210.097 115.159 210.091 115.507 210.231 115.793 210.517ZM62.7602 157.484C63.0523 157.776 63.1968 158.129 63.1937 158.542 63.1906 158.955 63.0461 159.305 62.7602 159.591 62.4744 159.876 62.1263 160.019 61.7162 160.019 61.306 160.019 60.9548 159.873 60.6627 159.581 60.3769 159.295 60.2355 158.949 60.2386 158.542 60.2417 158.135 60.3862 157.788 60.6721 157.502 60.9579 157.217 61.306 157.07 61.7162 157.064 62.1263 157.058 62.4744 157.198 62.7602 157.484ZM100.116 171.889 109.392 181.164 107.975 182.581 104.116 178.722 92.1646 190.673 90.5984 189.107 102.549 177.156 98.6994 173.306ZM92.2944 164.067 99.0809 170.853 97.664 172.27 92.4435 167.05 87.9968 171.496 92.8257 176.325 91.4181 177.733 86.5892 172.904 81.9094 177.584 87.4282 183.103 86.0112 184.52 78.9263 177.435ZM78.1522 149.924 80.1845 151.957 76.3904 169.138C76.235 169.852 76.1169 170.331 76.0361 170.573L76.0734 170.61C76.3966 170.163 77.0211 169.476 77.9472 168.55L87.3626 159.135 88.9287 160.701 75.5607 174.069 73.6403 172.149 77.4158 154.614C77.509 154.172 77.6457 153.75 77.826 153.346L77.77 153.29C77.5339 153.625 76.9466 154.262 76.0081 155.201L66.3503 164.859 64.7842 163.293ZM120.213 191.537C120.772 192.097 121.201 192.681 121.499 193.29 121.797 193.899 121.968 194.505 122.012 195.108 122.055 195.711 121.97 196.296 121.755 196.865 121.541 197.434 121.198 197.954 120.725 198.427 118.967 200.185 116.947 200.428 114.666 199.154L114.629 199.191C115.033 199.694 115.342 200.224 115.556 200.78 115.771 201.337 115.881 201.891 115.887 202.444 115.893 202.998 115.791 203.538 115.58 204.066 115.368 204.595 115.039 205.083 114.591 205.53 113.989 206.133 113.327 206.568 112.606 206.835 111.885 207.102 111.142 207.205 110.378 207.143 109.613 207.081 108.846 206.857 108.075 206.472 107.305 206.086 106.571 205.546 105.875 204.85 104.601 203.576 103.83 202.32 103.563 201.083L105.204 199.443C105.397 201.052 106.074 202.438 107.236 203.6 107.702 204.066 108.182 204.429 108.676 204.686 109.171 204.944 109.665 205.097 110.159 205.143 110.653 205.19 111.131 205.128 111.594 204.957 112.057 204.786 112.488 204.502 112.885 204.104 114.632 202.357 114.262 200.241 111.776 197.755L110.667 196.646 111.963 195.35 113.016 196.404C115.216 198.604 117.136 198.883 118.777 197.243 120.293 195.726 120.213 194.129 118.535 192.451 117.59 191.506 116.387 190.938 114.927 190.745L116.409 189.263C117.77 189.605 119.038 190.363 120.213 191.537ZM135.902 207.078 136.48 207.656 122.814 221.322 121.285 219.793 132.835 208.243C132.599 208.243 132.291 208.206 131.912 208.131 131.533 208.057 131.128 207.953 130.696 207.819 130.264 207.685 129.826 207.527 129.381 207.344 128.937 207.16 128.528 206.957 128.156 206.733L129.703 205.186C130.132 205.428 130.613 205.658 131.148 205.875 131.682 206.093 132.229 206.286 132.789 206.453 133.348 206.621 133.896 206.759 134.434 206.868 134.972 206.977 135.461 207.047 135.902 207.078Z" fill="url(#fill2)" fill-rule="evenodd"/><text fill="#000000" fill-opacity="0" font-family="Arial,Arial_MSFontService,sans-serif" font-size="71.3978" x="60.2385" y="212.398">.NET 3.1</text><path d="M199.49 262.5C199.49 283.706 189.493 304.913 179.495 304.913 169.498 304.913 159.5 326.119 159.5 347.325" stroke="#107C10" stroke-linejoin="round" stroke-miterlimit="10" fill="none" fill-rule="evenodd"/><path d="M522.816 91.8475 624.639 193.671 624.639 261.553 556.757 261.553 454.933 159.73Z" fill="#107C10" fill-rule="evenodd"/><path d="M535.421 145.978C534.439 144.996 533.328 144.553 532.088 144.65 530.848 144.746 529.641 145.381 528.466 146.556 527.335 147.687 526.732 148.868 526.658 150.099 526.583 151.329 527.031 152.429 528 153.399 528.988 154.387 530.068 154.826 531.24 154.718 532.411 154.609 533.587 153.964 534.768 152.783 535.961 151.59 536.616 150.405 536.731 149.227 536.846 148.049 536.409 146.966 535.421 145.978ZM542.279 150.71 543.956 152.388 539.445 161.748C539.115 162.438 538.783 162.994 538.447 163.416L538.484 163.454C539.025 163.037 539.556 162.705 540.078 162.456L549.587 158.019 551.2 159.632 537.85 165.374 536.35 163.873ZM536.819 144.803C538.242 146.227 538.915 147.776 538.837 149.451 538.76 151.126 537.944 152.74 536.39 154.294 534.868 155.816 533.218 156.605 531.44 156.661 529.663 156.717 528.05 156.021 526.602 154.573 525.191 153.162 524.511 151.59 524.56 149.856 524.61 148.122 525.371 146.519 526.844 145.046 528.448 143.442 530.138 142.628 531.916 142.603 533.693 142.579 535.328 143.312 536.819 144.803ZM574.169 177.101C572.261 175.193 569.372 176.175 565.5 180.047 561.889 183.658 561.019 186.398 562.89 188.269 564.735 190.115 567.498 189.198 571.177 185.519 574.98 181.716 575.978 178.91 574.169 177.101ZM522.267 123.054 524.299 125.087 520.505 142.268C520.35 142.982 520.231 143.461 520.151 143.703L520.188 143.74C520.511 143.293 521.136 142.606 522.062 141.68L531.477 132.265 533.043 133.831 519.675 147.199 517.755 145.279 521.53 127.744C521.624 127.302 521.76 126.88 521.941 126.476L521.885 126.42C521.648 126.755 521.061 127.392 520.123 128.331L510.465 137.989 508.899 136.422ZM585.764 186.104C586.311 186.651 586.738 187.237 587.046 187.862 587.354 188.486 587.526 189.122 587.563 189.768 587.601 190.414 587.493 191.059 587.242 191.702 586.99 192.346 586.575 192.956 585.997 193.534 585.469 194.062 584.93 194.48 584.38 194.788 583.83 195.096 583.242 195.316 582.618 195.45 581.993 195.583 581.321 195.638 580.6 195.613 579.879 195.588 579.086 195.504 578.223 195.361 577.147 195.181 576.248 195.046 575.524 194.956 574.8 194.866 574.18 194.839 573.664 194.877 573.148 194.914 572.704 195.023 572.331 195.203 571.958 195.383 571.591 195.653 571.231 196.014L577.887 202.67 576.517 204.04 568.266 195.79 568.928 195.128C569.5 194.556 570.066 194.115 570.625 193.804 571.184 193.494 571.803 193.286 572.48 193.18 573.157 193.074 573.923 193.057 574.778 193.129 575.632 193.2 576.641 193.326 577.803 193.506 578.636 193.643 579.374 193.716 580.017 193.725 580.66 193.735 581.24 193.68 581.756 193.562 582.271 193.444 582.734 193.264 583.145 193.021 583.555 192.779 583.943 192.474 584.31 192.108 584.72 191.698 585.014 191.277 585.191 190.845 585.368 190.413 585.447 189.985 585.429 189.563 585.41 189.14 585.301 188.73 585.102 188.332 584.903 187.935 584.63 187.562 584.282 187.214 583.984 186.915 583.651 186.664 583.284 186.459 582.918 186.253 582.528 186.087 582.115 185.96 581.701 185.832 581.269 185.742 580.819 185.689 580.368 185.637 579.913 185.623 579.453 185.648L581.094 184.007C581.939 184.019 582.738 184.181 583.49 184.492 584.242 184.802 585 185.34 585.764 186.104ZM575.54 175.88C578.343 178.683 577.46 182.368 572.892 186.936 571.774 188.055 570.681 188.945 569.616 189.607 568.55 190.269 567.529 190.705 566.553 190.917 565.577 191.128 564.658 191.109 563.794 190.861 562.93 190.612 562.144 190.134 561.435 189.425 560.764 188.754 560.313 188.008 560.084 187.188 559.854 186.367 559.841 185.494 560.046 184.568 560.251 183.642 560.672 182.674 561.309 181.664 561.946 180.654 562.796 179.618 563.859 178.555 565.027 177.387 566.157 176.453 567.248 175.754 568.338 175.055 569.376 174.592 570.361 174.365 571.346 174.138 572.274 174.152 573.144 174.407 574.014 174.662 574.813 175.153 575.54 175.88ZM565.258 165.598C565.805 166.145 566.232 166.731 566.54 167.355 566.848 167.98 567.02 168.616 567.057 169.262 567.095 169.908 566.987 170.553 566.736 171.196 566.484 171.839 566.069 172.45 565.491 173.028 564.963 173.556 564.424 173.974 563.874 174.282 563.324 174.589 562.736 174.81 562.112 174.944 561.487 175.077 560.815 175.132 560.094 175.107 559.373 175.082 558.58 174.998 557.716 174.855 556.641 174.675 555.742 174.54 555.018 174.45 554.294 174.36 553.674 174.333 553.158 174.37 552.642 174.408 552.198 174.516 551.825 174.697 551.452 174.877 551.085 175.147 550.725 175.508L557.381 182.164 556.01 183.534 547.76 175.284 548.422 174.622C548.994 174.05 549.559 173.609 550.119 173.298 550.678 172.988 551.297 172.779 551.974 172.674 552.651 172.568 553.417 172.551 554.272 172.623 555.126 172.694 556.135 172.82 557.297 173 558.13 173.137 558.868 173.21 559.511 173.219 560.154 173.228 560.734 173.174 561.25 173.056 561.765 172.938 562.228 172.758 562.639 172.515 563.049 172.273 563.437 171.968 563.804 171.602 564.214 171.192 564.508 170.771 564.685 170.339 564.862 169.907 564.941 169.479 564.922 169.057 564.904 168.634 564.795 168.224 564.596 167.826 564.397 167.428 564.124 167.056 563.776 166.708 563.478 166.409 563.145 166.158 562.778 165.952 562.412 165.747 562.022 165.581 561.608 165.454 561.195 165.326 560.763 165.236 560.313 165.183 559.862 165.131 559.407 165.117 558.947 165.141L560.588 163.501C561.433 163.513 562.231 163.675 562.983 163.985 563.735 164.296 564.494 164.834 565.258 165.598ZM596.987 197.178 597.565 197.756 583.899 211.423 582.37 209.894 593.92 198.344C593.684 198.344 593.377 198.306 592.997 198.232 592.618 198.157 592.213 198.053 591.781 197.92 591.349 197.786 590.911 197.627 590.467 197.444 590.022 197.261 589.614 197.057 589.241 196.833L590.788 195.286C591.217 195.528 591.699 195.758 592.233 195.976 592.768 196.193 593.314 196.386 593.874 196.554 594.433 196.722 594.982 196.86 595.519 196.969 596.057 197.077 596.546 197.147 596.987 197.178Z" fill="url(#fill3)" fill-rule="evenodd"/><text fill="#000000" fill-opacity="0" font-family="Arial,Arial_MSFontService,sans-serif" font-size="88.3683" x="508.899" y="200.377">Nov 2021</text><path d="M488.49 157.484C488.782 157.776 488.927 158.129 488.924 158.542 488.92 158.955 488.776 159.305 488.49 159.591 488.204 159.876 487.856 160.019 487.446 160.019 487.036 160.019 486.685 159.873 486.393 159.581 486.107 159.295 485.965 158.949 485.968 158.542 485.971 158.135 486.116 157.788 486.402 157.502 486.688 157.217 487.036 157.07 487.446 157.064 487.856 157.058 488.204 157.198 488.49 157.484ZM540.079 198.725C539.7 198.346 539.277 198.066 538.811 197.886 538.345 197.706 537.871 197.62 537.389 197.63 536.908 197.639 536.437 197.74 535.977 197.932 535.517 198.125 535.104 198.405 534.737 198.771 534.277 199.231 533.912 199.727 533.642 200.258 533.371 200.79 533.205 201.323 533.143 201.857 533.081 202.392 533.128 202.907 533.283 203.405 533.438 203.902 533.715 204.349 534.113 204.747 534.498 205.132 534.922 205.41 535.385 205.581 535.848 205.752 536.322 205.819 536.807 205.782 537.291 205.744 537.778 205.606 538.266 205.367 538.753 205.128 539.218 204.787 539.659 204.346 540.125 203.88 540.486 203.402 540.741 202.911 540.995 202.42 541.143 201.933 541.183 201.452 541.224 200.97 541.152 200.498 540.969 200.035 540.786 199.572 540.489 199.135 540.079 198.725ZM525.846 171.889 535.122 181.164 533.705 182.581 529.845 178.722 517.894 190.673 516.328 189.107 528.279 177.156 524.429 173.306ZM518.024 164.067 524.811 170.853 523.394 172.27 518.173 167.05 513.727 171.496 518.556 176.325 517.148 177.733 512.319 172.904 507.639 177.584 513.158 183.103 511.741 184.52 504.656 177.435ZM503.882 149.924 505.914 151.957 502.12 169.138C501.965 169.852 501.847 170.331 501.766 170.573L501.803 170.61C502.126 170.163 502.751 169.476 503.677 168.55L513.092 159.135 514.659 160.701 501.29 174.069 499.37 172.149 503.146 154.614C503.239 154.172 503.376 153.75 503.556 153.346L503.5 153.29C503.264 153.625 502.676 154.262 501.738 155.201L492.08 164.859 490.514 163.293ZM547.732 193.327C548.652 194.247 549.264 195.114 549.569 195.928L548.124 197.373C547.788 196.329 547.238 195.425 546.474 194.66 545.877 194.064 545.206 193.66 544.46 193.449 543.714 193.237 542.927 193.205 542.097 193.351 541.267 193.497 540.416 193.823 539.543 194.329 538.67 194.836 537.81 195.512 536.965 196.357L537.002 196.394C538.73 195.897 540.302 196.357 541.719 197.774 542.304 198.358 542.731 198.984 543.001 199.652 543.272 200.321 543.391 201.003 543.36 201.699 543.329 202.395 543.152 203.085 542.829 203.768 542.506 204.452 542.036 205.101 541.421 205.717 540.769 206.369 540.063 206.863 539.305 207.199 538.547 207.534 537.782 207.715 537.012 207.739 536.241 207.764 535.488 207.629 534.751 207.334 534.015 207.039 533.345 206.59 532.742 205.987 532.071 205.316 531.61 204.575 531.358 203.764 531.106 202.952 531.058 202.1 531.213 201.205 531.369 200.31 531.729 199.387 532.295 198.436 532.86 197.485 533.619 196.534 534.569 195.583 535.732 194.421 536.915 193.495 538.121 192.805 539.327 192.115 540.505 191.671 541.654 191.472 542.804 191.273 543.898 191.326 544.936 191.631 545.974 191.935 546.906 192.501 547.732 193.327Z" fill="url(#fill4)" fill-rule="evenodd"/><text fill="#000000" fill-opacity="0" font-family="Arial,Arial_MSFontService,sans-serif" font-size="57.8178" x="485.968" y="200.515">.NET 6</text><path d="M948.545 91.8475 1050.37 193.671 1050.37 261.553 982.486 261.553 880.663 159.73Z" fill="#107C10" fill-rule="evenodd"/><path d="M961.15 145.978C960.168 144.996 959.058 144.553 957.818 144.65 956.578 144.746 955.371 145.381 954.196 146.556 953.065 147.687 952.462 148.868 952.388 150.099 952.313 151.329 952.76 152.429 953.73 153.399 954.718 154.387 955.798 154.826 956.969 154.718 958.141 154.609 959.317 153.964 960.498 152.783 961.691 151.59 962.345 150.405 962.46 149.227 962.575 148.049 962.139 146.966 961.15 145.978ZM968.008 150.71 969.686 152.388 965.174 161.748C964.845 162.438 964.512 162.994 964.177 163.416L964.214 163.454C964.755 163.037 965.286 162.705 965.808 162.456L975.317 158.019 976.929 159.632 963.58 165.374 962.079 163.873ZM962.549 144.803C963.972 146.227 964.645 147.776 964.567 149.451 964.489 151.126 963.674 152.74 962.12 154.294 960.597 155.816 958.947 156.605 957.17 156.661 955.392 156.717 953.78 156.021 952.332 154.573 950.921 153.162 950.24 151.59 950.29 149.856 950.34 148.122 951.101 146.519 952.574 145.046 954.177 143.442 955.868 142.628 957.645 142.603 959.423 142.579 961.057 143.312 962.549 144.803ZM999.899 177.101C997.991 175.193 995.101 176.175 991.229 180.047 987.619 183.658 986.748 186.398 988.619 188.269 990.465 190.115 993.227 189.198 996.907 185.519 1000.71 181.716 1001.71 178.91 999.899 177.101ZM947.996 123.054 950.029 125.087 946.235 142.268C946.079 142.982 945.961 143.461 945.88 143.703L945.918 143.74C946.241 143.293 946.865 142.606 947.791 141.68L957.207 132.265 958.773 133.831 945.405 147.199 943.484 145.279 947.26 127.744C947.353 127.302 947.49 126.88 947.67 126.476L947.614 126.42C947.378 126.755 946.791 127.392 945.852 128.331L936.195 137.989 934.628 136.422ZM1021.17 195.78C1021.73 196.339 1022.16 196.924 1022.46 197.533 1022.75 198.142 1022.93 198.748 1022.97 199.35 1023.01 199.953 1022.93 200.539 1022.71 201.108 1022.5 201.676 1022.15 202.197 1021.68 202.669 1019.92 204.428 1017.9 204.67 1015.62 203.396L1015.59 203.434C1015.99 203.937 1016.3 204.467 1016.51 205.023 1016.73 205.579 1016.84 206.134 1016.84 206.687 1016.85 207.24 1016.75 207.781 1016.54 208.309 1016.33 208.837 1016 209.325 1015.55 209.773 1014.95 210.376 1014.28 210.811 1013.56 211.078 1012.84 211.345 1012.1 211.448 1011.33 211.385 1010.57 211.323 1009.8 211.1 1009.03 210.714 1008.26 210.329 1007.53 209.788 1006.83 209.092 1005.56 207.818 1004.79 206.563 1004.52 205.326L1006.16 203.685C1006.35 205.295 1007.03 206.681 1008.19 207.843 1008.66 208.309 1009.14 208.671 1009.63 208.929 1010.13 209.187 1010.62 209.339 1011.12 209.386 1011.61 209.432 1012.09 209.37 1012.55 209.199 1013.01 209.029 1013.44 208.744 1013.84 208.346 1015.59 206.6 1015.22 204.484 1012.73 201.998L1011.62 200.889 1012.92 199.593 1013.97 200.646C1016.17 202.846 1018.09 203.126 1019.73 201.485 1021.25 199.969 1021.17 198.372 1019.49 196.694 1018.55 195.749 1017.34 195.18 1015.88 194.988L1017.37 193.505C1018.73 193.847 1019.99 194.605 1021.17 195.78ZM1011.49 186.104C1012.04 186.651 1012.47 187.237 1012.78 187.862 1013.08 188.486 1013.26 189.122 1013.29 189.768 1013.33 190.414 1013.22 191.059 1012.97 191.702 1012.72 192.346 1012.3 192.956 1011.73 193.534 1011.2 194.062 1010.66 194.48 1010.11 194.788 1009.56 195.096 1008.97 195.316 1008.35 195.45 1007.72 195.583 1007.05 195.638 1006.33 195.613 1005.61 195.588 1004.82 195.504 1003.95 195.361 1002.88 195.181 1001.98 195.046 1001.25 194.956 1000.53 194.866 999.909 194.839 999.394 194.877 998.878 194.914 998.433 195.023 998.06 195.203 997.688 195.383 997.321 195.653 996.96 196.014L1003.62 202.67 1002.25 204.04 993.996 195.79 994.658 195.128C995.23 194.556 995.795 194.115 996.354 193.804 996.914 193.494 997.532 193.286 998.21 193.18 998.887 193.074 999.653 193.057 1000.51 193.129 1001.36 193.2 1002.37 193.326 1003.53 193.506 1004.37 193.643 1005.1 193.716 1005.75 193.725 1006.39 193.735 1006.97 193.68 1007.49 193.562 1008 193.444 1008.46 193.264 1008.87 193.021 1009.28 192.779 1009.67 192.474 1010.04 192.108 1010.45 191.698 1010.74 191.277 1010.92 190.845 1011.1 190.413 1011.18 189.985 1011.16 189.563 1011.14 189.14 1011.03 188.73 1010.83 188.332 1010.63 187.935 1010.36 187.562 1010.01 187.214 1009.71 186.915 1009.38 186.664 1009.01 186.459 1008.65 186.253 1008.26 186.087 1007.84 185.96 1007.43 185.832 1007 185.742 1006.55 185.689 1006.1 185.637 1005.64 185.623 1005.18 185.648L1006.82 184.007C1007.67 184.019 1008.47 184.181 1009.22 184.492 1009.97 184.802 1010.73 185.34 1011.49 186.104ZM1001.27 175.88C1004.07 178.683 1003.19 182.368 998.622 186.936 997.503 188.055 996.411 188.945 995.345 189.607 994.279 190.269 993.258 190.705 992.283 190.917 991.307 191.128 990.387 191.109 989.523 190.861 988.66 190.612 987.873 190.134 987.165 189.425 986.494 188.754 986.043 188.008 985.813 187.188 985.583 186.367 985.571 185.494 985.776 184.568 985.981 183.642 986.402 182.674 987.039 181.664 987.676 180.654 988.526 179.618 989.589 178.555 990.757 177.387 991.887 176.453 992.977 175.754 994.068 175.055 995.106 174.592 996.091 174.365 997.076 174.138 998.004 174.152 998.874 174.407 999.744 174.662 1000.54 175.153 1001.27 175.88ZM990.988 165.598C991.535 166.145 991.962 166.731 992.269 167.355 992.577 167.98 992.75 168.616 992.787 169.262 992.824 169.908 992.717 170.553 992.465 171.196 992.214 171.839 991.799 172.45 991.221 173.028 990.693 173.556 990.153 173.974 989.603 174.282 989.053 174.589 988.466 174.81 987.841 174.944 987.217 175.077 986.544 175.132 985.823 175.107 985.102 175.082 984.31 174.998 983.446 174.855 982.371 174.675 981.471 174.54 980.747 174.45 980.023 174.36 979.403 174.333 978.887 174.37 978.372 174.408 977.927 174.516 977.554 174.697 977.182 174.877 976.815 175.147 976.454 175.508L983.11 182.164 981.74 183.534 973.49 175.284 974.152 174.622C974.724 174.05 975.289 173.609 975.848 173.298 976.408 172.988 977.026 172.779 977.704 172.674 978.381 172.568 979.147 172.551 980.001 172.623 980.856 172.694 981.864 172.82 983.026 173 983.859 173.137 984.597 173.21 985.241 173.219 985.884 173.228 986.463 173.174 986.979 173.056 987.495 172.938 987.958 172.758 988.368 172.515 988.778 172.273 989.167 171.968 989.533 171.602 989.944 171.192 990.237 170.771 990.414 170.339 990.591 169.907 990.671 169.479 990.652 169.057 990.633 168.634 990.525 168.224 990.326 167.826 990.127 167.428 989.854 167.056 989.505 166.708 989.207 166.409 988.875 166.158 988.508 165.952 988.141 165.747 987.751 165.581 987.338 165.454 986.925 165.326 986.493 165.236 986.042 165.183 985.592 165.131 985.136 165.117 984.677 165.141L986.317 163.501C987.162 163.513 987.961 163.675 988.713 163.985 989.465 164.296 990.223 164.834 990.988 165.598Z" fill="url(#fill5)" fill-rule="evenodd"/><text fill="#000000" fill-opacity="0" font-family="Arial,Arial_MSFontService,sans-serif" font-size="88.3486" x="934.628" y="200.359">Nov 2023</text><path d="M914.22 157.484C914.512 157.776 914.656 158.129 914.653 158.542 914.65 158.955 914.505 159.305 914.22 159.591 913.934 159.876 913.586 160.019 913.176 160.019 912.765 160.019 912.414 159.873 912.122 159.581 911.836 159.295 911.695 158.949 911.698 158.542 911.701 158.135 911.846 157.788 912.131 157.502 912.417 157.217 912.765 157.07 913.176 157.064 913.586 157.058 913.934 157.198 914.22 157.484ZM965.137 199.042C964.752 198.657 964.329 198.368 963.869 198.175 963.409 197.982 962.94 197.886 962.462 197.886 961.983 197.886 961.509 197.984 961.04 198.18 960.571 198.375 960.137 198.672 959.74 199.07 959.323 199.486 959.011 199.926 958.803 200.389 958.595 200.852 958.489 201.318 958.486 201.787 958.483 202.256 958.584 202.721 958.789 203.181 958.994 203.641 959.298 204.073 959.702 204.477 960.094 204.868 960.52 205.163 960.979 205.362 961.439 205.561 961.907 205.662 962.383 205.665 962.858 205.668 963.33 205.569 963.799 205.367 964.269 205.165 964.708 204.859 965.119 204.449 965.491 204.076 965.777 203.663 965.976 203.209 966.175 202.755 966.281 202.286 966.293 201.801 966.306 201.316 966.219 200.838 966.032 200.366 965.846 199.893 965.547 199.452 965.137 199.042ZM970.87 193.309C970.541 192.979 970.182 192.738 969.794 192.586 969.405 192.434 969.012 192.361 968.614 192.367 968.217 192.373 967.828 192.46 967.449 192.628 967.07 192.796 966.725 193.035 966.414 193.346 966.097 193.663 965.861 194.014 965.706 194.399 965.55 194.785 965.473 195.179 965.473 195.583 965.473 195.987 965.549 196.38 965.701 196.763 965.853 197.145 966.082 197.488 966.386 197.793 966.691 198.097 967.037 198.326 967.426 198.478 967.814 198.63 968.209 198.705 968.61 198.702 969.011 198.698 969.405 198.621 969.794 198.469 970.182 198.316 970.532 198.085 970.842 197.774 971.166 197.451 971.406 197.095 971.565 196.707 971.723 196.318 971.803 195.925 971.803 195.527 971.803 195.13 971.725 194.738 971.57 194.353 971.414 193.967 971.181 193.619 970.87 193.309ZM951.576 171.889 960.851 181.164 959.434 182.581 955.575 178.722 943.624 190.673 942.058 189.107 954.009 177.156 950.159 173.306ZM943.754 164.067 950.54 170.853 949.123 172.27 943.903 167.05 939.456 171.496 944.285 176.325 942.878 177.733 938.049 172.904 933.369 177.584 938.888 183.103 937.471 184.52 930.386 177.435ZM929.612 149.924 931.644 151.957 927.85 169.138C927.694 169.852 927.576 170.331 927.495 170.573L927.533 170.61C927.856 170.163 928.481 169.476 929.407 168.55L938.822 159.135 940.388 160.701 927.02 174.069 925.1 172.149 928.875 154.614C928.968 154.172 929.105 153.75 929.285 153.346L929.229 153.29C928.993 153.625 928.406 154.262 927.468 155.201L917.81 164.859 916.244 163.293ZM972.148 192.013C972.688 192.554 973.102 193.141 973.387 193.775 973.673 194.409 973.832 195.046 973.863 195.686 973.894 196.326 973.794 196.947 973.564 197.55 973.335 198.153 972.977 198.697 972.492 199.182 971.877 199.797 971.145 200.187 970.297 200.352 969.449 200.516 968.58 200.477 967.691 200.235 967.928 200.77 968.071 201.316 968.12 201.876 968.17 202.435 968.144 202.974 968.041 203.493 967.939 204.012 967.765 204.506 967.519 204.975 967.274 205.445 966.974 205.856 966.619 206.211 966.035 206.795 965.395 207.224 964.699 207.497 964.003 207.771 963.291 207.889 962.564 207.851 961.837 207.814 961.112 207.626 960.388 207.287 959.664 206.949 958.981 206.459 958.341 205.819 957.707 205.185 957.223 204.508 956.887 203.787 956.551 203.066 956.363 202.34 956.323 201.61 956.283 200.88 956.398 200.165 956.668 199.466 956.938 198.767 957.366 198.125 957.95 197.541 958.304 197.187 958.716 196.887 959.185 196.641 959.654 196.396 960.148 196.222 960.667 196.119 961.186 196.017 961.727 195.992 962.289 196.045 962.852 196.098 963.403 196.245 963.944 196.488 963.689 195.586 963.644 194.712 963.809 193.863 963.974 193.015 964.363 192.283 964.979 191.668 965.47 191.177 966.018 190.818 966.624 190.591 967.23 190.364 967.853 190.267 968.493 190.298 969.133 190.329 969.769 190.489 970.4 190.778 971.03 191.067 971.613 191.478 972.148 192.013Z" fill="url(#fill6)" fill-rule="evenodd"/><text fill="#000000" fill-opacity="0" font-family="Arial,Arial_MSFontService,sans-serif" font-size="57.9335" x="911.698" y="200.616">.NET 8</text><path d="M625.49 262.5C625.49 283.706 615.493 304.913 605.495 304.913 595.498 304.913 585.5 326.119 585.5 347.325" stroke="#107C10" stroke-linejoin="round" stroke-miterlimit="10" fill="none" fill-rule="evenodd"/><path d="M1050.49 262.5C1050.49 283.706 1040.49 304.913 1030.5 304.913 1020.5 304.913 1010.5 326.119 1010.5 347.325" stroke="#107C10" stroke-linejoin="round" stroke-miterlimit="10" fill="none" fill-rule="evenodd"/><path d="M232.85 600.778 334.674 498.954 402.556 498.954 402.556 566.837 300.733 668.66Z" fill="#D73B01" fill-rule="evenodd"/><path d="M286.981 588.173C285.999 589.154 285.556 590.265 285.653 591.505 285.749 592.745 286.384 593.952 287.559 595.127 288.69 596.258 289.871 596.861 291.101 596.935 292.332 597.01 293.432 596.562 294.402 595.593 295.39 594.605 295.829 593.525 295.721 592.354 295.612 591.182 294.967 590.006 293.786 588.825 292.593 587.632 291.408 586.978 290.23 586.863 289.052 586.748 287.969 587.184 286.981 588.173ZM291.713 581.315 293.391 579.637 302.751 584.149C303.441 584.478 303.997 584.811 304.419 585.146L304.457 585.109C304.04 584.568 303.708 584.037 303.459 583.515L299.022 574.006 300.635 572.393 306.377 585.743 304.876 587.244ZM285.806 586.774C287.23 585.351 288.779 584.678 290.454 584.756 292.128 584.834 293.743 585.649 295.296 587.203 296.819 588.726 297.608 590.376 297.664 592.153 297.72 593.931 297.024 595.543 295.576 596.991 294.165 598.402 292.593 599.083 290.859 599.033 289.125 598.983 287.522 598.222 286.049 596.749 284.445 595.146 283.631 593.455 283.606 591.678 283.582 589.9 284.315 588.266 285.806 586.774ZM338.424 529.104C338.057 529.471 337.788 529.886 337.617 530.349 337.446 530.812 337.377 531.292 337.408 531.789 337.439 532.286 337.569 532.783 337.799 533.281 338.029 533.778 338.358 534.241 338.787 534.67 339.26 535.142 339.746 535.501 340.246 535.746 340.747 535.992 341.244 536.125 341.738 536.147 342.232 536.169 342.714 536.082 343.183 535.886 343.652 535.69 344.089 535.391 344.492 534.987 344.847 534.632 345.114 534.231 345.294 533.784 345.474 533.337 345.568 532.883 345.574 532.423 345.58 531.963 345.496 531.513 345.322 531.071 345.148 530.63 344.884 530.232 344.53 529.878 344.014 529.362 343.478 528.96 342.922 528.671 342.365 528.382 341.819 528.205 341.281 528.139 340.743 528.074 340.229 528.122 339.738 528.284 339.247 528.445 338.809 528.719 338.424 529.104ZM318.104 549.424C316.196 551.332 317.178 554.222 321.05 558.094 324.661 561.704 327.401 562.574 329.272 560.704 331.118 558.858 330.201 556.096 326.522 552.416 322.719 548.613 319.913 547.615 318.104 549.424ZM264.057 601.327 266.09 599.294 283.27 603.088C283.985 603.244 284.464 603.362 284.706 603.443L284.743 603.405C284.296 603.082 283.609 602.458 282.683 601.532L273.268 592.116 274.834 590.55 288.202 603.918 286.282 605.838 268.746 602.063C268.305 601.97 267.883 601.833 267.479 601.653L267.423 601.709C267.758 601.945 268.395 602.532 269.334 603.471L278.992 613.128 277.425 614.695ZM337.258 527.678C337.93 527.007 338.66 526.547 339.449 526.298 340.238 526.05 341.07 526.008 341.943 526.172 342.816 526.337 343.725 526.705 344.67 527.277 345.614 527.849 346.574 528.623 347.55 529.598 348.775 530.823 349.742 532.033 350.454 533.229 351.166 534.426 351.619 535.588 351.815 536.716 352.011 537.844 351.946 538.916 351.619 539.932 351.293 540.948 350.701 541.885 349.843 542.743 348.961 543.625 348.029 544.247 347.047 544.607L345.583 543.143C346.739 542.82 347.737 542.239 348.576 541.4 349.178 540.797 349.593 540.134 349.82 539.41 350.047 538.686 350.087 537.922 349.941 537.117 349.795 536.312 349.461 535.474 348.939 534.604 348.417 533.734 347.706 532.849 346.804 531.948L346.767 531.985C347.345 533.706 346.926 535.276 345.509 536.693 344.937 537.264 344.311 537.688 343.63 537.965 342.95 538.242 342.251 538.369 341.533 538.347 340.815 538.326 340.105 538.156 339.403 537.839 338.7 537.522 338.042 537.056 337.426 536.441 336.767 535.782 336.272 535.072 335.939 534.311 335.607 533.549 335.434 532.78 335.422 532.003 335.41 531.227 335.557 530.467 335.865 529.724 336.172 528.982 336.637 528.299 337.258 527.678ZM316.883 548.054C319.686 545.251 323.371 546.133 327.939 550.701 329.058 551.82 329.948 552.912 330.61 553.978 331.272 555.044 331.708 556.064 331.92 557.04 332.131 558.016 332.112 558.936 331.864 559.799 331.615 560.663 331.137 561.45 330.428 562.158 329.757 562.829 329.011 563.28 328.191 563.51 327.37 563.74 326.497 563.752 325.571 563.547 324.645 563.342 323.677 562.921 322.667 562.284 321.657 561.647 320.621 560.797 319.558 559.734 318.39 558.566 317.456 557.436 316.757 556.346 316.058 555.255 315.595 554.217 315.368 553.232 315.141 552.247 315.155 551.319 315.41 550.449 315.665 549.579 316.156 548.781 316.883 548.054ZM306.601 558.335C307.148 557.788 307.734 557.361 308.358 557.053 308.983 556.746 309.618 556.573 310.265 556.536 310.911 556.499 311.556 556.606 312.199 556.858 312.842 557.109 313.453 557.524 314.031 558.102 314.559 558.63 314.977 559.17 315.285 559.72 315.592 560.27 315.813 560.857 315.947 561.482 316.08 562.106 316.135 562.779 316.11 563.5 316.085 564.221 316.001 565.013 315.858 565.877 315.678 566.952 315.543 567.852 315.453 568.576 315.362 569.3 315.336 569.92 315.373 570.435 315.411 570.951 315.519 571.396 315.7 571.769 315.88 572.141 316.15 572.508 316.511 572.869L323.167 566.213 324.537 567.583 316.287 575.833 315.625 575.171C315.053 574.599 314.612 574.034 314.301 573.474 313.991 572.915 313.782 572.297 313.677 571.619 313.571 570.942 313.554 570.176 313.625 569.321 313.697 568.467 313.823 567.459 314.003 566.296 314.14 565.464 314.213 564.726 314.222 564.082 314.231 563.439 314.177 562.86 314.059 562.344 313.941 561.828 313.761 561.365 313.518 560.955 313.276 560.545 312.971 560.156 312.605 559.789 312.195 559.379 311.773 559.086 311.342 558.909 310.91 558.731 310.482 558.652 310.06 558.671 309.637 558.69 309.227 558.798 308.829 558.997 308.431 559.196 308.059 559.469 307.711 559.818 307.412 560.116 307.161 560.448 306.955 560.815 306.75 561.182 306.584 561.572 306.457 561.985 306.329 562.398 306.239 562.83 306.186 563.281 306.134 563.731 306.12 564.186 306.144 564.646L304.504 563.006C304.516 562.16 304.678 561.362 304.988 560.61 305.299 559.858 305.837 559.1 306.601 558.335ZM328.282 536.505 328.86 535.927 342.526 549.594 340.997 551.123 329.447 539.572C329.447 539.809 329.41 540.116 329.335 540.495 329.261 540.874 329.157 541.28 329.023 541.712 328.889 542.144 328.731 542.582 328.548 543.026 328.364 543.471 328.161 543.879 327.937 544.252L326.389 542.705C326.632 542.276 326.862 541.794 327.079 541.26 327.297 540.725 327.489 540.178 327.657 539.619 327.825 539.06 327.963 538.511 328.072 537.974 328.181 537.436 328.251 536.947 328.282 536.505Z" fill="url(#fill7)" fill-rule="evenodd"/><text fill="#000000" fill-opacity="0" font-family="Arial,Arial_MSFontService,sans-serif" font-size="88.6206" x="264.057" y="603.617">Nov 2019</text><path d="M351.52 582.07C351.812 581.778 352.164 581.634 352.578 581.637 352.991 581.64 353.341 581.784 353.627 582.07 353.912 582.356 354.055 582.704 354.055 583.114 354.055 583.525 353.909 583.876 353.617 584.168 353.331 584.454 352.985 584.595 352.578 584.592 352.171 584.589 351.824 584.444 351.538 584.158 351.252 583.873 351.106 583.525 351.1 583.114 351.094 582.704 351.234 582.356 351.52 582.07ZM298.487 635.103C298.779 634.811 299.132 634.667 299.545 634.67 299.958 634.673 300.308 634.817 300.594 635.103 300.879 635.389 301.022 635.737 301.022 636.147 301.022 636.558 300.876 636.909 300.584 637.201 300.298 637.487 299.952 637.628 299.545 637.625 299.138 637.622 298.791 637.477 298.505 637.191 298.219 636.906 298.073 636.558 298.067 636.147 298.061 635.737 298.201 635.389 298.487 635.103ZM312.892 597.747 322.167 588.472 323.584 589.888 319.725 593.748 331.676 605.699 330.11 607.265 318.159 595.314 314.309 599.164ZM305.07 605.569 311.856 598.783 313.273 600.2 308.053 605.42 312.499 609.867 317.328 605.038 318.736 606.445 313.907 611.274 318.587 615.954 324.106 610.435 325.522 611.852 318.438 618.937ZM290.927 619.711 292.96 617.679 310.141 621.473C310.855 621.629 311.334 621.747 311.576 621.827L311.613 621.79C311.166 621.467 310.479 620.842 309.553 619.916L300.138 610.501 301.704 608.935 315.072 622.303 313.152 624.223 295.617 620.448C295.175 620.354 294.753 620.218 294.349 620.038L294.293 620.094C294.628 620.33 295.265 620.917 296.204 621.855L305.862 631.513 304.295 633.079ZM332.54 577.651C333.1 577.092 333.684 576.663 334.293 576.364 334.902 576.066 335.508 575.895 336.111 575.852 336.714 575.808 337.299 575.894 337.868 576.108 338.437 576.322 338.957 576.666 339.43 577.138 341.188 578.897 341.431 580.917 340.157 583.198L340.194 583.235C340.697 582.831 341.227 582.522 341.783 582.307 342.34 582.093 342.894 581.983 343.447 581.976 344 581.97 344.541 582.073 345.069 582.284 345.598 582.495 346.086 582.825 346.533 583.272 347.136 583.875 347.571 584.537 347.838 585.258 348.105 585.979 348.208 586.721 348.146 587.486 348.084 588.25 347.86 589.018 347.475 589.788 347.089 590.559 346.549 591.292 345.853 591.988 344.578 593.262 343.323 594.033 342.086 594.3L340.446 592.66C342.055 592.467 343.441 591.79 344.603 590.627 345.069 590.161 345.431 589.681 345.689 589.187 345.947 588.693 346.1 588.199 346.146 587.705 346.193 587.211 346.131 586.732 345.96 586.269 345.789 585.806 345.504 585.376 345.107 584.978 343.36 583.232 341.244 583.602 338.758 586.087L337.649 587.197 336.353 585.901 337.407 584.848C339.607 582.648 339.886 580.727 338.246 579.086 336.729 577.57 335.132 577.651 333.454 579.329 332.509 580.273 331.941 581.476 331.748 582.937L330.266 581.454C330.608 580.093 331.366 578.825 332.54 577.651ZM348.081 561.961 348.659 561.383 362.325 575.05 360.796 576.578 349.246 565.028C349.246 565.264 349.209 565.572 349.134 565.951 349.06 566.33 348.956 566.736 348.822 567.168 348.688 567.6 348.53 568.038 348.347 568.482 348.163 568.927 347.96 569.335 347.736 569.708L346.188 568.161C346.431 567.732 346.661 567.25 346.878 566.716 347.096 566.181 347.288 565.634 347.456 565.075 347.624 564.516 347.762 563.967 347.871 563.43 347.98 562.892 348.05 562.402 348.081 561.961Z" fill="url(#fill8)" fill-rule="evenodd"/><text fill="#000000" fill-opacity="0" font-family="Arial,Arial_MSFontService,sans-serif" font-size="76.2418" x="290.927" y="628.095">.NET 3.1</text><path d="M667.798 600.778 769.622 498.954 837.504 498.954 837.504 566.837 735.681 668.66Z" fill="#D73B01" fill-rule="evenodd"/><path d="M721.929 588.173C720.947 589.154 720.504 590.265 720.6 591.505 720.697 592.745 721.332 593.952 722.507 595.127 723.638 596.258 724.819 596.861 726.049 596.935 727.28 597.01 728.38 596.562 729.349 595.593 730.337 594.605 730.777 593.525 730.668 592.354 730.56 591.182 729.915 590.006 728.734 588.825 727.541 587.632 726.355 586.978 725.178 586.863 724 586.748 722.917 587.184 721.929 588.173ZM726.661 581.315 728.339 579.637 737.699 584.149C738.388 584.478 738.945 584.811 739.367 585.146L739.405 585.109C738.988 584.568 738.656 584.037 738.407 583.515L733.97 574.006 735.582 572.393 741.325 585.743 739.824 587.244ZM720.754 586.774C722.177 585.351 723.727 584.678 725.401 584.756 727.076 584.834 728.691 585.649 730.244 587.203 731.767 588.726 732.556 590.376 732.612 592.153 732.668 593.931 731.972 595.543 730.524 596.991 729.113 598.402 727.541 599.083 725.807 599.033 724.073 598.983 722.47 598.222 720.997 596.749 719.393 595.146 718.579 593.455 718.554 591.678 718.529 589.9 719.263 588.266 720.754 586.774ZM773.372 529.104C773.005 529.471 772.736 529.886 772.565 530.349 772.394 530.812 772.324 531.292 772.355 531.789 772.386 532.286 772.517 532.783 772.747 533.281 772.977 533.778 773.306 534.241 773.735 534.67 774.207 535.142 774.694 535.501 775.194 535.746 775.694 535.992 776.192 536.125 776.686 536.147 777.18 536.169 777.661 536.082 778.131 535.886 778.6 535.69 779.036 535.391 779.44 534.987 779.795 534.632 780.062 534.231 780.242 533.784 780.422 533.337 780.515 532.883 780.522 532.423 780.528 531.963 780.444 531.513 780.27 531.071 780.096 530.63 779.832 530.232 779.478 529.878 778.962 529.362 778.426 528.96 777.87 528.671 777.313 528.382 776.766 528.205 776.229 528.139 775.691 528.074 775.177 528.122 774.686 528.284 774.195 528.445 773.757 528.719 773.372 529.104ZM753.052 549.424C751.144 551.332 752.126 554.222 755.998 558.094 759.609 561.704 762.349 562.574 764.22 560.704 766.066 558.858 765.149 556.096 761.47 552.416 757.666 548.613 754.86 547.615 753.052 549.424ZM699.005 601.327 701.037 599.294 718.218 603.088C718.933 603.244 719.411 603.362 719.654 603.443L719.691 603.405C719.244 603.082 718.557 602.458 717.631 601.532L708.216 592.116 709.782 590.55 723.15 603.918 721.229 605.838 703.694 602.063C703.253 601.97 702.83 601.833 702.426 601.653L702.37 601.709C702.706 601.945 703.343 602.532 704.282 603.471L713.939 613.128 712.373 614.695ZM772.206 527.678C772.878 527.007 773.608 526.547 774.397 526.298 775.186 526.05 776.018 526.008 776.891 526.172 777.764 526.337 778.673 526.705 779.617 527.277 780.562 527.849 781.522 528.623 782.498 529.598 783.722 530.823 784.69 532.033 785.402 533.229 786.113 534.426 786.567 535.588 786.763 536.716 786.959 537.844 786.893 538.916 786.567 539.932 786.241 540.948 785.649 541.885 784.791 542.743 783.909 543.625 782.976 544.247 781.995 544.607L780.531 543.143C781.687 542.82 782.684 542.239 783.523 541.4 784.126 540.797 784.541 540.134 784.768 539.41 784.995 538.686 785.035 537.922 784.889 537.117 784.743 536.312 784.409 535.474 783.887 534.604 783.365 533.734 782.653 532.849 781.752 531.948L781.715 531.985C782.293 533.706 781.873 535.276 780.456 536.693 779.885 537.264 779.259 537.688 778.578 537.965 777.897 538.242 777.198 538.369 776.481 538.347 775.763 538.326 775.053 538.156 774.35 537.839 773.648 537.522 772.989 537.056 772.374 536.441 771.715 535.782 771.22 535.072 770.887 534.311 770.555 533.549 770.382 532.78 770.37 532.003 770.357 531.227 770.505 530.467 770.813 529.724 771.12 528.982 771.585 528.299 772.206 527.678ZM751.831 548.054C754.634 545.251 758.319 546.133 762.887 550.701 764.005 551.82 764.896 552.912 765.558 553.978 766.22 555.044 766.656 556.064 766.867 557.04 767.079 558.016 767.06 558.936 766.811 559.799 766.563 560.663 766.084 561.45 765.376 562.158 764.705 562.829 763.959 563.28 763.139 563.51 762.318 563.74 761.445 563.752 760.519 563.547 759.593 563.342 758.625 562.921 757.615 562.284 756.605 561.647 755.569 560.797 754.506 559.734 753.338 558.566 752.404 557.436 751.705 556.346 751.006 555.255 750.543 554.217 750.316 553.232 750.089 552.247 750.103 551.319 750.358 550.449 750.613 549.579 751.104 548.781 751.831 548.054ZM741.549 558.335C742.096 557.788 742.682 557.361 743.306 557.053 743.931 556.746 744.566 556.573 745.213 556.536 745.859 556.499 746.504 556.606 747.147 556.858 747.79 557.109 748.401 557.524 748.979 558.102 749.507 558.63 749.925 559.17 750.233 559.72 750.54 560.27 750.761 560.857 750.895 561.482 751.028 562.106 751.083 562.779 751.058 563.5 751.033 564.221 750.949 565.013 750.806 565.877 750.626 566.952 750.491 567.852 750.4 568.576 750.31 569.3 750.284 569.92 750.321 570.435 750.358 570.951 750.467 571.396 750.647 571.769 750.828 572.141 751.098 572.508 751.458 572.869L758.115 566.213 759.485 567.583 751.235 575.833 750.573 575.171C750.001 574.599 749.56 574.034 749.249 573.474 748.938 572.915 748.73 572.297 748.625 571.619 748.519 570.942 748.502 570.176 748.573 569.321 748.645 568.467 748.771 567.459 748.951 566.296 749.088 565.464 749.161 564.726 749.17 564.082 749.179 563.439 749.125 562.86 749.007 562.344 748.889 561.828 748.708 561.365 748.466 560.955 748.224 560.545 747.919 560.156 747.552 559.789 747.142 559.379 746.721 559.086 746.289 558.909 745.857 558.731 745.43 558.652 745.008 558.671 744.585 558.69 744.175 558.798 743.777 558.997 743.379 559.196 743.006 559.469 742.658 559.818 742.36 560.116 742.108 560.448 741.903 560.815 741.698 561.182 741.532 561.572 741.404 561.985 741.277 562.398 741.187 562.83 741.134 563.281 741.081 563.731 741.067 564.186 741.092 564.646L739.451 563.006C739.464 562.16 739.625 561.362 739.936 560.61 740.247 559.858 740.785 559.1 741.549 558.335ZM763.23 536.505 763.808 535.927 777.474 549.594 775.945 551.123 764.395 539.572C764.395 539.809 764.358 540.116 764.283 540.495 764.208 540.874 764.104 541.28 763.971 541.712 763.837 542.144 763.679 542.582 763.495 543.026 763.312 543.471 763.109 543.879 762.885 544.252L761.337 542.705C761.58 542.276 761.81 541.794 762.027 541.26 762.245 540.725 762.437 540.178 762.605 539.619 762.773 539.06 762.911 538.511 763.02 537.974 763.129 537.436 763.199 536.947 763.23 536.505Z" fill="url(#fill9)" fill-rule="evenodd"/><text fill="#000000" fill-opacity="0" font-family="Arial,Arial_MSFontService,sans-serif" font-size="88.6206" x="699.005" y="603.617">Nov 2019</text><path d="M786.468 582.07C786.76 581.778 787.112 581.634 787.526 581.637 787.939 581.64 788.288 581.784 788.574 582.07 788.86 582.356 789.003 582.704 789.003 583.114 789.003 583.525 788.857 583.876 788.565 584.168 788.279 584.454 787.933 584.595 787.526 584.592 787.119 584.589 786.772 584.444 786.486 584.158 786.2 583.873 786.054 583.525 786.048 583.114 786.042 582.704 786.182 582.356 786.468 582.07ZM733.435 635.103C733.727 634.811 734.079 634.667 734.493 634.67 734.906 634.673 735.255 634.817 735.541 635.103 735.827 635.389 735.97 635.737 735.97 636.147 735.97 636.558 735.824 636.909 735.532 637.201 735.246 637.487 734.9 637.628 734.493 637.625 734.086 637.622 733.739 637.477 733.453 637.191 733.167 636.906 733.021 636.558 733.015 636.147 733.009 635.737 733.149 635.389 733.435 635.103ZM747.839 597.747 757.115 588.472 758.532 589.888 754.673 593.748 766.624 605.699 765.057 607.265 753.106 595.314 749.256 599.164ZM740.017 605.569 746.804 598.783 748.221 600.2 743 605.42 747.447 609.867 752.276 605.038 753.684 606.445 748.855 611.274 753.535 615.954 759.053 610.435 760.47 611.852 753.385 618.937ZM725.875 619.711 727.907 617.679 745.088 621.473C745.803 621.629 746.282 621.747 746.524 621.827L746.561 621.79C746.114 621.467 745.427 620.842 744.501 619.916L735.086 610.501 736.652 608.935 750.02 622.303 748.099 624.223 730.564 620.448C730.123 620.354 729.7 620.218 729.297 620.038L729.241 620.094C729.576 620.33 730.213 620.917 731.152 621.855L740.809 631.513 739.243 633.079ZM767.488 577.651C768.048 577.092 768.632 576.663 769.241 576.364 769.85 576.066 770.456 575.895 771.059 575.852 771.661 575.808 772.247 575.894 772.816 576.108 773.385 576.322 773.905 576.666 774.377 577.138 776.136 578.897 776.378 580.917 775.104 583.198L775.142 583.235C775.645 582.831 776.175 582.522 776.731 582.307 777.287 582.093 777.842 581.983 778.395 581.976 778.948 581.97 779.489 582.073 780.017 582.284 780.546 582.495 781.033 582.825 781.481 583.272 782.084 583.875 782.519 584.537 782.786 585.258 783.053 585.979 783.156 586.721 783.094 587.486 783.031 588.25 782.808 589.018 782.422 589.788 782.037 590.559 781.496 591.292 780.8 591.988 779.526 593.262 778.271 594.033 777.034 594.3L775.393 592.66C777.003 592.467 778.389 591.79 779.551 590.627 780.017 590.161 780.379 589.681 780.637 589.187 780.895 588.693 781.047 588.199 781.094 587.705 781.141 587.211 781.078 586.732 780.908 586.269 780.737 585.806 780.452 585.376 780.055 584.978 778.308 583.232 776.192 583.602 773.706 586.087L772.597 587.197 771.301 585.901 772.354 584.848C774.554 582.648 774.834 580.727 773.193 579.086 771.677 577.57 770.08 577.651 768.402 579.329 767.457 580.273 766.888 581.476 766.696 582.937L765.214 581.454C765.555 580.093 766.314 578.825 767.488 577.651ZM783.029 561.961 783.607 561.383 797.273 575.05 795.744 576.578 784.194 565.028C784.194 565.264 784.157 565.572 784.082 565.951 784.008 566.33 783.903 566.736 783.77 567.168 783.636 567.6 783.478 568.038 783.294 568.482 783.111 568.927 782.907 569.335 782.684 569.708L781.136 568.161C781.379 567.732 781.609 567.25 781.826 566.716 782.044 566.181 782.236 565.634 782.404 565.075 782.572 564.516 782.71 563.967 782.819 563.43 782.928 562.892 782.998 562.402 783.029 561.961Z" fill="url(#fill10)" fill-rule="evenodd"/><text fill="#000000" fill-opacity="0" font-family="Arial,Arial_MSFontService,sans-serif" font-size="76.2418" x="725.875" y="628.095">.NET 3.1</text><path d="M0 0C29.1688 0 58.3376 20.7226 58.3376 41.445 58.3376 62.1676 67.9513 82.8901 77.5649 82.8901 87.1786 82.8901 96.7922 56.8311 96.7922 30.7722" stroke="#D73B01" stroke-linejoin="round" stroke-miterlimit="10" fill="none" fill-rule="evenodd" transform="matrix(-4.37114e-08 1 1 4.37114e-08 372.5 402.5)"/><path d="M0 0C29.1688 0 58.3376 23.027 58.3376 46.0539 58.3376 69.081 67.9513 92.1079 77.5649 92.1079 87.1786 92.1079 96.7922 66.0491 96.7922 39.9902" stroke="#D73B01" stroke-linejoin="round" stroke-miterlimit="10" fill="none" fill-rule="evenodd" transform="matrix(-4.37114e-08 1 1 4.37114e-08 798.5 402.5)"/></g></svg>